  0
SECTION
  2
HEADER
  9
$ACADVER
  1
AC1024
  9
$ACADMAINTVER
 70
6
  9
$DWGCODEPAGE
  3
ANSI_1252
  9
$LASTSAVEDBY
  1
ezdxf
  9
$INSBASE
 10
0.0
 20
0.0
 30
0.0
  9
$EXTMIN
 10
1e+20
 20
1e+20
 30
1e+20
  9
$EXTMAX
 10
-1e+20
 20
-1e+20
 30
-1e+20
  9
$LIMMIN
 10
0.0
 20
0.0
  9
$LIMMAX
 10
420.0
 20
297.0
  9
$ORTHOMODE
 70
0
  9
$REGENMODE
 70
1
  9
$FILLMODE
 70
1
  9
$QTEXTMODE
 70
0
  9
$MIRRTEXT
 70
1
  9
$LTSCALE
 40
1.0
  9
$ATTMODE
 70
1
  9
$TEXTSIZE
 40
2.5
  9
$TRACEWID
 40
1.0
  9
$TEXTSTYLE
  7
Standard
  9
$CLAYER
  8
0
  9
$CELTYPE
  6
ByLayer
  9
$CECOLOR
 62
256
  9
$CELTSCALE
 40
1.0
  9
$DISPSILH
 70
0
  9
$DIMSCALE
 40
1.0
  9
$DIMASZ
 40
2.5
  9
$DIMEXO
 40
0.625
  9
$DIMDLI
 40
3.75
  9
$DIMRND
 40
0.0
  9
$DIMDLE
 40
0.0
  9
$DIMEXE
 40
1.25
  9
$DIMTP
 40
0.0
  9
$DIMTM
 40
0.0
  9
$DIMTXT
 40
2.5
  9
$DIMCEN
 40
2.5
  9
$DIMTSZ
 40
0.0
  9
$DIMTOL
 70
0
  9
$DIMLIM
 70
0
  9
$DIMTIH
 70
0
  9
$DIMTOH
 70
0
  9
$DIMSE1
 70
0
  9
$DIMSE2
 70
0
  9
$DIMTAD
 70
1
  9
$DIMZIN
 70
8
  9
$DIMBLK
  1

  9
$DIMASO
 70
1
  9
$DIMSHO
 70
1
  9
$DIMPOST
  1

  9
$DIMAPOST
  1

  9
$DIMALT
 70
0
  9
$DIMALTD
 70
3
  9
$DIMALTF
 40
0.03937007874
  9
$DIMLFAC
 40
1.0
  9
$DIMTOFL
 70
1
  9
$DIMTVP
 40
0.0
  9
$DIMTIX
 70
0
  9
$DIMSOXD
 70
0
  9
$DIMSAH
 70
0
  9
$DIMBLK1
  1

  9
$DIMBLK2
  1

  9
$DIMSTYLE
  2
ISO-25
  9
$DIMCLRD
 70
0
  9
$DIMCLRE
 70
0
  9
$DIMCLRT
 70
0
  9
$DIMTFAC
 40
1.0
  9
$DIMGAP
 40
0.625
  9
$DIMJUST
 70
0
  9
$DIMSD1
 70
0
  9
$DIMSD2
 70
0
  9
$DIMTOLJ
 70
0
  9
$DIMTZIN
 70
8
  9
$DIMALTZ
 70
0
  9
$DIMALTTZ
 70
0
  9
$DIMUPT
 70
0
  9
$DIMDEC
 70
2
  9
$DIMTDEC
 70
2
  9
$DIMALTU
 70
2
  9
$DIMALTTD
 70
3
  9
$DIMTXSTY
  7
Standard
  9
$DIMAUNIT
 70
0
  9
$DIMADEC
 70
0
  9
$DIMALTRND
 40
0.0
  9
$DIMAZIN
 70
0
  9
$DIMDSEP
 70
44
  9
$DIMATFIT
 70
3
  9
$DIMFRAC
 70
0
  9
$DIMLDRBLK
  1

  9
$DIMLUNIT
 70
2
  9
$DIMLWD
 70
-2
  9
$DIMLWE
 70
-2
  9
$DIMTMOVE
 70
0
  9
$DIMFXL
 40
1.0
  9
$DIMFXLON
 70
0
  9
$DIMJOGANG
 40
0.785398163397
  9
$DIMTFILL
 70
0
  9
$DIMTFILLCLR
 70
0
  9
$DIMARCSYM
 70
0
  9
$DIMLTYPE
  6

  9
$DIMLTEX1
  6

  9
$DIMLTEX2
  6

  9
$DIMTXTDIRECTION
 70
0
  9
$LUNITS
 70
2
  9
$LUPREC
 70
4
  9
$SKETCHINC
 40
1.0
  9
$FILLETRAD
 40
10.0
  9
$AUNITS
 70
0
  9
$AUPREC
 70
2
  9
$MENU
  1
.
  9
$ELEVATION
 40
0.0
  9
$PELEVATION
 40
0.0
  9
$THICKNESS
 40
0.0
  9
$LIMCHECK
 70
0
  9
$CHAMFERA
 40
0.0
  9
$CHAMFERB
 40
0.0
  9
$CHAMFERC
 40
0.0
  9
$CHAMFERD
 40
0.0
  9
$SKPOLY
 70
0
  9
$TDCREATE
 40
2461319.676435185
  9
$TDUCREATE
 40
2458532.153996898
  9
$TDUPDATE
 40
2461319.676435185
  9
$TDUUPDATE
 40
2458532.1544311
  9
$TDINDWG
 40
0.0
  9
$TDUSRTIMER
 40
0.0
  9
$USRTIMER
 70
1
  9
$ANGBASE
 50
0.0
  9
$ANGDIR
 70
0
  9
$PDMODE
 70
0
  9
$PDSIZE
 40
0.0
  9
$PLINEWID
 40
0.0
  9
$SPLFRAME
 70
0
  9
$SPLINETYPE
 70
6
  9
$SPLINESEGS
 70
8
  9
$HANDSEED
  5
17D
  9
$SURFTAB1
 70
6
  9
$SURFTAB2
 70
6
  9
$SURFTYPE
 70
6
  9
$SURFU
 70
6
  9
$SURFV
 70
6
  9
$UCSBASE
  2

  9
$UCSNAME
  2

  9
$UCSORG
 10
0.0
 20
0.0
 30
0.0
  9
$UCSXDIR
 10
1.0
 20
0.0
 30
0.0
  9
$UCSYDIR
 10
0.0
 20
1.0
 30
0.0
  9
$UCSORTHOREF
  2

  9
$UCSORTHOVIEW
 70
0
  9
$UCSORGTOP
 10
0.0
 20
0.0
 30
0.0
  9
$UCSORGBOTTOM
 10
0.0
 20
0.0
 30
0.0
  9
$UCSORGLEFT
 10
0.0
 20
0.0
 30
0.0
  9
$UCSORGRIGHT
 10
0.0
 20
0.0
 30
0.0
  9
$UCSORGFRONT
 10
0.0
 20
0.0
 30
0.0
  9
$UCSORGBACK
 10
0.0
 20
0.0
 30
0.0
  9
$PUCSBASE
  2

  9
$PUCSNAME
  2

  9
$PUCSORG
 10
0.0
 20
0.0
 30
0.0
  9
$PUCSXDIR
 10
1.0
 20
0.0
 30
0.0
  9
$PUCSYDIR
 10
0.0
 20
1.0
 30
0.0
  9
$PUCSORTHOREF
  2

  9
$PUCSORTHOVIEW
 70
0
  9
$PUCSORGTOP
 10
0.0
 20
0.0
 30
0.0
  9
$PUCSORGBOTTOM
 10
0.0
 20
0.0
 30
0.0
  9
$PUCSORGLEFT
 10
0.0
 20
0.0
 30
0.0
  9
$PUCSORGRIGHT
 10
0.0
 20
0.0
 30
0.0
  9
$PUCSORGFRONT
 10
0.0
 20
0.0
 30
0.0
  9
$PUCSORGBACK
 10
0.0
 20
0.0
 30
0.0
  9
$USERI1
 70
0
  9
$USERI2
 70
0
  9
$USERI3
 70
0
  9
$USERI4
 70
0
  9
$USERI5
 70
0
  9
$USERR1
 40
0.0
  9
$USERR2
 40
0.0
  9
$USERR3
 40
0.0
  9
$USERR4
 40
0.0
  9
$USERR5
 40
0.0
  9
$WORLDVIEW
 70
1
  9
$SHADEDGE
 70
3
  9
$SHADEDIF
 70
70
  9
$TILEMODE
 70
1
  9
$MAXACTVP
 70
64
  9
$PINSBASE
 10
0.0
 20
0.0
 30
0.0
  9
$PLIMCHECK
 70
0
  9
$PEXTMIN
 10
1e+20
 20
1e+20
 30
1e+20
  9
$PEXTMAX
 10
-1e+20
 20
-1e+20
 30
-1e+20
  9
$PLIMMIN
 10
0.0
 20
0.0
  9
$PLIMMAX
 10
420.0
 20
297.0
  9
$UNITMODE
 70
0
  9
$VISRETAIN
 70
1
  9
$PLINEGEN
 70
0
  9
$PSLTSCALE
 70
1
  9
$TREEDEPTH
 70
3020
  9
$CMLSTYLE
  2
Standard
  9
$CMLJUST
 70
0
  9
$CMLSCALE
 40
20.0
  9
$PROXYGRAPHICS
 70
1
  9
$MEASUREMENT
 70
1
  9
$CELWEIGHT
370
-1
  9
$ENDCAPS
280
0
  9
$JOINSTYLE
280
0
  9
$LWDISPLAY
290
0
  9
$INSUNITS
 70
6
  9
$HYPERLINKBASE
  1

  9
$STYLESHEET
  1

  9
$XEDIT
290
1
  9
$CEPSNTYPE
380
0
  9
$PSTYLEMODE
290
1
  9
$FINGERPRINTGUID
  2
{A40A6074-8AA8-4F07-AD18-6EF5AC5E3BE3}
  9
$VERSIONGUID
  2
{411BCFF7-797D-4174-BF1A-2836570BB1F5}
  9
$EXTNAMES
290
1
  9
$PSVPSCALE
 40
0.0
  9
$OLESTARTUP
290
0
  9
$SORTENTS
280
127
  9
$INDEXCTL
280
0
  9
$HIDETEXT
280
1
  9
$XCLIPFRAME
280
1
  9
$HALOGAP
280
0
  9
$OBSCOLOR
 70
257
  9
$OBSLTYPE
280
0
  9
$INTERSECTIONDISPLAY
280
0
  9
$INTERSECTIONCOLOR
 70
257
  9
$DIMASSOC
280
2
  9
$PROJECTNAME
  1

  9
$CAMERADISPLAY
290
0
  9
$LENSLENGTH
 40
50.0
  9
$CAMERAHEIGHT
 40
0.0
  9
$STEPSPERSEC
 40
24.0
  9
$STEPSIZE
 40
100.0
  9
$3DDWFPREC
 40
2.0
  9
$PSOLWIDTH
 40
0.005
  9
$PSOLHEIGHT
 40
0.08
  9
$LOFTANG1
 40
1.570796326795
  9
$LOFTANG2
 40
1.570796326795
  9
$LOFTMAG1
 40
0.0
  9
$LOFTMAG2
 40
0.0
  9
$LOFTPARAM
 70
7
  9
$LOFTNORMALS
280
1
  9
$LATITUDE
 40
37.795
  9
$LONGITUDE
 40
-122.394
  9
$NORTHDIRECTION
 40
0.0
  9
$TIMEZONE
 70
-8000
  9
$LIGHTGLYPHDISPLAY
280
1
  9
$TILEMODELIGHTSYNCH
280
1
  9
$CMATERIAL
347
20
  9
$SOLIDHIST
280
0
  9
$SHOWHIST
280
1
  9
$DWFFRAME
280
2
  9
$DGNFRAME
280
2
  9
$REALWORLDSCALE
290
1
  9
$INTERFERECOLOR
 62
256
  9
$CSHADOW
280
0
  9
$SHADOWPLANELOCATION
 40
0.0
  0
ENDSEC
  0
SECTION
  2
CLASSES
  0
CLASS
  1
ACDBDICTIONARYWDFLT
  2
AcDbDictionaryWithDefault
  3
ObjectDBX Classes
 90
0
 91
0
280
0
281
0
  0
CLASS
  1
SUN
  2
AcDbSun
  3
SCENEOE
 90
1153
 91
0
280
0
281
0
  0
CLASS
  1
VISUALSTYLE
  2
AcDbVisualStyle
  3
ObjectDBX Classes
 90
4095
 91
0
280
0
281
0
  0
CLASS
  1
MATERIAL
  2
AcDbMaterial
  3
ObjectDBX Classes
 90
1153
 91
0
280
0
281
0
  0
CLASS
  1
SCALE
  2
AcDbScale
  3
ObjectDBX Classes
 90
1153
 91
0
280
0
281
0
  0
CLASS
  1
TABLESTYLE
  2
AcDbTableStyle
  3
ObjectDBX Classes
 90
4095
 91
0
280
0
281
0
  0
CLASS
  1
MLEADERSTYLE
  2
AcDbMLeaderStyle
  3
ACDB_MLEADERSTYLE_CLASS
 90
4095
 91
0
280
0
281
0
  0
CLASS
  1
DICTIONARYVAR
  2
AcDbDictionaryVar
  3
ObjectDBX Classes
 90
0
 91
0
280
0
281
0
  0
CLASS
  1
CELLSTYLEMAP
  2
AcDbCellStyleMap
  3
ObjectDBX Classes
 90
1152
 91
0
280
0
281
0
  0
CLASS
  1
MENTALRAYRENDERSETTINGS
  2
AcDbMentalRayRenderSettings
  3
SCENEOE
 90
1024
 91
0
280
0
281
0
  0
CLASS
  1
ACDBDETAILVIEWSTYLE
  2
AcDbDetailViewStyle
  3
ObjectDBX Classes
 90
1025
 91
0
280
0
281
0
  0
CLASS
  1
ACDBSECTIONVIEWSTYLE
  2
AcDbSectionViewStyle
  3
ObjectDBX Classes
 90
1025
 91
0
280
0
281
0
  0
CLASS
  1
RASTERVARIABLES
  2
AcDbRasterVariables
  3
ISM
 90
0
 91
0
280
0
281
0
  0
CLASS
  1
LAYOUT
  2
AcDbLayout
  3
ObjectDBX Classes
 90
0
 91
0
280
0
281
0
  0
CLASS
  1
ACDBPLACEHOLDER
  2
AcDbPlaceHolder
  3
ObjectDBX Classes
 90
0
 91
0
280
0
281
0
  0
ENDSEC
  0
SECTION
  2
TABLES
  0
TABLE
  2
VPORT
  5
8
330
0
100
AcDbSymbolTable
 70
1
  0
VPORT
  5
23
330
8
100
AcDbSymbolTableRecord
100
AcDbViewportTableRecord
  2
*Active
 70
0
 10
0.0
 20
0.0
 11
1.0
 21
1.0
 12
0.0
 22
0.0
 13
0.0
 23
0.0
 14
0.5
 24
0.5
 15
0.5
 25
0.5
 16
0.0
 26
0.0
 36
1.0
 17
0.0
 27
0.0
 37
0.0
 40
1000.0
 41
1.34
 42
50.0
 43
0.0
 44
0.0
 50
0.0
 51
0.0
 71
0
 72
1000
 73
1
 74
3
 75
0
 76
0
 77
0
 78
0
281
0
 65
0
146
0.0
  0
ENDTAB
  0
TABLE
  2
LTYPE
  5
2
330
0
100
AcDbSymbolTable
 70
3
  0
LTYPE
  5
24
330
2
100
AcDbSymbolTableRecord
100
AcDbLinetypeTableRecord
  2
ByBlock
 70
0
  3

 72
65
 73
0
 40
0.0
  0
LTYPE
  5
25
330
2
100
AcDbSymbolTableRecord
100
AcDbLinetypeTableRecord
  2
ByLayer
 70
0
  3

 72
65
 73
0
 40
0.0
  0
LTYPE
  5
26
330
2
100
AcDbSymbolTableRecord
100
AcDbLinetypeTableRecord
  2
Continuous
 70
0
  3

 72
65
 73
0
 40
0.0
  0
ENDTAB
  0
TABLE
  2
LAYER
  5
1
330
0
100
AcDbSymbolTable
 70
2
  0
LAYER
  5
27
330
1
100
AcDbSymbolTableRecord
100
AcDbLayerTableRecord
  2
0
 70
0
 62
7
  6
Continuous
370
-3
390
13
347
21
  0
LAYER
  5
28
330
1
100
AcDbSymbolTableRecord
100
AcDbLayerTableRecord
  2
Defpoints
 70
0
 62
7
  6
Continuous
290
0
370
-3
390
13
347
21
  0
ENDTAB
  0
TABLE
  2
STYLE
  5
5
330
0
100
AcDbSymbolTable
 70
1
  0
STYLE
  5
29
330
5
100
AcDbSymbolTableRecord
100
AcDbTextStyleTableRecord
  2
Standard
 70
0
 40
0.0
 41
1.0
 50
0.0
 71
0
 42
2.5
  3
txt
  4

  0
ENDTAB
  0
TABLE
  2
VIEW
  5
7
330
0
100
AcDbSymbolTable
 70
0
  0
ENDTAB
  0
TABLE
  2
UCS
  5
6
330
0
100
AcDbSymbolTable
 70
0
  0
ENDTAB
  0
TABLE
  2
APPID
  5
3
330
0
100
AcDbSymbolTable
 70
3
  0
APPID
  5
2A
330
3
100
AcDbSymbolTableRecord
100
AcDbRegAppTableRecord
  2
ACAD
 70
0
  0
APPID
  5
17A
330
3
100
AcDbSymbolTableRecord
100
AcDbRegAppTableRecord
  2
HATCHBACKGROUNDCOLOR
 70
0
  0
APPID
  5
17B
330
3
100
AcDbSymbolTableRecord
100
AcDbRegAppTableRecord
  2
EZDXF
 70
0
  0
ENDTAB
  0
TABLE
  2
DIMSTYLE
  5
4
330
0
100
AcDbSymbolTable
 70
1
100
AcDbDimStyleTable
  0
DIMSTYLE
105
2B
330
4
100
AcDbSymbolTableRecord
100
AcDbDimStyleTableRecord
  2
Standard
 70
0
 40
1.0
 41
2.5
 42
0.625
 43
3.75
 44
1.25
 45
0.0
 46
0.0
 47
0.0
 48
0.0
 49
2.5
140
2.5
141
2.5
142
0.0
143
0.03937007874
144
1.0
145
0.0
146
1.0
147
0.625
148
0.0
 69
0
 70
0
 71
0
 72
0
 73
0
 74
0
 75
0
 76
0
 77
1
 78
8
 79
3
170
0
171
3
172
1
173
0
174
0
175
0
176
0
177
0
178
0
179
2
271
2
272
2
273
2
274
3
275
0
276
0
277
2
278
44
279
0
280
0
281
0
282
0
283
0
284
8
285
0
286
0
288
0
289
3
290
0
371
-2
372
-2
  0
ENDTAB
  0
TABLE
  2
BLOCK_RECORD
  5
9
330
0
100
AcDbSymbolTable
 70
3
  0
BLOCK_RECORD
  5
17
330
9
100
AcDbSymbolTableRecord
100
AcDbBlockTableRecord
  2
*Model_Space
340
1A
 70
0
280
1
281
0
  0
BLOCK_RECORD
  5
1B
330
9
100
AcDbSymbolTableRecord
100
AcDbBlockTableRecord
  2
*Paper_Space
340
1E
 70
0
280
1
281
0
  0
BLOCK_RECORD
  5
2F
330
9
100
AcDbSymbolTableRecord
100
AcDbBlockTableRecord
  2
DI_EMENDA_LONG
340
0
 70
0
280
1
281
0
  0
ENDTAB
  0
ENDSEC
  0
SECTION
  2
BLOCKS
  0
BLOCK
  5
18
330
17
100
AcDbEntity
  8
0
100
AcDbBlockBegin
  2
*Model_Space
 70
0
 10
0.0
 20
0.0
 30
0.0
  3
*Model_Space
  1

  0
ENDBLK
  5
19
330
17
100
AcDbEntity
  8
0
100
AcDbBlockEnd
  0
BLOCK
  5
1C
330
1B
100
AcDbEntity
  8
0
100
AcDbBlockBegin
  2
*Paper_Space
 70
0
 10
0.0
 20
0.0
 30
0.0
  3
*Paper_Space
  1

  0
ENDBLK
  5
1D
330
1B
100
AcDbEntity
  8
0
100
AcDbBlockEnd
  0
BLOCK
  5
30
330
2F
100
AcDbEntity
  8
0
100
AcDbBlockBegin
  2
DI_EMENDA_LONG
 70
0
 10
0.0
 20
0.0
 30
0.0
  3
DI_EMENDA_LONG
  1

  0
CIRCLE
  5
32
330
2F
100
AcDbEntity
  8
0
  6
Continuous
 62
7
370
25
100
AcDbCircle
 10
30.0
 20
-21.999478458
 30
0.0
 40
6.34999999999997
  0
CIRCLE
  5
33
330
2F
100
AcDbEntity
  8
0
  6
Continuous
 62
7
370
25
100
AcDbCircle
 10
30.0
 20
-21.999478458
 30
0.0
 40
3.968750000000179
  0
SPLINE
  5
34
330
2F
100
AcDbEntity
  8
0
  6
Continuous
 62
7
370
25
100
AcDbSpline
 70
24
 71
3
 72
10
 73
6
 74
0
 42
1e-08
 43
1e-08
 40
0.0
 40
0.0
 40
0.0
 40
0.0
 40
0.4299704356253956
 40
0.870060203576572
 40
1.0
 40
1.0
 40
1.0
 40
1.0
 10
22.82753335976099
 20
-20.476633873755958
 30
0.0
 10
23.167160769975
 20
-20.099266314313983
 30
0.0
 10
23.85440870422201
 20
-19.335649869118825
 30
0.0
 10
24.69153876445398
 20
-18.405496064496912
 30
0.0
 10
25.170809902597966
 20
-17.872967257122475
 30
0.0
 10
25.280061067825955
 20
-17.751575860702957
 30
0.0
  0
SPLINE
  5
35
330
2F
100
AcDbEntity
  8
0
  6
Continuous
 62
7
370
25
100
AcDbSpline
 70
24
 71
3
 72
10
 73
6
 74
0
 42
1e-08
 43
1e-08
 40
0.0
 40
0.0
 40
0.0
 40
0.0
 40
0.2637144629425242
 40
0.6277042298441463
 40
1.0
 40
1.0
 40
1.0
 40
1.0
 10
22.82753335976099
 20
-20.476633873755958
 30
0.0
 10
22.923356470108956
 20
-20.77131829928804
 30
0.0
 10
23.151438657984954
 20
-21.47273853355102
 30
0.0
 10
23.529901363849945
 20
-22.63662336945566
 30
0.0
 10
23.816382508957986
 20
-23.51763768181784
 30
0.0
 10
23.961238971818034
 20
-23.96311417895241
 30
0.0
  0
SPLINE
  5
36
330
2F
100
AcDbEntity
  8
0
  6
Continuous
 62
7
370
25
100
AcDbSpline
 70
24
 71
3
 72
10
 73
6
 74
0
 42
1e-08
 43
1e-08
 40
0.0
 40
0.0
 40
0.0
 40
0.0
 40
0.3701669572286355
 40
0.7503638824944638
 40
0.9999999999999999
 40
0.9999999999999999
 40
0.9999999999999999
 40
0.9999999999999999
 10
28.681177903999014
 20
-28.21101677629227
 30
0.0
 10
28.225590328223916
 20
-28.11428728179123
 30
0.0
 10
27.302070669057912
 20
-27.91820733022305
 30
0.0
 10
26.10535191178792
 20
-27.66412226160836
 30
0.0
 10
25.381747321062903
 20
-27.51048790017861
 30
0.0
 10
25.094944583875986
 20
-27.44959448414886
 30
0.0
  0
SPLINE
  5
37
330
2F
100
AcDbEntity
  8
0
  6
Continuous
 62
7
370
25
100
AcDbSpline
 70
24
 71
3
 72
11
 73
7
 74
0
 42
1e-08
 43
1e-08
 40
0.0
 40
0.0
 40
0.0
 40
0.0
 40
0.1153793756467504
 40
0.5050242257266063
 40
0.9047550947299364
 40
1.0
 40
1.0
 40
1.0
 40
1.0
 10
23.961238971818034
 20
-23.96311417895241
 30
0.0
 10
24.00610125526191
 20
-24.10107897864
 30
0.0
 10
24.202466852088946
 20
-24.70496130812212
 30
0.0
 10
24.552218785546074
 20
-25.78055202120925
 30
0.0
 10
24.88154556029508
 20
-26.793329325936888
 30
0.0
 10
25.06050802397499
 20
-27.34369187010577
 30
0.0
 10
25.094944583875986
 20
-27.44959448414886
 30
0.0
  0
SPLINE
  5
38
330
2F
100
AcDbEntity
  8
0
  6
Continuous
 62
7
370
25
100
AcDbSpline
 70
24
 71
3
 72
10
 73
6
 74
0
 42
1e-08
 43
1e-08
 40
0.0
 40
0.0
 40
0.0
 40
0.0
 40
0.3701669572286487
 40
0.7503638824944502
 40
1.0
 40
1.0
 40
1.0
 40
1.0
 10
25.280061067825955
 20
-17.751575860702957
 30
0.0
 10
25.591625055245913
 20
-17.405390193684195
 30
0.0
 10
26.223195104060096
 20
-16.70363868373601
 30
0.0
 10
27.04159860683808
 20
-15.79429237306191
 30
0.0
 10
27.536452162092928
 20
-15.244449595914043
 30
0.0
 10
27.732588775892054
 20
-15.026517847649936
 30
0.0
  0
SPLINE
  5
39
330
2F
100
AcDbEntity
  8
0
  6
Continuous
 62
7
370
25
100
AcDbSpline
 70
24
 71
3
 72
10
 73
6
 74
0
 42
1e-08
 43
1e-08
 40
0.0
 40
0.0
 40
0.0
 40
0.0
 40
0.4299704356253834
 40
0.8700602035765119
 40
1.0
 40
1.0
 40
1.0
 40
1.0
 10
27.732588775890918
 20
-15.026517847649934
 30
0.0
 10
28.22921237403898
 20
-15.131960032995906
 30
0.0
 10
29.234147581450088
 20
-15.345325980155113
 30
0.0
 10
30.458249435795096
 20
-15.605224976275196
 30
0.0
 10
31.159068480299993
 20
-15.754021553522726
 30
0.0
 10
31.318822096015083
 20
-15.78794013979337
 30
0.0
  0
SPLINE
  5
3A
330
2F
100
AcDbEntity
  8
0
  6
Continuous
 62
7
370
25
100
AcDbSpline
 70
24
 71
3
 72
10
 73
6
 74
0
 42
1e-08
 43
1e-08
 40
0.0
 40
0.0
 40
0.0
 40
0.0
 40
0.3701669572286475
 40
0.7503638824944476
 40
1.0
 40
1.0
 40
1.0
 40
1.0
 10
34.719938932187006
 20
-26.24738105538269
 30
0.0
 10
34.40837494476705
 20
-26.593566722401448
 30
0.0
 10
33.77680489595309
 20
-27.29531823234964
 30
0.0
 10
32.95840139317511
 20
-28.20466454302373
 30
0.0
 10
32.46354783792003
 20
-28.754507320171598
 30
0.0
 10
32.267411224120906
 20
-28.97243906843571
 30
0.0
  0
SPLINE
  5
3B
330
2F
100
AcDbEntity
  8
0
  6
Continuous
 62
7
370
25
100
AcDbSpline
 70
24
 71
3
 72
10
 73
6
 74
0
 42
1e-08
 43
1e-08
 40
0.0
 40
0.0
 40
0.0
 40
0.0
 40
0.4299704356253837
 40
0.8700602035765123
 40
1.0
 40
1.0
 40
1.0
 40
1.0
 10
32.267411224120906
 20
-28.97243906843571
 30
0.0
 10
31.77078762597307
 20
-28.86699688308974
 30
0.0
 10
30.7658524185631
 20
-28.65363093593053
 30
0.0
 10
29.54175056421809
 20
-28.39373193981044
 30
0.0
 10
28.840931519712967
 20
-28.24493536256291
 30
0.0
 10
28.681177903998105
 20
-28.21101677629227
 30
0.0
  0
SPLINE
  5
3C
330
2F
100
AcDbEntity
  8
0
  6
Continuous
 62
7
370
25
100
AcDbSpline
 70
24
 71
3
 72
10
 73
6
 74
0
 42
1e-08
 43
1e-08
 40
0.0
 40
0.0
 40
0.0
 40
0.0
 40
0.3701669572286359
 40
0.7503638824944643
 40
1.0
 40
1.0
 40
1.0
 40
1.0
 10
31.318822096015083
 20
-15.78794013979337
 30
0.0
 10
31.774409671789044
 20
-15.884669634294413
 30
0.0
 10
32.69792933095505
 20
-16.08074958586259
 30
0.0
 10
33.89464808822595
 20
-16.33483465447727
 30
0.0
 10
34.61825267895006
 20
-16.48846901590703
 30
0.0
 10
34.905055416136975
 20
-16.549362431936796
 30
0.0
  0
SPLINE
  5
3D
330
2F
100
AcDbEntity
  8
0
  6
Continuous
 62
7
370
25
100
AcDbSpline
 70
24
 71
3
 72
10
 73
6
 74
0
 42
1e-08
 43
1e-08
 40
0.0
 40
0.0
 40
0.0
 40
0.0
 40
0.2637144629425252
 40
0.6277042298441468
 40
0.9999999999999999
 40
0.9999999999999999
 40
0.9999999999999999
 40
0.9999999999999999
 10
34.905055416136975
 20
-16.549362431936796
 30
0.0
 10
35.000878526486076
 20
-16.844046857468882
 30
0.0
 10
35.22896071436094
 20
-17.545467091731865
 30
0.0
 10
35.60742342022809
 20
-18.709351927636508
 30
0.0
 10
35.893904565335106
 20
-19.59036623999868
 30
0.0
 10
36.03876102819504
 20
-20.035842737133247
 30
0.0
  0
SPLINE
  5
3E
330
2F
100
AcDbEntity
  8
0
  6
Continuous
 62
7
370
25
100
AcDbSpline
 70
24
 71
3
 72
11
 73
7
 74
0
 42
1e-08
 43
1e-08
 40
0.0
 40
0.0
 40
0.0
 40
0.0
 40
0.1153793756467519
 40
0.5050242257266094
 40
0.9047550947299424
 40
0.9999999999999999
 40
0.9999999999999999
 40
0.9999999999999999
 40
0.9999999999999999
 10
36.03876102819504
 20
-20.035842737133247
 30
0.0
 10
36.08362331163903
 20
-20.173807536820842
 30
0.0
 10
36.279988908466066
 20
-20.77768986630297
 30
0.0
 10
36.629740841924104
 20
-21.85328057939011
 30
0.0
 10
36.959067616671064
 20
-22.86605788411772
 30
0.0
 10
37.13803008035211
 20
-23.4164204282866
 30
0.0
 10
37.17246664025197
 20
-23.52232304232968
 30
0.0
  0
SPLINE
  5
3F
330
2F
100
AcDbEntity
  8
0
  6
Continuous
 62
7
370
25
100
AcDbSpline
 70
24
 71
3
 72
10
 73
6
 74
0
 42
1e-08
 43
1e-08
 40
0.0
 40
0.0
 40
0.0
 40
0.0
 40
0.4299704356253951
 40
0.8700602035765709
 40
0.9999999999999999
 40
0.9999999999999999
 40
0.9999999999999999
 40
0.9999999999999999
 10
37.17246664025197
 20
-23.52232304232968
 30
0.0
 10
36.83283923003796
 20
-23.89969060177165
 30
0.0
 10
36.145591295791064
 20
-24.663307046966807
 30
0.0
 10
35.30846123555989
 20
-25.593460851588738
 30
0.0
 10
34.829190097414994
 20
-26.12598965896316
 30
0.0
 10
34.719938932187006
 20
-26.24738105538269
 30
0.0
  0
CIRCLE
  5
40
330
2F
100
AcDbEntity
  8
0
  6
Continuous
 62
7
370
25
100
AcDbCircle
 10
110.0
 20
-21.999478458
 30
0.0
 40
3.968750000000296
  0
CIRCLE
  5
41
330
2F
100
AcDbEntity
  8
0
  6
Continuous
 62
7
370
25
100
AcDbCircle
 10
110.0
 20
-21.999478458
 30
0.0
 40
6.350000000000066
  0
SPLINE
  5
42
330
2F
100
AcDbEntity
  8
0
  6
Continuous
 62
7
370
25
100
AcDbSpline
 70
24
 71
3
 72
10
 73
6
 74
0
 42
1e-08
 43
1e-08
 40
0.0
 40
0.0
 40
0.0
 40
0.0
 40
0.4299704356253956
 40
0.870060203576572
 40
1.0
 40
1.0
 40
1.0
 40
1.0
 10
102.82753335976099
 20
-20.476633873755958
 30
0.0
 10
103.167160769975
 20
-20.099266314313983
 30
0.0
 10
103.8544087042219
 20
-19.335649869118825
 30
0.0
 10
104.69153876445307
 20
-18.405496064496912
 30
0.0
 10
105.17080990259797
 20
-17.872967257122475
 30
0.0
 10
105.28006106782595
 20
-17.751575860702957
 30
0.0
  0
SPLINE
  5
43
330
2F
100
AcDbEntity
  8
0
  6
Continuous
 62
7
370
25
100
AcDbSpline
 70
24
 71
3
 72
10
 73
6
 74
0
 42
1e-08
 43
1e-08
 40
0.0
 40
0.0
 40
0.0
 40
0.0
 40
0.2637144629425242
 40
0.6277042298441463
 40
1.0
 40
1.0
 40
1.0
 40
1.0
 10
102.82753335976099
 20
-20.476633873755958
 30
0.0
 10
102.92335647010896
 20
-20.77131829928804
 30
0.0
 10
103.15143865798495
 20
-21.47273853355102
 30
0.0
 10
103.52990136385006
 20
-22.63662336945566
 30
0.0
 10
103.8163825089589
 20
-23.51763768181784
 30
0.0
 10
103.96123897181792
 20
-23.96311417895241
 30
0.0
  0
SPLINE
  5
44
330
2F
100
AcDbEntity
  8
0
  6
Continuous
 62
7
370
25
100
AcDbSpline
 70
24
 71
3
 72
10
 73
6
 74
0
 42
1e-08
 43
1e-08
 40
0.0
 40
0.0
 40
0.0
 40
0.0
 40
0.3701669572286355
 40
0.7503638824944638
 40
0.9999999999999999
 40
0.9999999999999999
 40
0.9999999999999999
 40
0.9999999999999999
 10
108.68117790399901
 20
-28.21101677629227
 30
0.0
 10
108.22559032822392
 20
-28.11428728179123
 30
0.0
 10
107.30207066905791
 20
-27.91820733022305
 30
0.0
 10
106.10535191178792
 20
-27.66412226160836
 30
0.0
 10
105.3817473210629
 20
-27.51048790017861
 30
0.0
 10
105.09494458387599
 20
-27.44959448414886
 30
0.0
  0
SPLINE
  5
45
330
2F
100
AcDbEntity
  8
0
  6
Continuous
 62
7
370
25
100
AcDbSpline
 70
24
 71
3
 72
11
 73
7
 74
0
 42
1e-08
 43
1e-08
 40
0.0
 40
0.0
 40
0.0
 40
0.0
 40
0.1153793756467504
 40
0.5050242257266063
 40
0.9047550947299364
 40
1.0
 40
1.0
 40
1.0
 40
1.0
 10
103.96123897181792
 20
-23.96311417895241
 30
0.0
 10
104.00610125526191
 20
-24.10107897864
 30
0.0
 10
104.20246685208895
 20
-24.70496130812212
 30
0.0
 10
104.55221878554607
 20
-25.78055202120925
 30
0.0
 10
104.88154556029508
 20
-26.793329325936888
 30
0.0
 10
105.06050802397499
 20
-27.34369187010577
 30
0.0
 10
105.09494458387599
 20
-27.44959448414886
 30
0.0
  0
SPLINE
  5
46
330
2F
100
AcDbEntity
  8
0
  6
Continuous
 62
7
370
25
100
AcDbSpline
 70
24
 71
3
 72
10
 73
6
 74
0
 42
1e-08
 43
1e-08
 40
0.0
 40
0.0
 40
0.0
 40
0.0
 40
0.3701669572286487
 40
0.7503638824944502
 40
1.0
 40
1.0
 40
1.0
 40
1.0
 10
105.28006106782595
 20
-17.751575860702957
 30
0.0
 10
105.59162505524591
 20
-17.405390193684195
 30
0.0
 10
106.2231951040601
 20
-16.70363868373601
 30
0.0
 10
107.04159860683808
 20
-15.79429237306191
 30
0.0
 10
107.53645216209293
 20
-15.244449595914043
 30
0.0
 10
107.73258877589205
 20
-15.026517847649936
 30
0.0
  0
SPLINE
  5
47
330
2F
100
AcDbEntity
  8
0
  6
Continuous
 62
7
370
25
100
AcDbSpline
 70
24
 71
3
 72
10
 73
6
 74
0
 42
1e-08
 43
1e-08
 40
0.0
 40
0.0
 40
0.0
 40
0.0
 40
0.4299704356253834
 40
0.8700602035765119
 40
1.0
 40
1.0
 40
1.0
 40
1.0
 10
107.73258877589205
 20
-15.026517847649934
 30
0.0
 10
108.22921237403898
 20
-15.131960032995906
 30
0.0
 10
109.23414758145009
 20
-15.345325980155113
 30
0.0
 10
110.4582494357951
 20
-15.605224976275196
 30
0.0
 10
111.1590684803009
 20
-15.754021553522726
 30
0.0
 10
111.31882209601508
 20
-15.78794013979337
 30
0.0
  0
SPLINE
  5
48
330
2F
100
AcDbEntity
  8
0
  6
Continuous
 62
7
370
25
100
AcDbSpline
 70
24
 71
3
 72
10
 73
6
 74
0
 42
1e-08
 43
1e-08
 40
0.0
 40
0.0
 40
0.0
 40
0.0
 40
0.3701669572286475
 40
0.7503638824944476
 40
1.0
 40
1.0
 40
1.0
 40
1.0
 10
114.71993893218792
 20
-26.24738105538269
 30
0.0
 10
114.40837494476705
 20
-26.593566722401448
 30
0.0
 10
113.77680489595309
 20
-27.29531823234964
 30
0.0
 10
112.95840139317511
 20
-28.20466454302373
 30
0.0
 10
112.46354783792003
 20
-28.754507320171598
 30
0.0
 10
112.26741122412204
 20
-28.97243906843571
 30
0.0
  0
SPLINE
  5
49
330
2F
100
AcDbEntity
  8
0
  6
Continuous
 62
7
370
25
100
AcDbSpline
 70
24
 71
3
 72
10
 73
6
 74
0
 42
1e-08
 43
1e-08
 40
0.0
 40
0.0
 40
0.0
 40
0.0
 40
0.4299704356253837
 40
0.8700602035765123
 40
1.0
 40
1.0
 40
1.0
 40
1.0
 10
112.26741122412204
 20
-28.97243906843571
 30
0.0
 10
111.77078762597398
 20
-28.86699688308974
 30
0.0
 10
110.7658524185631
 20
-28.65363093593053
 30
0.0
 10
109.541750564219
 20
-28.39373193981044
 30
0.0
 10
108.84093151971297
 20
-28.24493536256291
 30
0.0
 10
108.68117790399901
 20
-28.21101677629227
 30
0.0
  0
SPLINE
  5
4A
330
2F
100
AcDbEntity
  8
0
  6
Continuous
 62
7
370
25
100
AcDbSpline
 70
24
 71
3
 72
10
 73
6
 74
0
 42
1e-08
 43
1e-08
 40
0.0
 40
0.0
 40
0.0
 40
0.0
 40
0.2637144629425252
 40
0.6277042298441468
 40
0.9999999999999999
 40
0.9999999999999999
 40
0.9999999999999999
 40
0.9999999999999999
 10
114.90505541613697
 20
-16.549362431936796
 30
0.0
 10
115.00087852648608
 20
-16.844046857468882
 30
0.0
 10
115.22896071436207
 20
-17.545467091731865
 30
0.0
 10
115.60742342022809
 20
-18.709351927636508
 30
0.0
 10
115.8939045653351
 20
-19.59036623999868
 30
0.0
 10
116.03876102819504
 20
-20.035842737133247
 30
0.0
  0
SPLINE
  5
4B
330
2F
100
AcDbEntity
  8
0
  6
Continuous
 62
7
370
25
100
AcDbSpline
 70
24
 71
3
 72
10
 73
6
 74
0
 42
1e-08
 43
1e-08
 40
0.0
 40
0.0
 40
0.0
 40
0.0
 40
0.3701669572286359
 40
0.7503638824944643
 40
1.0
 40
1.0
 40
1.0
 40
1.0
 10
111.31882209601508
 20
-15.78794013979337
 30
0.0
 10
111.77440967178904
 20
-15.884669634294413
 30
0.0
 10
112.69792933095505
 20
-16.08074958586259
 30
0.0
 10
113.89464808822595
 20
-16.33483465447727
 30
0.0
 10
114.61825267895006
 20
-16.48846901590703
 30
0.0
 10
114.90505541613697
 20
-16.549362431936796
 30
0.0
  0
SPLINE
  5
4C
330
2F
100
AcDbEntity
  8
0
  6
Continuous
 62
7
370
25
100
AcDbSpline
 70
24
 71
3
 72
11
 73
7
 74
0
 42
1e-08
 43
1e-08
 40
0.0
 40
0.0
 40
0.0
 40
0.0
 40
0.1153793756467519
 40
0.5050242257266094
 40
0.9047550947299424
 40
0.9999999999999999
 40
0.9999999999999999
 40
0.9999999999999999
 40
0.9999999999999999
 10
116.03876102819504
 20
-20.035842737133247
 30
0.0
 10
116.08362331163903
 20
-20.173807536820842
 30
0.0
 10
116.27998890846607
 20
-20.77768986630297
 30
0.0
 10
116.6297408419241
 20
-21.85328057939011
 30
0.0
 10
116.95906761667106
 20
-22.86605788411772
 30
0.0
 10
117.13803008035211
 20
-23.4164204282866
 30
0.0
 10
117.17246664025197
 20
-23.52232304232968
 30
0.0
  0
SPLINE
  5
4D
330
2F
100
AcDbEntity
  8
0
  6
Continuous
 62
7
370
25
100
AcDbSpline
 70
24
 71
3
 72
10
 73
6
 74
0
 42
1e-08
 43
1e-08
 40
0.0
 40
0.0
 40
0.0
 40
0.0
 40
0.4299704356253951
 40
0.8700602035765709
 40
0.9999999999999999
 40
0.9999999999999999
 40
0.9999999999999999
 40
0.9999999999999999
 10
117.17246664025197
 20
-23.52232304232968
 30
0.0
 10
116.83283923003796
 20
-23.89969060177165
 30
0.0
 10
116.14559129579106
 20
-24.663307046966807
 30
0.0
 10
115.30846123556103
 20
-25.593460851588738
 30
0.0
 10
114.829190097415
 20
-26.12598965896316
 30
0.0
 10
114.719938932187
 20
-26.24738105538269
 30
0.0
  0
CIRCLE
  5
4E
330
2F
100
AcDbEntity
  8
0
  6
Continuous
 62
7
370
25
100
AcDbCircle
 10
70.0
 20
22.000521541999998
 30
0.0
 40
3.968750000000177
  0
CIRCLE
  5
4F
330
2F
100
AcDbEntity
  8
0
  6
Continuous
 62
7
370
25
100
AcDbCircle
 10
70.0
 20
22.000521541999998
 30
0.0
 40
6.350000000000066
  0
SPLINE
  5
50
330
2F
100
AcDbEntity
  8
0
  6
Continuous
 62
7
370
25
100
AcDbSpline
 70
24
 71
3
 72
10
 73
6
 74
0
 42
1e-08
 43
1e-08
 40
0.0
 40
0.0
 40
0.0
 40
0.0
 40
0.4299704356253961
 40
0.8700602035765713
 40
0.9999999999999999
 40
0.9999999999999999
 40
0.9999999999999999
 40
0.9999999999999999
 10
62.82753335976099
 20
23.523366126244053
 30
0.0
 10
63.167160769975
 20
23.900733685686017
 30
0.0
 10
63.854408704221896
 20
24.66435013088118
 30
0.0
 10
64.69153876445307
 20
25.594503935503088
 30
0.0
 10
65.17080990259797
 20
26.127032742877507
 30
0.0
 10
65.28006106782595
 20
26.24842413929704
 30
0.0
  0
SPLINE
  5
51
330
2F
100
AcDbEntity
  8
0
  6
Continuous
 62
7
370
25
100
AcDbSpline
 70
24
 71
3
 72
10
 73
6
 74
0
 42
1e-08
 43
1e-08
 40
0.0
 40
0.0
 40
0.0
 40
0.0
 40
0.2637144629425243
 40
0.6277042298441466
 40
0.9999999999999999
 40
0.9999999999999999
 40
0.9999999999999999
 40
0.9999999999999999
 10
62.82753335976099
 20
23.523366126244053
 30
0.0
 10
62.923356470108956
 20
23.228681700711963
 30
0.0
 10
63.151438657984954
 20
22.527261466448987
 30
0.0
 10
63.52990136385006
 20
21.363376630544334
 30
0.0
 10
63.816382508957986
 20
20.48236231818215
 30
0.0
 10
63.96123897181792
 20
20.03688582104759
 30
0.0
  0
SPLINE
  5
52
330
2F
100
AcDbEntity
  8
0
  6
Continuous
 62
7
370
25
100
AcDbSpline
 70
24
 71
3
 72
10
 73
6
 74
0
 42
1e-08
 43
1e-08
 40
0.0
 40
0.0
 40
0.0
 40
0.0
 40
0.3701669572286355
 40
0.7503638824944638
 40
0.9999999999999999
 40
0.9999999999999999
 40
0.9999999999999999
 40
0.9999999999999999
 10
68.68117790399901
 20
15.788983223707731
 30
0.0
 10
68.22559032822392
 20
15.88571271820878
 30
0.0
 10
67.30207066905791
 20
16.08179266977694
 30
0.0
 10
66.10535191178792
 20
16.33587773839163
 30
0.0
 10
65.3817473210629
 20
16.48951209982138
 30
0.0
 10
65.09494458387599
 20
16.55040551585114
 30
0.0
  0
SPLINE
  5
53
330
2F
100
AcDbEntity
  8
0
  6
Continuous
 62
7
370
25
100
AcDbSpline
 70
24
 71
3
 72
11
 73
7
 74
0
 42
1e-08
 43
1e-08
 40
0.0
 40
0.0
 40
0.0
 40
0.0
 40
0.1153793756467504
 40
0.5050242257266061
 40
0.9047550947299363
 40
1.0
 40
1.0
 40
1.0
 40
1.0
 10
63.96123897181792
 20
20.03688582104759
 30
0.0
 10
64.00610125526191
 20
19.89892102136
 30
0.0
 10
64.20246685208895
 20
19.29503869187788
 30
0.0
 10
64.55221878554698
 20
18.21944797879076
 30
0.0
 10
64.88154556029394
 20
17.2066706740631
 30
0.0
 10
65.06050802397499
 20
16.65630812989423
 30
0.0
 10
65.09494458387599
 20
16.55040551585114
 30
0.0
  0
SPLINE
  5
54
330
2F
100
AcDbEntity
  8
0
  6
Continuous
 62
7
370
25
100
AcDbSpline
 70
24
 71
3
 72
10
 73
6
 74
0
 42
1e-08
 43
1e-08
 40
0.0
 40
0.0
 40
0.0
 40
0.0
 40
0.3701669572286488
 40
0.750363882494451
 40
1.0
 40
1.0
 40
1.0
 40
1.0
 10
65.28006106782595
 20
26.24842413929704
 30
0.0
 10
65.59162505524591
 20
26.59460980631579
 30
0.0
 10
66.223195104061
 20
27.296361316263994
 30
0.0
 10
67.04159860683808
 20
28.205707626938104
 30
0.0
 10
67.53645216209293
 20
28.75555040408597
 30
0.0
 10
67.73258877589205
 20
28.97348215235007
 30
0.0
  0
SPLINE
  5
55
330
2F
100
AcDbEntity
  8
0
  6
Continuous
 62
7
370
25
100
AcDbSpline
 70
24
 71
3
 72
10
 73
6
 74
0
 42
1e-08
 43
1e-08
 40
0.0
 40
0.0
 40
0.0
 40
0.0
 40
0.4299704356253832
 40
0.8700602035765119
 40
1.0
 40
1.0
 40
1.0
 40
1.0
 10
67.73258877589205
 20
28.973482152350062
 30
0.0
 10
68.22921237403898
 20
28.868039967004083
 30
0.0
 10
69.23414758145009
 20
28.65467401984488
 30
0.0
 10
70.4582494357951
 20
28.39477502372483
 30
0.0
 10
71.1590684803
 20
28.245978446477263
 30
0.0
 10
71.31882209601508
 20
28.212059860206633
 30
0.0
  0
SPLINE
  5
56
330
2F
100
AcDbEntity
  8
0
  6
Continuous
 62
7
370
25
100
AcDbSpline
 70
24
 71
3
 72
10
 73
6
 74
0
 42
1e-08
 43
1e-08
 40
0.0
 40
0.0
 40
0.0
 40
0.0
 40
0.3701669572286475
 40
0.7503638824944476
 40
1.0
 40
1.0
 40
1.0
 40
1.0
 10
74.719938932187
 20
17.75261894461731
 30
0.0
 10
74.40837494476705
 20
17.40643327759856
 30
0.0
 10
73.77680489595309
 20
16.70468176765038
 30
0.0
 10
72.95840139317511
 20
15.795335456976261
 30
0.0
 10
72.46354783792003
 20
15.245492679828391
 30
0.0
 10
72.26741122412204
 20
15.027560931564292
 30
0.0
  0
SPLINE
  5
57
330
2F
100
AcDbEntity
  8
0
  6
Continuous
 62
7
370
25
100
AcDbSpline
 70
24
 71
3
 72
10
 73
6
 74
0
 42
1e-08
 43
1e-08
 40
0.0
 40
0.0
 40
0.0
 40
0.0
 40
0.4299704356253837
 40
0.8700602035765123
 40
1.0
 40
1.0
 40
1.0
 40
1.0
 10
72.26741122412204
 20
15.027560931564292
 30
0.0
 10
71.77078762597398
 20
15.13300311691026
 30
0.0
 10
70.7658524185631
 20
15.34636906406947
 30
0.0
 10
69.541750564219
 20
15.606268060189539
 30
0.0
 10
68.84093151971297
 20
15.75506463743709
 30
0.0
 10
68.6811779039981
 20
15.788983223707731
 30
0.0
  0
SPLINE
  5
58
330
2F
100
AcDbEntity
  8
0
  6
Continuous
 62
7
370
25
100
AcDbSpline
 70
24
 71
3
 72
10
 73
6
 74
0
 42
1e-08
 43
1e-08
 40
0.0
 40
0.0
 40
0.0
 40
0.0
 40
0.2637144629425259
 40
0.6277042298441468
 40
0.9999999999999999
 40
0.9999999999999999
 40
0.9999999999999999
 40
0.9999999999999999
 10
74.90505541613697
 20
27.450637568063197
 30
0.0
 10
75.00087852648608
 20
27.155953142531107
 30
0.0
 10
75.22896071436207
 20
26.454532908268153
 30
0.0
 10
75.60742342022695
 20
25.290648072363478
 30
0.0
 10
75.8939045653351
 20
24.409633760001324
 30
0.0
 10
76.03876102819504
 20
23.964157262866753
 30
0.0
  0
SPLINE
  5
59
330
2F
100
AcDbEntity
  8
0
  6
Continuous
 62
7
370
25
100
AcDbSpline
 70
24
 71
3
 72
10
 73
6
 74
0
 42
1e-08
 43
1e-08
 40
0.0
 40
0.0
 40
0.0
 40
0.0
 40
0.3701669572286359
 40
0.7503638824944645
 40
1.0
 40
1.0
 40
1.0
 40
1.0
 10
71.31882209601508
 20
28.212059860206633
 30
0.0
 10
71.77440967178904
 20
28.115330365705578
 30
0.0
 10
72.69792933095596
 20
27.919250414137412
 30
0.0
 10
73.89464808822504
 20
27.665165345522713
 30
0.0
 10
74.61825267895097
 20
27.511530984092968
 30
0.0
 10
74.90505541613697
 20
27.450637568063197
 30
0.0
  0
SPLINE
  5
5A
330
2F
100
AcDbEntity
  8
0
  6
Continuous
 62
7
370
25
100
AcDbSpline
 70
24
 71
3
 72
11
 73
7
 74
0
 42
1e-08
 43
1e-08
 40
0.0
 40
0.0
 40
0.0
 40
0.0
 40
0.1153793756467518
 40
0.5050242257266101
 40
0.9047550947299424
 40
0.9999999999999999
 40
0.9999999999999999
 40
0.9999999999999999
 40
0.9999999999999999
 10
76.03876102819504
 20
23.96415726286676
 30
0.0
 10
76.08362331163903
 20
23.826192463179158
 30
0.0
 10
76.27998890846607
 20
23.222310133697032
 30
0.0
 10
76.62974084192297
 20
22.1467194206099
 30
0.0
 10
76.95906761667197
 20
21.13394211588226
 30
0.0
 10
77.13803008035211
 20
20.5835795717134
 30
0.0
 10
77.17246664025197
 20
20.47767695767031
 30
0.0
  0
SPLINE
  5
5B
330
2F
100
AcDbEntity
  8
0
  6
Continuous
 62
7
370
25
100
AcDbSpline
 70
24
 71
3
 72
10
 73
6
 74
0
 42
1e-08
 43
1e-08
 40
0.0
 40
0.0
 40
0.0
 40
0.0
 40
0.4299704356253951
 40
0.8700602035765709
 40
0.9999999999999999
 40
0.9999999999999999
 40
0.9999999999999999
 40
0.9999999999999999
 10
77.17246664025197
 20
20.47767695767031
 30
0.0
 10
76.83283923003796
 20
20.10030939822834
 30
0.0
 10
76.14559129579106
 20
19.33669295303319
 30
0.0
 10
75.30846123556103
 20
18.40653914841128
 30
0.0
 10
74.829190097415
 20
17.87401034103684
 30
0.0
 10
74.719938932187
 20
17.75261894461731
 30
0.0
  0
CIRCLE
  5
5C
330
2F
100
AcDbEntity
  8
0
  6
Continuous
 62
7
370
25
100
AcDbCircle
 10
30.0
 20
22.000521541999998
 30
0.0
 40
3.968750000000177
  0
CIRCLE
  5
5D
330
2F
100
AcDbEntity
  8
0
  6
Continuous
 62
7
370
25
100
AcDbCircle
 10
30.0
 20
22.000521541999998
 30
0.0
 40
6.349999999999972
  0
SPLINE
  5
5E
330
2F
100
AcDbEntity
  8
0
  6
Continuous
 62
7
370
25
100
AcDbSpline
 70
24
 71
3
 72
10
 73
6
 74
0
 42
1e-08
 43
1e-08
 40
0.0
 40
0.0
 40
0.0
 40
0.0
 40
0.4299704356253961
 40
0.8700602035765713
 40
0.9999999999999999
 40
0.9999999999999999
 40
0.9999999999999999
 40
0.9999999999999999
 10
22.82753335976099
 20
23.523366126244053
 30
0.0
 10
23.167160769975
 20
23.900733685686017
 30
0.0
 10
23.85440870422201
 20
24.66435013088118
 30
0.0
 10
24.69153876445307
 20
25.594503935503088
 30
0.0
 10
25.170809902597966
 20
26.127032742877507
 30
0.0
 10
25.280061067825955
 20
26.24842413929704
 30
0.0
  0
SPLINE
  5
5F
330
2F
100
AcDbEntity
  8
0
  6
Continuous
 62
7
370
25
100
AcDbSpline
 70
24
 71
3
 72
10
 73
6
 74
0
 42
1e-08
 43
1e-08
 40
0.0
 40
0.0
 40
0.0
 40
0.0
 40
0.2637144629425243
 40
0.6277042298441466
 40
0.9999999999999999
 40
0.9999999999999999
 40
0.9999999999999999
 40
0.9999999999999999
 10
22.82753335976099
 20
23.523366126244053
 30
0.0
 10
22.923356470108956
 20
23.228681700711963
 30
0.0
 10
23.151438657984954
 20
22.527261466448987
 30
0.0
 10
23.529901363849945
 20
21.363376630544334
 30
0.0
 10
23.816382508957986
 20
20.48236231818215
 30
0.0
 10
23.961238971818034
 20
20.03688582104759
 30
0.0
  0
SPLINE
  5
60
330
2F
100
AcDbEntity
  8
0
  6
Continuous
 62
7
370
25
100
AcDbSpline
 70
24
 71
3
 72
10
 73
6
 74
0
 42
1e-08
 43
1e-08
 40
0.0
 40
0.0
 40
0.0
 40
0.0
 40
0.3701669572286355
 40
0.7503638824944638
 40
0.9999999999999999
 40
0.9999999999999999
 40
0.9999999999999999
 40
0.9999999999999999
 10
28.681177903999014
 20
15.788983223707731
 30
0.0
 10
28.225590328223916
 20
15.88571271820878
 30
0.0
 10
27.302070669057912
 20
16.08179266977694
 30
0.0
 10
26.10535191178792
 20
16.33587773839163
 30
0.0
 10
25.381747321062903
 20
16.48951209982138
 30
0.0
 10
25.094944583875986
 20
16.55040551585114
 30
0.0
  0
SPLINE
  5
61
330
2F
100
AcDbEntity
  8
0
  6
Continuous
 62
7
370
25
100
AcDbSpline
 70
24
 71
3
 72
11
 73
7
 74
0
 42
1e-08
 43
1e-08
 40
0.0
 40
0.0
 40
0.0
 40
0.0
 40
0.1153793756467504
 40
0.5050242257266061
 40
0.9047550947299363
 40
1.0
 40
1.0
 40
1.0
 40
1.0
 10
23.961238971818034
 20
20.03688582104759
 30
0.0
 10
24.00610125526191
 20
19.89892102136
 30
0.0
 10
24.202466852088946
 20
19.29503869187788
 30
0.0
 10
24.552218785546984
 20
18.21944797879076
 30
0.0
 10
24.88154556029508
 20
17.2066706740631
 30
0.0
 10
25.06050802397499
 20
16.65630812989423
 30
0.0
 10
25.094944583875986
 20
16.55040551585114
 30
0.0
  0
SPLINE
  5
62
330
2F
100
AcDbEntity
  8
0
  6
Continuous
 62
7
370
25
100
AcDbSpline
 70
24
 71
3
 72
10
 73
6
 74
0
 42
1e-08
 43
1e-08
 40
0.0
 40
0.0
 40
0.0
 40
0.0
 40
0.3701669572286488
 40
0.750363882494451
 40
1.0
 40
1.0
 40
1.0
 40
1.0
 10
25.280061067825955
 20
26.24842413929704
 30
0.0
 10
25.591625055245913
 20
26.59460980631579
 30
0.0
 10
26.223195104061006
 20
27.296361316263994
 30
0.0
 10
27.04159860683808
 20
28.205707626938104
 30
0.0
 10
27.536452162092928
 20
28.75555040408597
 30
0.0
 10
27.732588775892054
 20
28.97348215235007
 30
0.0
  0
SPLINE
  5
63
330
2F
100
AcDbEntity
  8
0
  6
Continuous
 62
7
370
25
100
AcDbSpline
 70
24
 71
3
 72
10
 73
6
 74
0
 42
1e-08
 43
1e-08
 40
0.0
 40
0.0
 40
0.0
 40
0.0
 40
0.4299704356253832
 40
0.8700602035765119
 40
1.0
 40
1.0
 40
1.0
 40
1.0
 10
27.732588775890918
 20
28.973482152350062
 30
0.0
 10
28.22921237403898
 20
28.868039967004083
 30
0.0
 10
29.234147581450088
 20
28.65467401984488
 30
0.0
 10
30.458249435795096
 20
28.39477502372483
 30
0.0
 10
31.159068480299993
 20
28.245978446477263
 30
0.0
 10
31.318822096015083
 20
28.212059860206633
 30
0.0
  0
SPLINE
  5
64
330
2F
100
AcDbEntity
  8
0
  6
Continuous
 62
7
370
25
100
AcDbSpline
 70
24
 71
3
 72
10
 73
6
 74
0
 42
1e-08
 43
1e-08
 40
0.0
 40
0.0
 40
0.0
 40
0.0
 40
0.3701669572286475
 40
0.7503638824944476
 40
1.0
 40
1.0
 40
1.0
 40
1.0
 10
34.719938932187006
 20
17.75261894461731
 30
0.0
 10
34.40837494476705
 20
17.40643327759856
 30
0.0
 10
33.77680489595309
 20
16.70468176765038
 30
0.0
 10
32.95840139317511
 20
15.795335456976261
 30
0.0
 10
32.46354783792003
 20
15.245492679828391
 30
0.0
 10
32.267411224120906
 20
15.027560931564292
 30
0.0
  0
SPLINE
  5
65
330
2F
100
AcDbEntity
  8
0
  6
Continuous
 62
7
370
25
100
AcDbSpline
 70
24
 71
3
 72
10
 73
6
 74
0
 42
1e-08
 43
1e-08
 40
0.0
 40
0.0
 40
0.0
 40
0.0
 40
0.4299704356253837
 40
0.8700602035765123
 40
1.0
 40
1.0
 40
1.0
 40
1.0
 10
32.267411224120906
 20
15.027560931564292
 30
0.0
 10
31.77078762597307
 20
15.13300311691026
 30
0.0
 10
30.7658524185631
 20
15.34636906406947
 30
0.0
 10
29.54175056421809
 20
15.606268060189539
 30
0.0
 10
28.840931519712967
 20
15.75506463743709
 30
0.0
 10
28.681177903998105
 20
15.788983223707731
 30
0.0
  0
SPLINE
  5
66
330
2F
100
AcDbEntity
  8
0
  6
Continuous
 62
7
370
25
100
AcDbSpline
 70
24
 71
3
 72
10
 73
6
 74
0
 42
1e-08
 43
1e-08
 40
0.0
 40
0.0
 40
0.0
 40
0.0
 40
0.2637144629425259
 40
0.6277042298441468
 40
0.9999999999999999
 40
0.9999999999999999
 40
0.9999999999999999
 40
0.9999999999999999
 10
34.905055416136975
 20
27.450637568063197
 30
0.0
 10
35.00087852648494
 20
27.155953142531107
 30
0.0
 10
35.22896071436094
 20
26.454532908268153
 30
0.0
 10
35.60742342022695
 20
25.290648072363478
 30
0.0
 10
35.893904565335106
 20
24.409633760001324
 30
0.0
 10
36.03876102819504
 20
23.964157262866753
 30
0.0
  0
SPLINE
  5
67
330
2F
100
AcDbEntity
  8
0
  6
Continuous
 62
7
370
25
100
AcDbSpline
 70
24
 71
3
 72
10
 73
6
 74
0
 42
1e-08
 43
1e-08
 40
0.0
 40
0.0
 40
0.0
 40
0.0
 40
0.3701669572286359
 40
0.7503638824944645
 40
1.0
 40
1.0
 40
1.0
 40
1.0
 10
31.318822096015083
 20
28.212059860206633
 30
0.0
 10
31.774409671789044
 20
28.115330365705578
 30
0.0
 10
32.69792933095505
 20
27.919250414137412
 30
0.0
 10
33.89464808822504
 20
27.665165345522713
 30
0.0
 10
34.61825267895097
 20
27.511530984092968
 30
0.0
 10
34.905055416136975
 20
27.450637568063197
 30
0.0
  0
SPLINE
  5
68
330
2F
100
AcDbEntity
  8
0
  6
Continuous
 62
7
370
25
100
AcDbSpline
 70
24
 71
3
 72
11
 73
7
 74
0
 42
1e-08
 43
1e-08
 40
0.0
 40
0.0
 40
0.0
 40
0.0
 40
0.1153793756467518
 40
0.5050242257266101
 40
0.9047550947299424
 40
0.9999999999999999
 40
0.9999999999999999
 40
0.9999999999999999
 40
0.9999999999999999
 10
36.03876102819504
 20
23.96415726286676
 30
0.0
 10
36.08362331163903
 20
23.826192463179158
 30
0.0
 10
36.279988908466066
 20
23.222310133697032
 30
0.0
 10
36.62974084192297
 20
22.1467194206099
 30
0.0
 10
36.95906761667197
 20
21.13394211588226
 30
0.0
 10
37.13803008035211
 20
20.5835795717134
 30
0.0
 10
37.17246664025197
 20
20.47767695767031
 30
0.0
  0
SPLINE
  5
69
330
2F
100
AcDbEntity
  8
0
  6
Continuous
 62
7
370
25
100
AcDbSpline
 70
24
 71
3
 72
10
 73
6
 74
0
 42
1e-08
 43
1e-08
 40
0.0
 40
0.0
 40
0.0
 40
0.0
 40
0.4299704356253951
 40
0.8700602035765709
 40
0.9999999999999999
 40
0.9999999999999999
 40
0.9999999999999999
 40
0.9999999999999999
 10
37.17246664025197
 20
20.47767695767031
 30
0.0
 10
36.83283923003796
 20
20.10030939822834
 30
0.0
 10
36.145591295791064
 20
19.33669295303319
 30
0.0
 10
35.30846123555989
 20
18.40653914841128
 30
0.0
 10
34.829190097414994
 20
17.87401034103684
 30
0.0
 10
34.719938932187006
 20
17.75261894461731
 30
0.0
  0
CIRCLE
  5
6A
330
2F
100
AcDbEntity
  8
0
  6
Continuous
 62
7
370
25
100
AcDbCircle
 10
-110.0
 20
22.000521541999998
 30
0.0
 40
3.968749999999957
  0
CIRCLE
  5
6B
330
2F
100
AcDbEntity
  8
0
  6
Continuous
 62
7
370
25
100
AcDbCircle
 10
-110.0
 20
22.000521541999998
 30
0.0
 40
6.349999999999755
  0
SPLINE
  5
6C
330
2F
100
AcDbEntity
  8
0
  6
Continuous
 62
7
370
25
100
AcDbSpline
 70
24
 71
3
 72
10
 73
6
 74
0
 42
1e-08
 43
1e-08
 40
0.0
 40
0.0
 40
0.0
 40
0.0
 40
0.4299704356254065
 40
0.8700602035765358
 40
1.0
 40
1.0
 40
1.0
 40
1.0
 10
-117.17246664023901
 20
23.52336612624394
 30
0.0
 10
-116.83283923002512
 20
23.900733685685868
 30
0.0
 10
-116.14559129577754
 20
24.664350130880923
 30
0.0
 10
-115.30846123554704
 20
25.594503935503187
 30
0.0
 10
-114.82919009740147
 20
26.12703274287743
 30
0.0
 10
-114.71993893217359
 20
26.24842413929694
 30
0.0
  0
SPLINE
  5
6D
330
2F
100
AcDbEntity
  8
0
  6
Continuous
 62
7
370
25
100
AcDbSpline
 70
24
 71
3
 72
10
 73
6
 74
0
 42
1e-08
 43
1e-08
 40
0.0
 40
0.0
 40
0.0
 40
0.0
 40
0.2637144629425243
 40
0.6277042298441466
 40
0.9999999999999999
 40
0.9999999999999999
 40
0.9999999999999999
 40
0.9999999999999999
 10
-117.17246664023901
 20
23.52336612624394
 30
0.0
 10
-117.07664352989082
 20
23.228681700711864
 30
0.0
 10
-116.84856134201505
 20
22.52726146644888
 30
0.0
 10
-116.47009863614949
 20
21.363376630544213
 30
0.0
 10
-116.18361749104145
 20
20.48236231818205
 30
0.0
 10
-116.03876102818151
 20
20.03688582104749
 30
0.0
  0
SPLINE
  5
6E
330
2F
100
AcDbEntity
  8
0
  6
Continuous
 62
7
370
25
100
AcDbSpline
 70
24
 71
3
 72
10
 73
6
 74
0
 42
1e-08
 43
1e-08
 40
0.0
 40
0.0
 40
0.0
 40
0.0
 40
0.3701669572286534
 40
0.7503638824944711
 40
0.9999999999999999
 40
0.9999999999999999
 40
0.9999999999999999
 40
0.9999999999999999
 10
-111.3188220960011
 20
15.788983223707621
 30
0.0
 10
-111.77440967177574
 20
15.885712718208662
 30
0.0
 10
-112.69792933094186
 20
16.08179266977682
 30
0.0
 10
-113.89464808821197
 20
16.33587773839153
 30
0.0
 10
-114.61825267893698
 20
16.48951209982128
 30
0.0
 10
-114.9050554161239
 20
16.55040551585104
 30
0.0
  0
SPLINE
  5
6F
330
2F
100
AcDbEntity
  8
0
  6
Continuous
 62
7
370
25
100
AcDbSpline
 70
24
 71
3
 72
11
 73
7
 74
0
 42
1e-08
 43
1e-08
 40
0.0
 40
0.0
 40
0.0
 40
0.0
 40
0.1153793756467504
 40
0.5050242257266061
 40
0.9047550947299277
 40
0.9999999999999999
 40
0.9999999999999999
 40
0.9999999999999999
 40
0.9999999999999999
 10
-116.03876102818151
 20
20.03688582104749
 30
0.0
 10
-115.99389874473798
 20
19.8989210213599
 30
0.0
 10
-115.79753314791049
 20
19.29503869187778
 30
0.0
 10
-115.44778121445358
 20
18.21944797879068
 30
0.0
 10
-115.1184544397048
 20
17.206670674062952
 30
0.0
 10
-114.93949197602467
 20
16.65630812989412
 30
0.0
 10
-114.90505541612401
 20
16.55040551585104
 30
0.0
  0
SPLINE
  5
70
330
2F
100
AcDbEntity
  8
0
  6
Continuous
 62
7
370
25
100
AcDbSpline
 70
24
 71
3
 72
10
 73
6
 74
0
 42
1e-08
 43
1e-08
 40
0.0
 40
0.0
 40
0.0
 40
0.0
 40
0.3701669572286363
 40
0.7503638824944635
 40
1.0
 40
1.0
 40
1.0
 40
1.0
 10
-114.71993893217359
 20
26.24842413929694
 30
0.0
 10
-114.40837494475318
 20
26.594609806315713
 30
0.0
 10
-113.77680489593945
 20
27.29636131626395
 30
0.0
 10
-112.9584013931617
 20
28.205707626937897
 30
0.0
 10
-112.46354783790673
 20
28.75555040408585
 30
0.0
 10
-112.26741122410806
 20
28.973482152349963
 30
0.0
  0
SPLINE
  5
71
330
2F
100
AcDbEntity
  8
0
  6
Continuous
 62
7
370
25
100
AcDbSpline
 70
24
 71
3
 72
10
 73
6
 74
0
 42
1e-08
 43
1e-08
 40
0.0
 40
0.0
 40
0.0
 40
0.0
 40
0.4299704356253956
 40
0.8700602035765371
 40
1.0
 40
1.0
 40
1.0
 40
1.0
 10
-112.26741122410806
 20
28.973482152349963
 30
0.0
 10
-111.77078762596
 20
28.86803996700399
 30
0.0
 10
-110.76585241854968
 20
28.654674019844787
 30
0.0
 10
-109.54175056420559
 20
28.3947750237247
 30
0.0
 10
-108.84093151969921
 20
28.245978446477178
 30
0.0
 10
-108.68117790398514
 20
28.212059860206534
 30
0.0
  0
SPLINE
  5
72
330
2F
100
AcDbEntity
  8
0
  6
Continuous
 62
7
370
25
100
AcDbSpline
 70
24
 71
3
 72
10
 73
6
 74
0
 42
1e-08
 43
1e-08
 40
0.0
 40
0.0
 40
0.0
 40
0.0
 40
0.3701669572286349
 40
0.7503638824944613
 40
1.0
 40
1.0
 40
1.0
 40
1.0
 10
-105.28006106781254
 20
17.75261894461721
 30
0.0
 10
-105.59162505523295
 20
17.406433277598442
 30
0.0
 10
-106.22319510404714
 20
16.70468176765019
 30
0.0
 10
-107.04159860682421
 20
15.79533545697624
 30
0.0
 10
-107.53645216207951
 20
15.245492679828299
 30
0.0
 10
-107.73258877587807
 20
15.027560931564182
 30
0.0
  0
SPLINE
  5
73
330
2F
100
AcDbEntity
  8
0
  6
Continuous
 62
7
370
25
100
AcDbSpline
 70
24
 71
3
 72
10
 73
6
 74
0
 42
1e-08
 43
1e-08
 40
0.0
 40
0.0
 40
0.0
 40
0.0
 40
0.4299704356253962
 40
0.8700602035765375
 40
1.0
 40
1.0
 40
1.0
 40
1.0
 10
-107.73258877587796
 20
15.027560931564189
 30
0.0
 10
-108.22921237402568
 20
15.13300311691016
 30
0.0
 10
-109.23414758143588
 20
15.346369064069389
 30
0.0
 10
-110.45824943578123
 20
15.6062680601894
 30
0.0
 10
-111.15906848028703
 20
15.75506463743698
 30
0.0
 10
-111.3188220960011
 20
15.788983223707621
 30
0.0
  0
SPLINE
  5
74
330
2F
100
AcDbEntity
  8
0
  6
Continuous
 62
7
370
25
100
AcDbSpline
 70
24
 71
3
 72
10
 73
6
 74
0
 42
1e-08
 43
1e-08
 40
0.0
 40
0.0
 40
0.0
 40
0.0
 40
0.263714462942526
 40
0.6277042298441557
 40
0.9999999999999999
 40
0.9999999999999999
 40
0.9999999999999999
 40
0.9999999999999999
 10
-105.09494458386212
 20
27.450637568063097
 30
0.0
 10
-104.99912147351392
 20
27.155953142531008
 30
0.0
 10
-104.77103928563827
 20
26.45453290826801
 30
0.0
 10
-104.39257657977214
 20
25.290648072363428
 30
0.0
 10
-104.10609543466444
 20
24.409633760001217
 30
0.0
 10
-103.96123897180462
 20
23.964157262866653
 30
0.0
  0
SPLINE
  5
75
330
2F
100
AcDbEntity
  8
0
  6
Continuous
 62
7
370
25
100
AcDbSpline
 70
24
 71
3
 72
10
 73
6
 74
0
 42
1e-08
 43
1e-08
 40
0.0
 40
0.0
 40
0.0
 40
0.0
 40
0.3701669572286539
 40
0.7503638824944716
 40
1.0
 40
1.0
 40
1.0
 40
1.0
 10
-108.68117790398514
 20
28.212059860206534
 30
0.0
 10
-108.2255903282105
 20
28.115330365705493
 30
0.0
 10
-107.30207066904416
 20
27.91925041413732
 30
0.0
 10
-106.10535191177405
 20
27.66516534552265
 30
0.0
 10
-105.38174732104903
 20
27.511530984092868
 30
0.0
 10
-105.094944583862
 20
27.450637568063097
 30
0.0
  0
SPLINE
  5
76
330
2F
100
AcDbEntity
  8
0
  6
Continuous
 62
7
370
25
100
AcDbSpline
 70
24
 71
3
 72
11
 73
7
 74
0
 42
1e-08
 43
1e-08
 40
0.0
 40
0.0
 40
0.0
 40
0.0
 40
0.1153793756467518
 40
0.5050242257266191
 40
0.9047550947299341
 40
1.0
 40
1.0
 40
1.0
 40
1.0
 10
-103.9612389718045
 20
23.964157262866653
 30
0.0
 10
-103.91637668836097
 20
23.82619246317906
 30
0.0
 10
-103.72001109153393
 20
23.222310133696897
 30
0.0
 10
-103.37025915807612
 20
22.146719420609887
 30
0.0
 10
-103.04093238332757
 20
21.13394211588211
 30
0.0
 10
-102.86196991964778
 20
20.58357957171329
 30
0.0
 10
-102.82753335974712
 20
20.47767695767021
 30
0.0
  0
SPLINE
  5
77
330
2F
100
AcDbEntity
  8
0
  6
Continuous
 62
7
370
25
100
AcDbSpline
 70
24
 71
3
 72
10
 73
6
 74
0
 42
1e-08
 43
1e-08
 40
0.0
 40
0.0
 40
0.0
 40
0.0
 40
0.4299704356254055
 40
0.870060203576534
 40
1.0
 40
1.0
 40
1.0
 40
1.0
 10
-102.82753335974712
 20
20.47767695767021
 30
0.0
 10
-103.16716076996124
 20
20.10030939822827
 30
0.0
 10
-103.85440870420894
 20
19.33669295303322
 30
0.0
 10
-104.69153876443852
 20
18.40653914841098
 30
0.0
 10
-105.17080990258478
 20
17.87401034103672
 30
0.0
 10
-105.28006106781265
 20
17.75261894461721
 30
0.0
  0
CIRCLE
  5
78
330
2F
100
AcDbEntity
  8
0
  6
Continuous
 62
7
370
25
100
AcDbCircle
 10
-30.0
 20
22.000521541999998
 30
0.0
 40
3.968749999999957
  0
CIRCLE
  5
79
330
2F
100
AcDbEntity
  8
0
  6
Continuous
 62
7
370
25
100
AcDbCircle
 10
-30.0
 20
22.000521541999998
 30
0.0
 40
6.350000000000024
  0
SPLINE
  5
7A
330
2F
100
AcDbEntity
  8
0
  6
Continuous
 62
7
370
25
100
AcDbSpline
 70
24
 71
3
 72
10
 73
6
 74
0
 42
1e-08
 43
1e-08
 40
0.0
 40
0.0
 40
0.0
 40
0.0
 40
0.4299704356254065
 40
0.8700602035765358
 40
1.0
 40
1.0
 40
1.0
 40
1.0
 10
-37.17246664023912
 20
23.52336612624394
 30
0.0
 10
-36.832839230025115
 20
23.900733685685868
 30
0.0
 10
-36.14559129577765
 20
24.664350130880923
 30
0.0
 10
-35.308461235547156
 20
25.594503935503187
 30
0.0
 10
-34.82919009740135
 20
26.12703274287743
 30
0.0
 10
-34.71993893217359
 20
26.24842413929694
 30
0.0
  0
SPLINE
  5
7B
330
2F
100
AcDbEntity
  8
0
  6
Continuous
 62
7
370
25
100
AcDbSpline
 70
24
 71
3
 72
10
 73
6
 74
0
 42
1e-08
 43
1e-08
 40
0.0
 40
0.0
 40
0.0
 40
0.0
 40
0.2637144629425243
 40
0.6277042298441466
 40
0.9999999999999999
 40
0.9999999999999999
 40
0.9999999999999999
 40
0.9999999999999999
 10
-37.17246664023912
 20
23.52336612624394
 30
0.0
 10
-37.07664352989093
 20
23.228681700711864
 30
0.0
 10
-36.848561342015046
 20
22.52726146644888
 30
0.0
 10
-36.470098636149714
 20
21.363376630544213
 30
0.0
 10
-36.183617491041446
 20
20.48236231818205
 30
0.0
 10
-36.038761028181625
 20
20.03688582104749
 30
0.0
  0
SPLINE
  5
7C
330
2F
100
AcDbEntity
  8
0
  6
Continuous
 62
7
370
25
100
AcDbSpline
 70
24
 71
3
 72
10
 73
6
 74
0
 42
1e-08
 43
1e-08
 40
0.0
 40
0.0
 40
0.0
 40
0.0
 40
0.3701669572286534
 40
0.7503638824944711
 40
0.9999999999999999
 40
0.9999999999999999
 40
0.9999999999999999
 40
0.9999999999999999
 10
-31.3188220960011
 20
15.788983223707621
 30
0.0
 10
-31.774409671775857
 20
15.885712718208662
 30
0.0
 10
-32.69792933094209
 20
16.08179266977682
 30
0.0
 10
-33.894648088211966
 20
16.33587773839153
 30
0.0
 10
-34.61825267893687
 20
16.48951209982128
 30
0.0
 10
-34.905055416124014
 20
16.55040551585104
 30
0.0
  0
SPLINE
  5
7D
330
2F
100
AcDbEntity
  8
0
  6
Continuous
 62
7
370
25
100
AcDbSpline
 70
24
 71
3
 72
11
 73
7
 74
0
 42
1e-08
 43
1e-08
 40
0.0
 40
0.0
 40
0.0
 40
0.0
 40
0.1153793756467504
 40
0.5050242257266061
 40
0.9047550947299277
 40
0.9999999999999999
 40
0.9999999999999999
 40
0.9999999999999999
 40
0.9999999999999999
 10
-36.038761028181625
 20
20.03688582104749
 30
0.0
 10
-35.993898744737976
 20
19.8989210213599
 30
0.0
 10
-35.7975331479106
 20
19.29503869187778
 30
0.0
 10
-35.44778121445313
 20
18.21944797879068
 30
0.0
 10
-35.11845443970503
 20
17.206670674062952
 30
0.0
 10
-34.93949197602467
 20
16.65630812989412
 30
0.0
 10
-34.90505541612413
 20
16.55040551585104
 30
0.0
  0
SPLINE
  5
7E
330
2F
100
AcDbEntity
  8
0
  6
Continuous
 62
7
370
25
100
AcDbSpline
 70
24
 71
3
 72
10
 73
6
 74
0
 42
1e-08
 43
1e-08
 40
0.0
 40
0.0
 40
0.0
 40
0.0
 40
0.3701669572286363
 40
0.7503638824944635
 40
1.0
 40
1.0
 40
1.0
 40
1.0
 10
-34.71993893217359
 20
26.24842413929694
 30
0.0
 10
-34.408374944753405
 20
26.594609806315713
 30
0.0
 10
-33.77680489593945
 20
27.29636131626395
 30
0.0
 10
-32.95840139316192
 20
28.205707626937897
 30
0.0
 10
-32.46354783790673
 20
28.75555040408585
 30
0.0
 10
-32.26741122410817
 20
28.973482152349963
 30
0.0
  0
SPLINE
  5
7F
330
2F
100
AcDbEntity
  8
0
  6
Continuous
 62
7
370
25
100
AcDbSpline
 70
24
 71
3
 72
10
 73
6
 74
0
 42
1e-08
 43
1e-08
 40
0.0
 40
0.0
 40
0.0
 40
0.0
 40
0.4299704356253956
 40
0.8700602035765371
 40
1.0
 40
1.0
 40
1.0
 40
1.0
 10
-32.26741122410817
 20
28.973482152349963
 30
0.0
 10
-31.77078762596011
 20
28.86803996700399
 30
0.0
 10
-30.765852418549684
 20
28.654674019844787
 30
0.0
 10
-29.541750564205813
 20
28.3947750237247
 30
0.0
 10
-28.840931519699097
 20
28.245978446477178
 30
0.0
 10
-28.681177903985144
 20
28.212059860206534
 30
0.0
  0
SPLINE
  5
80
330
2F
100
AcDbEntity
  8
0
  6
Continuous
 62
7
370
25
100
AcDbSpline
 70
24
 71
3
 72
10
 73
6
 74
0
 42
1e-08
 43
1e-08
 40
0.0
 40
0.0
 40
0.0
 40
0.0
 40
0.3701669572286349
 40
0.7503638824944613
 40
1.0
 40
1.0
 40
1.0
 40
1.0
 10
-25.28006106781254
 20
17.75261894461721
 30
0.0
 10
-25.591625055233067
 20
17.406433277598442
 30
0.0
 10
-26.223195104047022
 20
16.70468176765019
 30
0.0
 10
-27.041598606824095
 20
15.79533545697624
 30
0.0
 10
-27.536452162079627
 20
15.245492679828299
 30
0.0
 10
-27.732588775878185
 20
15.027560931564182
 30
0.0
  0
SPLINE
  5
81
330
2F
100
AcDbEntity
  8
0
  6
Continuous
 62
7
370
25
100
AcDbSpline
 70
24
 71
3
 72
10
 73
6
 74
0
 42
1e-08
 43
1e-08
 40
0.0
 40
0.0
 40
0.0
 40
0.0
 40
0.4299704356253962
 40
0.8700602035765375
 40
1.0
 40
1.0
 40
1.0
 40
1.0
 10
-27.73258877587807
 20
15.027560931564189
 30
0.0
 10
-28.229212374025906
 20
15.13300311691016
 30
0.0
 10
-29.234147581436105
 20
15.346369064069389
 30
0.0
 10
-30.45824943578134
 20
15.6062680601894
 30
0.0
 10
-31.159068480287033
 20
15.75506463743698
 30
0.0
 10
-31.3188220960011
 20
15.788983223707621
 30
0.0
  0
SPLINE
  5
82
330
2F
100
AcDbEntity
  8
0
  6
Continuous
 62
7
370
25
100
AcDbSpline
 70
24
 71
3
 72
10
 73
6
 74
0
 42
1e-08
 43
1e-08
 40
0.0
 40
0.0
 40
0.0
 40
0.0
 40
0.263714462942526
 40
0.6277042298441557
 40
0.9999999999999999
 40
0.9999999999999999
 40
0.9999999999999999
 40
0.9999999999999999
 10
-25.09494458386223
 20
27.450637568063097
 30
0.0
 10
-24.999121473514037
 20
27.155953142531008
 30
0.0
 10
-24.771039285638267
 20
26.45453290826801
 30
0.0
 10
-24.392576579772253
 20
25.290648072363428
 30
0.0
 10
-24.106095434664553
 20
24.409633760001217
 30
0.0
 10
-23.961238971804733
 20
23.964157262866653
 30
0.0
  0
SPLINE
  5
83
330
2F
100
AcDbEntity
  8
0
  6
Continuous
 62
7
370
25
100
AcDbSpline
 70
24
 71
3
 72
10
 73
6
 74
0
 42
1e-08
 43
1e-08
 40
0.0
 40
0.0
 40
0.0
 40
0.0
 40
0.3701669572286539
 40
0.7503638824944716
 40
1.0
 40
1.0
 40
1.0
 40
1.0
 10
-28.681177903985144
 20
28.212059860206534
 30
0.0
 10
-28.2255903282105
 20
28.115330365705493
 30
0.0
 10
-27.302070669044383
 20
27.91925041413732
 30
0.0
 10
-26.105351911773823
 20
27.66516534552265
 30
0.0
 10
-25.381747321049147
 20
27.511530984092868
 30
0.0
 10
-25.094944583862116
 20
27.450637568063097
 30
0.0
  0
SPLINE
  5
84
330
2F
100
AcDbEntity
  8
0
  6
Continuous
 62
7
370
25
100
AcDbSpline
 70
24
 71
3
 72
11
 73
7
 74
0
 42
1e-08
 43
1e-08
 40
0.0
 40
0.0
 40
0.0
 40
0.0
 40
0.1153793756467518
 40
0.5050242257266191
 40
0.9047550947299341
 40
1.0
 40
1.0
 40
1.0
 40
1.0
 10
-23.96123897180462
 20
23.964157262866653
 30
0.0
 10
-23.91637668836097
 20
23.82619246317906
 30
0.0
 10
-23.720011091534047
 20
23.222310133696897
 30
0.0
 10
-23.370259158076237
 20
22.146719420609887
 30
0.0
 10
-23.04093238332746
 20
21.13394211588211
 30
0.0
 10
-22.86196991964789
 20
20.58357957171329
 30
0.0
 10
-22.827533359747235
 20
20.47767695767021
 30
0.0
  0
SPLINE
  5
85
330
2F
100
AcDbEntity
  8
0
  6
Continuous
 62
7
370
25
100
AcDbSpline
 70
24
 71
3
 72
10
 73
6
 74
0
 42
1e-08
 43
1e-08
 40
0.0
 40
0.0
 40
0.0
 40
0.0
 40
0.4299704356254055
 40
0.870060203576534
 40
1.0
 40
1.0
 40
1.0
 40
1.0
 10
-22.827533359747235
 20
20.47767695767021
 30
0.0
 10
-23.167160769961356
 20
20.10030939822827
 30
0.0
 10
-23.854408704208936
 20
19.33669295303322
 30
0.0
 10
-24.691538764438747
 20
18.40653914841098
 30
0.0
 10
-25.170809902584665
 20
17.87401034103672
 30
0.0
 10
-25.280061067812653
 20
17.75261894461721
 30
0.0
  0
CIRCLE
  5
86
330
2F
100
AcDbEntity
  8
0
  6
Continuous
 62
7
370
25
100
AcDbCircle
 10
-70.0
 20
-21.999478458
 30
0.0
 40
6.349999999999715
  0
CIRCLE
  5
87
330
2F
100
AcDbEntity
  8
0
  6
Continuous
 62
7
370
25
100
AcDbCircle
 10
-70.0
 20
-21.999478458
 30
0.0
 40
3.968750000000126
  0
SPLINE
  5
88
330
2F
100
AcDbEntity
  8
0
  6
Continuous
 62
7
370
25
100
AcDbSpline
 70
24
 71
3
 72
10
 73
6
 74
0
 42
1e-08
 43
1e-08
 40
0.0
 40
0.0
 40
0.0
 40
0.0
 40
0.4299704356254063
 40
0.870060203576535
 40
1.0
 40
1.0
 40
1.0
 40
1.0
 10
-77.17246664023912
 20
-20.476633873756064
 30
0.0
 10
-76.83283923002466
 20
-20.09926631431412
 30
0.0
 10
-76.14559129577697
 20
-19.33564986911908
 30
0.0
 10
-75.30846123554772
 20
-18.405496064496813
 30
0.0
 10
-74.82919009740158
 20
-17.872967257122575
 30
0.0
 10
-74.7199389321737
 20
-17.75157586070306
 30
0.0
  0
SPLINE
  5
89
330
2F
100
AcDbEntity
  8
0
  6
Continuous
 62
7
370
25
100
AcDbSpline
 70
24
 71
3
 72
10
 73
6
 74
0
 42
1e-08
 43
1e-08
 40
0.0
 40
0.0
 40
0.0
 40
0.0
 40
0.2637144629425242
 40
0.6277042298441463
 40
1.0
 40
1.0
 40
1.0
 40
1.0
 10
-77.17246664023912
 20
-20.476633873756064
 30
0.0
 10
-77.0766435298907
 20
-20.771318299288147
 30
0.0
 10
-76.84856134201505
 20
-21.47273853355113
 30
0.0
 10
-76.47009863614926
 20
-22.63662336945577
 30
0.0
 10
-76.18361749104156
 20
-23.517637681817952
 30
0.0
 10
-76.03876102818163
 20
-23.96311417895251
 30
0.0
  0
SPLINE
  5
8A
330
2F
100
AcDbEntity
  8
0
  6
Continuous
 62
7
370
25
100
AcDbSpline
 70
24
 71
3
 72
10
 73
6
 74
0
 42
1e-08
 43
1e-08
 40
0.0
 40
0.0
 40
0.0
 40
0.0
 40
0.3701669572286534
 40
0.7503638824944711
 40
0.9999999999999999
 40
0.9999999999999999
 40
0.9999999999999999
 40
0.9999999999999999
 10
-71.3188220960011
 20
-28.21101677629238
 30
0.0
 10
-71.77440967177574
 20
-28.11428728179133
 30
0.0
 10
-72.69792933094186
 20
-27.91820733022317
 30
0.0
 10
-73.89464808821197
 20
-27.66412226160847
 30
0.0
 10
-74.61825267893698
 20
-27.51048790017872
 30
0.0
 10
-74.90505541612401
 20
-27.44959448414897
 30
0.0
  0
SPLINE
  5
8B
330
2F
100
AcDbEntity
  8
0
  6
Continuous
 62
7
370
25
100
AcDbSpline
 70
24
 71
3
 72
11
 73
7
 74
0
 42
1e-08
 43
1e-08
 40
0.0
 40
0.0
 40
0.0
 40
0.0
 40
0.1153793756467504
 40
0.5050242257266065
 40
0.9047550947299285
 40
0.9999999999999999
 40
0.9999999999999999
 40
0.9999999999999999
 40
0.9999999999999999
 10
-76.03876102818163
 20
-23.96311417895251
 30
0.0
 10
-75.99389874473786
 20
-24.10107897864011
 30
0.0
 10
-75.79753314791071
 20
-24.70496130812223
 30
0.0
 10
-75.44778121445324
 20
-25.780552021209317
 30
0.0
 10
-75.11845443970503
 20
-26.79332932593707
 30
0.0
 10
-74.93949197602467
 20
-27.343691870105868
 30
0.0
 10
-74.90505541612413
 20
-27.44959448414896
 30
0.0
  0
SPLINE
  5
8C
330
2F
100
AcDbEntity
  8
0
  6
Continuous
 62
7
370
25
100
AcDbSpline
 70
24
 71
3
 72
10
 73
6
 74
0
 42
1e-08
 43
1e-08
 40
0.0
 40
0.0
 40
0.0
 40
0.0
 40
0.3701669572286361
 40
0.7503638824944638
 40
1.0
 40
1.0
 40
1.0
 40
1.0
 10
-74.71993893217359
 20
-17.751575860703063
 30
0.0
 10
-74.40837494475329
 20
-17.40539019368429
 30
0.0
 10
-73.77680489593911
 20
-16.703638683736045
 30
0.0
 10
-72.95840139316158
 20
-15.794292373062081
 30
0.0
 10
-72.46354783790684
 20
-15.244449595914155
 30
0.0
 10
-72.26741122410817
 20
-15.026517847650041
 30
0.0
  0
SPLINE
  5
8D
330
2F
100
AcDbEntity
  8
0
  6
Continuous
 62
7
370
25
100
AcDbSpline
 70
24
 71
3
 72
10
 73
6
 74
0
 42
1e-08
 43
1e-08
 40
0.0
 40
0.0
 40
0.0
 40
0.0
 40
0.4299704356253958
 40
0.8700602035765371
 40
1.0
 40
1.0
 40
1.0
 40
1.0
 10
-72.26741122410817
 20
-15.026517847650041
 30
0.0
 10
-71.77078762596034
 20
-15.131960032996016
 30
0.0
 10
-70.76585241855025
 20
-15.345325980155227
 30
0.0
 10
-69.54175056420559
 20
-15.605224976275267
 30
0.0
 10
-68.84093151969921
 20
-15.754021553522833
 30
0.0
 10
-68.68117790398526
 20
-15.787940139793474
 30
0.0
  0
SPLINE
  5
8E
330
2F
100
AcDbEntity
  8
0
  6
Continuous
 62
7
370
25
100
AcDbSpline
 70
24
 71
3
 72
10
 73
6
 74
0
 42
1e-08
 43
1e-08
 40
0.0
 40
0.0
 40
0.0
 40
0.0
 40
0.3701669572286345
 40
0.7503638824944618
 40
1.0
 40
1.0
 40
1.0
 40
1.0
 10
-65.28006106781265
 20
-26.24738105538279
 30
0.0
 10
-65.5916250552333
 20
-26.59356672240156
 30
0.0
 10
-66.22319510404691
 20
-27.29531823234981
 30
0.0
 10
-67.04159860682466
 20
-28.20466454302377
 30
0.0
 10
-67.53645216207951
 20
-28.75450732017169
 30
0.0
 10
-67.73258877587818
 20
-28.97243906843581
 30
0.0
  0
SPLINE
  5
8F
330
2F
100
AcDbEntity
  8
0
  6
Continuous
 62
7
370
25
100
AcDbSpline
 70
24
 71
3
 72
10
 73
6
 74
0
 42
1e-08
 43
1e-08
 40
0.0
 40
0.0
 40
0.0
 40
0.0
 40
0.4299704356253962
 40
0.8700602035765375
 40
1.0
 40
1.0
 40
1.0
 40
1.0
 10
-67.73258877587807
 20
-28.97243906843582
 30
0.0
 10
-68.2292123740259
 20
-28.86699688308984
 30
0.0
 10
-69.23414758143588
 20
-28.65363093593063
 30
0.0
 10
-70.45824943578134
 20
-28.393731939810568
 30
0.0
 10
-71.15906848028703
 20
-28.24493536256302
 30
0.0
 10
-71.3188220960011
 20
-28.21101677629238
 30
0.0
  0
SPLINE
  5
90
330
2F
100
AcDbEntity
  8
0
  6
Continuous
 62
7
370
25
100
AcDbSpline
 70
24
 71
3
 72
10
 73
6
 74
0
 42
1e-08
 43
1e-08
 40
0.0
 40
0.0
 40
0.0
 40
0.0
 40
0.3701669572286539
 40
0.7503638824944714
 40
0.9999999999999999
 40
0.9999999999999999
 40
0.9999999999999999
 40
0.9999999999999999
 10
-68.68117790398526
 20
-15.787940139793474
 30
0.0
 10
-68.22559032821061
 20
-15.884669634294516
 30
0.0
 10
-67.30207066904438
 20
-16.080749585862684
 30
0.0
 10
-66.1053519117745
 20
-16.334834654477373
 30
0.0
 10
-65.38174732104949
 20
-16.488469015907135
 30
0.0
 10
-65.09494458386212
 20
-16.549362431936903
 30
0.0
  0
SPLINE
  5
91
330
2F
100
AcDbEntity
  8
0
  6
Continuous
 62
7
370
25
100
AcDbSpline
 70
24
 71
3
 72
10
 73
6
 74
0
 42
1e-08
 43
1e-08
 40
0.0
 40
0.0
 40
0.0
 40
0.0
 40
0.2637144629425252
 40
0.6277042298441557
 40
0.9999999999999999
 40
0.9999999999999999
 40
0.9999999999999999
 40
0.9999999999999999
 10
-65.09494458386223
 20
-16.549362431936903
 30
0.0
 10
-64.99912147351392
 20
-16.84404685746899
 30
0.0
 10
-64.77103928563838
 20
-17.545467091731986
 30
0.0
 10
-64.39257657977191
 20
-18.70935192763657
 30
0.0
 10
-64.10609543466455
 20
-19.59036623999878
 30
0.0
 10
-63.96123897180473
 20
-20.035842737133354
 30
0.0
  0
SPLINE
  5
92
330
2F
100
AcDbEntity
  8
0
  6
Continuous
 62
7
370
25
100
AcDbSpline
 70
24
 71
3
 72
11
 73
7
 74
0
 42
1e-08
 43
1e-08
 40
0.0
 40
0.0
 40
0.0
 40
0.0
 40
0.1153793756467519
 40
0.5050242257266186
 40
0.9047550947299349
 40
1.0
 40
1.0
 40
1.0
 40
1.0
 10
-63.96123897180473
 20
-20.035842737133354
 30
0.0
 10
-63.91637668836097
 20
-20.17380753682095
 30
0.0
 10
-63.720011091533934
 20
-20.777689866303092
 30
0.0
 10
-63.370259158076465
 20
-21.85328057939011
 30
0.0
 10
-63.040932383327686
 20
-22.86605788411792
 30
0.0
 10
-62.86196991964789
 20
-23.4164204282867
 30
0.0
 10
-62.827533359747235
 20
-23.52232304232978
 30
0.0
  0
SPLINE
  5
93
330
2F
100
AcDbEntity
  8
0
  6
Continuous
 62
7
370
25
100
AcDbSpline
 70
24
 71
3
 72
10
 73
6
 74
0
 42
1e-08
 43
1e-08
 40
0.0
 40
0.0
 40
0.0
 40
0.0
 40
0.4299704356254059
 40
0.8700602035765335
 40
1.0
 40
1.0
 40
1.0
 40
1.0
 10
-62.827533359747235
 20
-23.52232304232978
 30
0.0
 10
-63.16716076996124
 20
-23.89969060177173
 30
0.0
 10
-63.85440870420916
 20
-24.66330704696677
 30
0.0
 10
-64.69153876443931
 20
-25.59346085158903
 30
0.0
 10
-65.17080990258478
 20
-26.12598965896327
 30
0.0
 10
-65.28006106781265
 20
-26.24738105538279
 30
0.0
  0
CIRCLE
  5
94
330
2F
100
AcDbEntity
  8
0
  6
Continuous
 62
7
370
25
100
AcDbCircle
 10
-30.0
 20
-21.999478458
 30
0.0
 40
3.968749999999957
  0
CIRCLE
  5
95
330
2F
100
AcDbEntity
  8
0
  6
Continuous
 62
7
370
25
100
AcDbCircle
 10
-30.0
 20
-21.999478458
 30
0.0
 40
6.349999999999715
  0
SPLINE
  5
96
330
2F
100
AcDbEntity
  8
0
  6
Continuous
 62
7
370
25
100
AcDbSpline
 70
24
 71
3
 72
10
 73
6
 74
0
 42
1e-08
 43
1e-08
 40
0.0
 40
0.0
 40
0.0
 40
0.0
 40
0.4299704356254063
 40
0.870060203576535
 40
1.0
 40
1.0
 40
1.0
 40
1.0
 10
-37.17246664023912
 20
-20.476633873756064
 30
0.0
 10
-36.832839230024774
 20
-20.09926631431412
 30
0.0
 10
-36.14559129577685
 20
-19.33564986911908
 30
0.0
 10
-35.3084612355475
 20
-18.405496064496813
 30
0.0
 10
-34.829190097401465
 20
-17.872967257122575
 30
0.0
 10
-34.71993893217359
 20
-17.75157586070306
 30
0.0
  0
SPLINE
  5
97
330
2F
100
AcDbEntity
  8
0
  6
Continuous
 62
7
370
25
100
AcDbSpline
 70
24
 71
3
 72
10
 73
6
 74
0
 42
1e-08
 43
1e-08
 40
0.0
 40
0.0
 40
0.0
 40
0.0
 40
0.2637144629425242
 40
0.6277042298441463
 40
1.0
 40
1.0
 40
1.0
 40
1.0
 10
-37.17246664023912
 20
-20.476633873756064
 30
0.0
 10
-37.076643529890816
 20
-20.771318299288147
 30
0.0
 10
-36.848561342015046
 20
-21.47273853355113
 30
0.0
 10
-36.47009863614937
 20
-22.63662336945577
 30
0.0
 10
-36.18361749104133
 20
-23.517637681817952
 30
0.0
 10
-36.038761028181625
 20
-23.96311417895251
 30
0.0
  0
SPLINE
  5
98
330
2F
100
AcDbEntity
  8
0
  6
Continuous
 62
7
370
25
100
AcDbSpline
 70
24
 71
3
 72
10
 73
6
 74
0
 42
1e-08
 43
1e-08
 40
0.0
 40
0.0
 40
0.0
 40
0.0
 40
0.3701669572286534
 40
0.7503638824944711
 40
0.9999999999999999
 40
0.9999999999999999
 40
0.9999999999999999
 40
0.9999999999999999
 10
-31.3188220960011
 20
-28.21101677629238
 30
0.0
 10
-31.774409671775857
 20
-28.11428728179133
 30
0.0
 10
-32.69792933094209
 20
-27.91820733022317
 30
0.0
 10
-33.894648088211966
 20
-27.66412226160847
 30
0.0
 10
-34.61825267893687
 20
-27.51048790017872
 30
0.0
 10
-34.905055416124014
 20
-27.44959448414897
 30
0.0
  0
SPLINE
  5
99
330
2F
100
AcDbEntity
  8
0
  6
Continuous
 62
7
370
25
100
AcDbSpline
 70
24
 71
3
 72
11
 73
7
 74
0
 42
1e-08
 43
1e-08
 40
0.0
 40
0.0
 40
0.0
 40
0.0
 40
0.1153793756467504
 40
0.5050242257266065
 40
0.9047550947299285
 40
0.9999999999999999
 40
0.9999999999999999
 40
0.9999999999999999
 40
0.9999999999999999
 10
-36.038761028181625
 20
-23.96311417895251
 30
0.0
 10
-35.99389874473775
 20
-24.10107897864011
 30
0.0
 10
-35.7975331479106
 20
-24.70496130812223
 30
0.0
 10
-35.44778121445336
 20
-25.780552021209317
 30
0.0
 10
-35.11845443970458
 20
-26.79332932593707
 30
0.0
 10
-34.93949197602478
 20
-27.343691870105868
 30
0.0
 10
-34.90505541612413
 20
-27.44959448414896
 30
0.0
  0
SPLINE
  5
9A
330
2F
100
AcDbEntity
  8
0
  6
Continuous
 62
7
370
25
100
AcDbSpline
 70
24
 71
3
 72
10
 73
6
 74
0
 42
1e-08
 43
1e-08
 40
0.0
 40
0.0
 40
0.0
 40
0.0
 40
0.3701669572286361
 40
0.7503638824944638
 40
1.0
 40
1.0
 40
1.0
 40
1.0
 10
-34.71993893217348
 20
-17.751575860703063
 30
0.0
 10
-34.40837494475318
 20
-17.40539019368429
 30
0.0
 10
-33.77680489593911
 20
-16.703638683736045
 30
0.0
 10
-32.958401393161466
 20
-15.794292373062081
 30
0.0
 10
-32.463547837906845
 20
-15.244449595914155
 30
0.0
 10
-32.26741122410817
 20
-15.026517847650041
 30
0.0
  0
SPLINE
  5
9B
330
2F
100
AcDbEntity
  8
0
  6
Continuous
 62
7
370
25
100
AcDbSpline
 70
24
 71
3
 72
10
 73
6
 74
0
 42
1e-08
 43
1e-08
 40
0.0
 40
0.0
 40
0.0
 40
0.0
 40
0.4299704356253958
 40
0.8700602035765371
 40
1.0
 40
1.0
 40
1.0
 40
1.0
 10
-32.26741122410817
 20
-15.026517847650041
 30
0.0
 10
-31.770787625960224
 20
-15.131960032996016
 30
0.0
 10
-30.765852418550026
 20
-15.345325980155227
 30
0.0
 10
-29.541750564205472
 20
-15.605224976275267
 30
0.0
 10
-28.84093151969921
 20
-15.754021553522833
 30
0.0
 10
-28.681177903985144
 20
-15.787940139793474
 30
0.0
  0
SPLINE
  5
9C
330
2F
100
AcDbEntity
  8
0
  6
Continuous
 62
7
370
25
100
AcDbSpline
 70
24
 71
3
 72
10
 73
6
 74
0
 42
1e-08
 43
1e-08
 40
0.0
 40
0.0
 40
0.0
 40
0.0
 40
0.3701669572286345
 40
0.7503638824944618
 40
1.0
 40
1.0
 40
1.0
 40
1.0
 10
-25.280061067812653
 20
-26.24738105538279
 30
0.0
 10
-25.591625055233294
 20
-26.59356672240156
 30
0.0
 10
-26.22319510404691
 20
-27.29531823234981
 30
0.0
 10
-27.04159860682455
 20
-28.20466454302377
 30
0.0
 10
-27.536452162079513
 20
-28.75450732017169
 30
0.0
 10
-27.732588775878185
 20
-28.97243906843581
 30
0.0
  0
SPLINE
  5
9D
330
2F
100
AcDbEntity
  8
0
  6
Continuous
 62
7
370
25
100
AcDbSpline
 70
24
 71
3
 72
10
 73
6
 74
0
 42
1e-08
 43
1e-08
 40
0.0
 40
0.0
 40
0.0
 40
0.0
 40
0.4299704356253962
 40
0.8700602035765375
 40
1.0
 40
1.0
 40
1.0
 40
1.0
 10
-27.73258877587807
 20
-28.97243906843582
 30
0.0
 10
-28.229212374025906
 20
-28.86699688308984
 30
0.0
 10
-29.234147581436105
 20
-28.65363093593063
 30
0.0
 10
-30.45824943578134
 20
-28.393731939810568
 30
0.0
 10
-31.159068480287033
 20
-28.24493536256302
 30
0.0
 10
-31.3188220960011
 20
-28.21101677629238
 30
0.0
  0
SPLINE
  5
9E
330
2F
100
AcDbEntity
  8
0
  6
Continuous
 62
7
370
25
100
AcDbSpline
 70
24
 71
3
 72
10
 73
6
 74
0
 42
1e-08
 43
1e-08
 40
0.0
 40
0.0
 40
0.0
 40
0.0
 40
0.2637144629425252
 40
0.6277042298441557
 40
0.9999999999999999
 40
0.9999999999999999
 40
0.9999999999999999
 40
0.9999999999999999
 10
-25.09494458386223
 20
-16.549362431936903
 30
0.0
 10
-24.999121473513924
 20
-16.84404685746899
 30
0.0
 10
-24.77103928563838
 20
-17.545467091731986
 30
0.0
 10
-24.392576579772026
 20
-18.70935192763657
 30
0.0
 10
-24.106095434664553
 20
-19.59036623999878
 30
0.0
 10
-23.961238971804733
 20
-20.035842737133354
 30
0.0
  0
SPLINE
  5
9F
330
2F
100
AcDbEntity
  8
0
  6
Continuous
 62
7
370
25
100
AcDbSpline
 70
24
 71
3
 72
10
 73
6
 74
0
 42
1e-08
 43
1e-08
 40
0.0
 40
0.0
 40
0.0
 40
0.0
 40
0.3701669572286539
 40
0.7503638824944714
 40
0.9999999999999999
 40
0.9999999999999999
 40
0.9999999999999999
 40
0.9999999999999999
 10
-28.681177903985144
 20
-15.787940139793474
 30
0.0
 10
-28.2255903282105
 20
-15.884669634294516
 30
0.0
 10
-27.30207066904427
 20
-16.080749585862684
 30
0.0
 10
-26.105351911774164
 20
-16.334834654477373
 30
0.0
 10
-25.381747321049488
 20
-16.488469015907135
 30
0.0
 10
-25.094944583862116
 20
-16.549362431936903
 30
0.0
  0
SPLINE
  5
A0
330
2F
100
AcDbEntity
  8
0
  6
Continuous
 62
7
370
25
100
AcDbSpline
 70
24
 71
3
 72
11
 73
7
 74
0
 42
1e-08
 43
1e-08
 40
0.0
 40
0.0
 40
0.0
 40
0.0
 40
0.1153793756467519
 40
0.5050242257266186
 40
0.9047550947299349
 40
1.0
 40
1.0
 40
1.0
 40
1.0
 10
-23.961238971804733
 20
-20.035842737133354
 30
0.0
 10
-23.91637668836097
 20
-20.17380753682095
 30
0.0
 10
-23.720011091533934
 20
-20.777689866303092
 30
0.0
 10
-23.370259158076692
 20
-21.85328057939011
 30
0.0
 10
-23.04093238332746
 20
-22.86605788411792
 30
0.0
 10
-22.861969919648004
 20
-23.4164204282867
 30
0.0
 10
-22.827533359747235
 20
-23.52232304232978
 30
0.0
  0
SPLINE
  5
A1
330
2F
100
AcDbEntity
  8
0
  6
Continuous
 62
7
370
25
100
AcDbSpline
 70
24
 71
3
 72
10
 73
6
 74
0
 42
1e-08
 43
1e-08
 40
0.0
 40
0.0
 40
0.0
 40
0.0
 40
0.4299704356254059
 40
0.8700602035765335
 40
1.0
 40
1.0
 40
1.0
 40
1.0
 10
-22.827533359747235
 20
-23.52232304232978
 30
0.0
 10
-23.167160769961242
 20
-23.89969060177173
 30
0.0
 10
-23.854408704208822
 20
-24.66330704696677
 30
0.0
 10
-24.69153876443977
 20
-25.59346085158903
 30
0.0
 10
-25.170809902584665
 20
-26.12598965896327
 30
0.0
 10
-25.280061067812653
 20
-26.24738105538279
 30
0.0
  0
CIRCLE
  5
A2
330
2F
100
AcDbEntity
  8
0
  6
Continuous
 62
7
370
25
100
AcDbCircle
 10
110.0
 20
22.000521541999998
 30
0.0
 40
6.350000000000066
  0
CIRCLE
  5
A3
330
2F
100
AcDbEntity
  8
0
  6
Continuous
 62
7
370
25
100
AcDbCircle
 10
110.0
 20
22.000521541999998
 30
0.0
 40
3.968750000000296
  0
SPLINE
  5
A4
330
2F
100
AcDbEntity
  8
0
  6
Continuous
 62
7
370
25
100
AcDbSpline
 70
24
 71
3
 72
10
 73
6
 74
0
 42
1e-08
 43
1e-08
 40
0.0
 40
0.0
 40
0.0
 40
0.0
 40
0.4299704356253961
 40
0.8700602035765713
 40
0.9999999999999999
 40
0.9999999999999999
 40
0.9999999999999999
 40
0.9999999999999999
 10
102.82753335976099
 20
23.523366126244053
 30
0.0
 10
103.167160769975
 20
23.900733685686017
 30
0.0
 10
103.8544087042219
 20
24.66435013088118
 30
0.0
 10
104.69153876445307
 20
25.594503935503088
 30
0.0
 10
105.17080990259797
 20
26.127032742877507
 30
0.0
 10
105.28006106782595
 20
26.24842413929704
 30
0.0
  0
SPLINE
  5
A5
330
2F
100
AcDbEntity
  8
0
  6
Continuous
 62
7
370
25
100
AcDbSpline
 70
24
 71
3
 72
10
 73
6
 74
0
 42
1e-08
 43
1e-08
 40
0.0
 40
0.0
 40
0.0
 40
0.0
 40
0.2637144629425243
 40
0.6277042298441466
 40
0.9999999999999999
 40
0.9999999999999999
 40
0.9999999999999999
 40
0.9999999999999999
 10
102.82753335976099
 20
23.523366126244053
 30
0.0
 10
102.92335647010896
 20
23.228681700711963
 30
0.0
 10
103.15143865798495
 20
22.527261466448987
 30
0.0
 10
103.52990136385006
 20
21.363376630544334
 30
0.0
 10
103.81638250895799
 20
20.48236231818215
 30
0.0
 10
103.96123897181792
 20
20.03688582104759
 30
0.0
  0
SPLINE
  5
A6
330
2F
100
AcDbEntity
  8
0
  6
Continuous
 62
7
370
25
100
AcDbSpline
 70
24
 71
3
 72
10
 73
6
 74
0
 42
1e-08
 43
1e-08
 40
0.0
 40
0.0
 40
0.0
 40
0.0
 40
0.3701669572286355
 40
0.7503638824944638
 40
0.9999999999999999
 40
0.9999999999999999
 40
0.9999999999999999
 40
0.9999999999999999
 10
108.68117790399901
 20
15.788983223707731
 30
0.0
 10
108.22559032822392
 20
15.88571271820878
 30
0.0
 10
107.30207066905791
 20
16.08179266977694
 30
0.0
 10
106.10535191178792
 20
16.33587773839163
 30
0.0
 10
105.3817473210629
 20
16.48951209982138
 30
0.0
 10
105.09494458387599
 20
16.55040551585114
 30
0.0
  0
SPLINE
  5
A7
330
2F
100
AcDbEntity
  8
0
  6
Continuous
 62
7
370
25
100
AcDbSpline
 70
24
 71
3
 72
11
 73
7
 74
0
 42
1e-08
 43
1e-08
 40
0.0
 40
0.0
 40
0.0
 40
0.0
 40
0.1153793756467504
 40
0.5050242257266061
 40
0.9047550947299363
 40
1.0
 40
1.0
 40
1.0
 40
1.0
 10
103.96123897181792
 20
20.03688582104759
 30
0.0
 10
104.00610125526191
 20
19.89892102136
 30
0.0
 10
104.20246685208895
 20
19.29503869187788
 30
0.0
 10
104.55221878554698
 20
18.21944797879076
 30
0.0
 10
104.88154556029394
 20
17.2066706740631
 30
0.0
 10
105.06050802397499
 20
16.65630812989423
 30
0.0
 10
105.09494458387599
 20
16.55040551585114
 30
0.0
  0
SPLINE
  5
A8
330
2F
100
AcDbEntity
  8
0
  6
Continuous
 62
7
370
25
100
AcDbSpline
 70
24
 71
3
 72
10
 73
6
 74
0
 42
1e-08
 43
1e-08
 40
0.0
 40
0.0
 40
0.0
 40
0.0
 40
0.3701669572286488
 40
0.750363882494451
 40
1.0
 40
1.0
 40
1.0
 40
1.0
 10
105.28006106782595
 20
26.24842413929704
 30
0.0
 10
105.59162505524591
 20
26.59460980631579
 30
0.0
 10
106.223195104061
 20
27.296361316263994
 30
0.0
 10
107.04159860683808
 20
28.205707626938104
 30
0.0
 10
107.53645216209293
 20
28.75555040408597
 30
0.0
 10
107.73258877589205
 20
28.97348215235007
 30
0.0
  0
SPLINE
  5
A9
330
2F
100
AcDbEntity
  8
0
  6
Continuous
 62
7
370
25
100
AcDbSpline
 70
24
 71
3
 72
10
 73
6
 74
0
 42
1e-08
 43
1e-08
 40
0.0
 40
0.0
 40
0.0
 40
0.0
 40
0.4299704356253832
 40
0.8700602035765119
 40
1.0
 40
1.0
 40
1.0
 40
1.0
 10
107.73258877589205
 20
28.973482152350062
 30
0.0
 10
108.22921237403898
 20
28.868039967004083
 30
0.0
 10
109.23414758145009
 20
28.65467401984488
 30
0.0
 10
110.4582494357951
 20
28.39477502372483
 30
0.0
 10
111.1590684803009
 20
28.245978446477263
 30
0.0
 10
111.31882209601508
 20
28.212059860206633
 30
0.0
  0
SPLINE
  5
AA
330
2F
100
AcDbEntity
  8
0
  6
Continuous
 62
7
370
25
100
AcDbSpline
 70
24
 71
3
 72
10
 73
6
 74
0
 42
1e-08
 43
1e-08
 40
0.0
 40
0.0
 40
0.0
 40
0.0
 40
0.3701669572286475
 40
0.7503638824944476
 40
1.0
 40
1.0
 40
1.0
 40
1.0
 10
114.71993893218792
 20
17.75261894461731
 30
0.0
 10
114.40837494476705
 20
17.40643327759856
 30
0.0
 10
113.77680489595309
 20
16.70468176765038
 30
0.0
 10
112.95840139317511
 20
15.795335456976261
 30
0.0
 10
112.46354783792003
 20
15.245492679828391
 30
0.0
 10
112.26741122412204
 20
15.027560931564292
 30
0.0
  0
SPLINE
  5
AB
330
2F
100
AcDbEntity
  8
0
  6
Continuous
 62
7
370
25
100
AcDbSpline
 70
24
 71
3
 72
10
 73
6
 74
0
 42
1e-08
 43
1e-08
 40
0.0
 40
0.0
 40
0.0
 40
0.0
 40
0.4299704356253837
 40
0.8700602035765123
 40
1.0
 40
1.0
 40
1.0
 40
1.0
 10
112.26741122412204
 20
15.027560931564292
 30
0.0
 10
111.77078762597398
 20
15.13300311691026
 30
0.0
 10
110.7658524185631
 20
15.34636906406947
 30
0.0
 10
109.541750564219
 20
15.606268060189539
 30
0.0
 10
108.84093151971297
 20
15.75506463743709
 30
0.0
 10
108.68117790399901
 20
15.788983223707731
 30
0.0
  0
SPLINE
  5
AC
330
2F
100
AcDbEntity
  8
0
  6
Continuous
 62
7
370
25
100
AcDbSpline
 70
24
 71
3
 72
10
 73
6
 74
0
 42
1e-08
 43
1e-08
 40
0.0
 40
0.0
 40
0.0
 40
0.0
 40
0.2637144629425259
 40
0.6277042298441468
 40
0.9999999999999999
 40
0.9999999999999999
 40
0.9999999999999999
 40
0.9999999999999999
 10
114.90505541613697
 20
27.450637568063197
 30
0.0
 10
115.00087852648608
 20
27.155953142531107
 30
0.0
 10
115.22896071436207
 20
26.454532908268153
 30
0.0
 10
115.60742342022695
 20
25.290648072363478
 30
0.0
 10
115.8939045653351
 20
24.409633760001324
 30
0.0
 10
116.03876102819504
 20
23.964157262866753
 30
0.0
  0
SPLINE
  5
AD
330
2F
100
AcDbEntity
  8
0
  6
Continuous
 62
7
370
25
100
AcDbSpline
 70
24
 71
3
 72
10
 73
6
 74
0
 42
1e-08
 43
1e-08
 40
0.0
 40
0.0
 40
0.0
 40
0.0
 40
0.3701669572286359
 40
0.7503638824944645
 40
1.0
 40
1.0
 40
1.0
 40
1.0
 10
111.31882209601508
 20
28.212059860206633
 30
0.0
 10
111.77440967178904
 20
28.115330365705578
 30
0.0
 10
112.69792933095505
 20
27.919250414137412
 30
0.0
 10
113.89464808822504
 20
27.665165345522713
 30
0.0
 10
114.61825267895097
 20
27.511530984092968
 30
0.0
 10
114.90505541613697
 20
27.450637568063197
 30
0.0
  0
SPLINE
  5
AE
330
2F
100
AcDbEntity
  8
0
  6
Continuous
 62
7
370
25
100
AcDbSpline
 70
24
 71
3
 72
11
 73
7
 74
0
 42
1e-08
 43
1e-08
 40
0.0
 40
0.0
 40
0.0
 40
0.0
 40
0.1153793756467518
 40
0.5050242257266101
 40
0.9047550947299424
 40
0.9999999999999999
 40
0.9999999999999999
 40
0.9999999999999999
 40
0.9999999999999999
 10
116.03876102819504
 20
23.96415726286676
 30
0.0
 10
116.08362331163903
 20
23.826192463179158
 30
0.0
 10
116.27998890846607
 20
23.222310133697032
 30
0.0
 10
116.62974084192297
 20
22.1467194206099
 30
0.0
 10
116.95906761667197
 20
21.13394211588226
 30
0.0
 10
117.13803008035211
 20
20.5835795717134
 30
0.0
 10
117.17246664025197
 20
20.47767695767031
 30
0.0
  0
SPLINE
  5
AF
330
2F
100
AcDbEntity
  8
0
  6
Continuous
 62
7
370
25
100
AcDbSpline
 70
24
 71
3
 72
10
 73
6
 74
0
 42
1e-08
 43
1e-08
 40
0.0
 40
0.0
 40
0.0
 40
0.0
 40
0.4299704356253951
 40
0.8700602035765709
 40
0.9999999999999999
 40
0.9999999999999999
 40
0.9999999999999999
 40
0.9999999999999999
 10
117.17246664025197
 20
20.47767695767031
 30
0.0
 10
116.83283923003796
 20
20.10030939822834
 30
0.0
 10
116.14559129579106
 20
19.33669295303319
 30
0.0
 10
115.30846123556103
 20
18.40653914841128
 30
0.0
 10
114.829190097415
 20
17.87401034103684
 30
0.0
 10
114.719938932187
 20
17.75261894461731
 30
0.0
  0
CIRCLE
  5
B0
330
2F
100
AcDbEntity
  8
0
  6
Continuous
 62
7
370
25
100
AcDbCircle
 10
-110.0
 20
-21.999478458
 30
0.0
 40
6.349999999999948
  0
CIRCLE
  5
B1
330
2F
100
AcDbEntity
  8
0
  6
Continuous
 62
7
370
25
100
AcDbCircle
 10
-110.0
 20
-21.999478458
 30
0.0
 40
3.968749999999955
  0
SPLINE
  5
B2
330
2F
100
AcDbEntity
  8
0
  6
Continuous
 62
7
370
25
100
AcDbSpline
 70
24
 71
3
 72
10
 73
6
 74
0
 42
1e-08
 43
1e-08
 40
0.0
 40
0.0
 40
0.0
 40
0.0
 40
0.4299704356254063
 40
0.870060203576535
 40
1.0
 40
1.0
 40
1.0
 40
1.0
 10
-117.17246664023901
 20
-20.476633873756064
 30
0.0
 10
-116.83283923002477
 20
-20.09926631431412
 30
0.0
 10
-116.14559129577697
 20
-19.33564986911908
 30
0.0
 10
-115.30846123554727
 20
-18.405496064496813
 30
0.0
 10
-114.82919009740158
 20
-17.872967257122575
 30
0.0
 10
-114.71993893217359
 20
-17.75157586070306
 30
0.0
  0
SPLINE
  5
B3
330
2F
100
AcDbEntity
  8
0
  6
Continuous
 62
7
370
25
100
AcDbSpline
 70
24
 71
3
 72
10
 73
6
 74
0
 42
1e-08
 43
1e-08
 40
0.0
 40
0.0
 40
0.0
 40
0.0
 40
0.2637144629425242
 40
0.6277042298441463
 40
1.0
 40
1.0
 40
1.0
 40
1.0
 10
-117.17246664023901
 20
-20.476633873756064
 30
0.0
 10
-117.0766435298907
 20
-20.771318299288147
 30
0.0
 10
-116.84856134201493
 20
-21.47273853355113
 30
0.0
 10
-116.47009863614926
 20
-22.63662336945577
 30
0.0
 10
-116.18361749104133
 20
-23.517637681817952
 30
0.0
 10
-116.03876102818151
 20
-23.96311417895251
 30
0.0
  0
SPLINE
  5
B4
330
2F
100
AcDbEntity
  8
0
  6
Continuous
 62
7
370
25
100
AcDbSpline
 70
24
 71
3
 72
10
 73
6
 74
0
 42
1e-08
 43
1e-08
 40
0.0
 40
0.0
 40
0.0
 40
0.0
 40
0.3701669572286534
 40
0.7503638824944711
 40
0.9999999999999999
 40
0.9999999999999999
 40
0.9999999999999999
 40
0.9999999999999999
 10
-111.3188220960011
 20
-28.21101677629238
 30
0.0
 10
-111.77440967177574
 20
-28.11428728179133
 30
0.0
 10
-112.69792933094186
 20
-27.91820733022317
 30
0.0
 10
-113.89464808821197
 20
-27.66412226160847
 30
0.0
 10
-114.61825267893698
 20
-27.51048790017872
 30
0.0
 10
-114.9050554161239
 20
-27.44959448414897
 30
0.0
  0
SPLINE
  5
B5
330
2F
100
AcDbEntity
  8
0
  6
Continuous
 62
7
370
25
100
AcDbSpline
 70
24
 71
3
 72
11
 73
7
 74
0
 42
1e-08
 43
1e-08
 40
0.0
 40
0.0
 40
0.0
 40
0.0
 40
0.1153793756467504
 40
0.5050242257266065
 40
0.9047550947299285
 40
0.9999999999999999
 40
0.9999999999999999
 40
0.9999999999999999
 40
0.9999999999999999
 10
-116.03876102818151
 20
-23.96311417895251
 30
0.0
 10
-115.99389874473786
 20
-24.10107897864011
 30
0.0
 10
-115.79753314791049
 20
-24.70496130812223
 30
0.0
 10
-115.44778121445347
 20
-25.780552021209317
 30
0.0
 10
-115.11845443970458
 20
-26.79332932593707
 30
0.0
 10
-114.93949197602467
 20
-27.343691870105868
 30
0.0
 10
-114.90505541612401
 20
-27.44959448414896
 30
0.0
  0
SPLINE
  5
B6
330
2F
100
AcDbEntity
  8
0
  6
Continuous
 62
7
370
25
100
AcDbSpline
 70
24
 71
3
 72
10
 73
6
 74
0
 42
1e-08
 43
1e-08
 40
0.0
 40
0.0
 40
0.0
 40
0.0
 40
0.3701669572286361
 40
0.7503638824944638
 40
1.0
 40
1.0
 40
1.0
 40
1.0
 10
-114.71993893217348
 20
-17.751575860703063
 30
0.0
 10
-114.40837494475306
 20
-17.40539019368429
 30
0.0
 10
-113.776804895939
 20
-16.703638683736045
 30
0.0
 10
-112.95840139316147
 20
-15.794292373062081
 30
0.0
 10
-112.46354783790684
 20
-15.244449595914155
 30
0.0
 10
-112.26741122410806
 20
-15.026517847650041
 30
0.0
  0
SPLINE
  5
B7
330
2F
100
AcDbEntity
  8
0
  6
Continuous
 62
7
370
25
100
AcDbSpline
 70
24
 71
3
 72
10
 73
6
 74
0
 42
1e-08
 43
1e-08
 40
0.0
 40
0.0
 40
0.0
 40
0.0
 40
0.4299704356253958
 40
0.8700602035765371
 40
1.0
 40
1.0
 40
1.0
 40
1.0
 10
-112.26741122410806
 20
-15.026517847650041
 30
0.0
 10
-111.77078762596022
 20
-15.131960032996016
 30
0.0
 10
-110.76585241855014
 20
-15.345325980155227
 30
0.0
 10
-109.54175056420524
 20
-15.605224976275267
 30
0.0
 10
-108.84093151969932
 20
-15.754021553522833
 30
0.0
 10
-108.68117790398514
 20
-15.787940139793474
 30
0.0
  0
SPLINE
  5
B8
330
2F
100
AcDbEntity
  8
0
  6
Continuous
 62
7
370
25
100
AcDbSpline
 70
24
 71
3
 72
10
 73
6
 74
0
 42
1e-08
 43
1e-08
 40
0.0
 40
0.0
 40
0.0
 40
0.0
 40
0.3701669572286345
 40
0.7503638824944618
 40
1.0
 40
1.0
 40
1.0
 40
1.0
 10
-105.28006106781265
 20
-26.24738105538279
 30
0.0
 10
-105.59162505523307
 20
-26.59356672240156
 30
0.0
 10
-106.2231951040468
 20
-27.29531823234981
 30
0.0
 10
-107.04159860682455
 20
-28.20466454302377
 30
0.0
 10
-107.53645216207951
 20
-28.75450732017169
 30
0.0
 10
-107.73258877587807
 20
-28.97243906843581
 30
0.0
  0
SPLINE
  5
B9
330
2F
100
AcDbEntity
  8
0
  6
Continuous
 62
7
370
25
100
AcDbSpline
 70
24
 71
3
 72
10
 73
6
 74
0
 42
1e-08
 43
1e-08
 40
0.0
 40
0.0
 40
0.0
 40
0.0
 40
0.4299704356253962
 40
0.8700602035765375
 40
1.0
 40
1.0
 40
1.0
 40
1.0
 10
-107.73258877587796
 20
-28.97243906843582
 30
0.0
 10
-108.22921237402568
 20
-28.86699688308984
 30
0.0
 10
-109.23414758143588
 20
-28.65363093593063
 30
0.0
 10
-110.45824943578123
 20
-28.393731939810568
 30
0.0
 10
-111.15906848028703
 20
-28.24493536256302
 30
0.0
 10
-111.3188220960011
 20
-28.21101677629238
 30
0.0
  0
SPLINE
  5
BA
330
2F
100
AcDbEntity
  8
0
  6
Continuous
 62
7
370
25
100
AcDbSpline
 70
24
 71
3
 72
10
 73
6
 74
0
 42
1e-08
 43
1e-08
 40
0.0
 40
0.0
 40
0.0
 40
0.0
 40
0.3701669572286539
 40
0.7503638824944714
 40
0.9999999999999999
 40
0.9999999999999999
 40
0.9999999999999999
 40
0.9999999999999999
 10
-108.68117790398514
 20
-15.787940139793474
 30
0.0
 10
-108.22559032821061
 20
-15.884669634294516
 30
0.0
 10
-107.30207066904438
 20
-16.080749585862684
 30
0.0
 10
-106.10535191177416
 20
-16.334834654477373
 30
0.0
 10
-105.38174732104949
 20
-16.488469015907135
 30
0.0
 10
-105.094944583862
 20
-16.549362431936903
 30
0.0
  0
SPLINE
  5
BB
330
2F
100
AcDbEntity
  8
0
  6
Continuous
 62
7
370
25
100
AcDbSpline
 70
24
 71
3
 72
10
 73
6
 74
0
 42
1e-08
 43
1e-08
 40
0.0
 40
0.0
 40
0.0
 40
0.0
 40
0.2637144629425252
 40
0.6277042298441557
 40
0.9999999999999999
 40
0.9999999999999999
 40
0.9999999999999999
 40
0.9999999999999999
 10
-105.09494458386212
 20
-16.549362431936903
 30
0.0
 10
-104.99912147351392
 20
-16.84404685746899
 30
0.0
 10
-104.77103928563838
 20
-17.545467091731986
 30
0.0
 10
-104.39257657977191
 20
-18.70935192763657
 30
0.0
 10
-104.10609543466444
 20
-19.59036623999878
 30
0.0
 10
-103.96123897180462
 20
-20.035842737133354
 30
0.0
  0
SPLINE
  5
BC
330
2F
100
AcDbEntity
  8
0
  6
Continuous
 62
7
370
25
100
AcDbSpline
 70
24
 71
3
 72
11
 73
7
 74
0
 42
1e-08
 43
1e-08
 40
0.0
 40
0.0
 40
0.0
 40
0.0
 40
0.1153793756467519
 40
0.5050242257266186
 40
0.9047550947299349
 40
1.0
 40
1.0
 40
1.0
 40
1.0
 10
-103.96123897180462
 20
-20.035842737133354
 30
0.0
 10
-103.91637668836097
 20
-20.17380753682095
 30
0.0
 10
-103.7200110915337
 20
-20.777689866303092
 30
0.0
 10
-103.37025915807635
 20
-21.85328057939011
 30
0.0
 10
-103.04093238332746
 20
-22.86605788411792
 30
0.0
 10
-102.86196991964778
 20
-23.4164204282867
 30
0.0
 10
-102.82753335974712
 20
-23.52232304232978
 30
0.0
  0
SPLINE
  5
BD
330
2F
100
AcDbEntity
  8
0
  6
Continuous
 62
7
370
25
100
AcDbSpline
 70
24
 71
3
 72
10
 73
6
 74
0
 42
1e-08
 43
1e-08
 40
0.0
 40
0.0
 40
0.0
 40
0.0
 40
0.4299704356254059
 40
0.8700602035765335
 40
1.0
 40
1.0
 40
1.0
 40
1.0
 10
-102.82753335974712
 20
-23.52232304232978
 30
0.0
 10
-103.16716076996124
 20
-23.89969060177173
 30
0.0
 10
-103.85440870420905
 20
-24.66330704696677
 30
0.0
 10
-104.6915387644392
 20
-25.59346085158903
 30
0.0
 10
-105.17080990258478
 20
-26.12598965896327
 30
0.0
 10
-105.28006106781265
 20
-26.24738105538279
 30
0.0
  0
CIRCLE
  5
BE
330
2F
100
AcDbEntity
  8
0
  6
Continuous
 62
7
370
25
100
AcDbCircle
 10
70.0
 20
-21.999478458
 30
0.0
 40
3.968750000000179
  0
CIRCLE
  5
BF
330
2F
100
AcDbEntity
  8
0
  6
Continuous
 62
7
370
25
100
AcDbCircle
 10
70.0
 20
-21.999478458
 30
0.0
 40
6.350000000000066
  0
SPLINE
  5
C0
330
2F
100
AcDbEntity
  8
0
  6
Continuous
 62
7
370
25
100
AcDbSpline
 70
24
 71
3
 72
10
 73
6
 74
0
 42
1e-08
 43
1e-08
 40
0.0
 40
0.0
 40
0.0
 40
0.0
 40
0.4299704356253956
 40
0.870060203576572
 40
1.0
 40
1.0
 40
1.0
 40
1.0
 10
62.82753335976099
 20
-20.476633873755958
 30
0.0
 10
63.167160769975
 20
-20.099266314313983
 30
0.0
 10
63.854408704221896
 20
-19.335649869118825
 30
0.0
 10
64.69153876445398
 20
-18.405496064496912
 30
0.0
 10
65.17080990259797
 20
-17.872967257122475
 30
0.0
 10
65.28006106782595
 20
-17.751575860702957
 30
0.0
  0
SPLINE
  5
C1
330
2F
100
AcDbEntity
  8
0
  6
Continuous
 62
7
370
25
100
AcDbSpline
 70
24
 71
3
 72
10
 73
6
 74
0
 42
1e-08
 43
1e-08
 40
0.0
 40
0.0
 40
0.0
 40
0.0
 40
0.2637144629425242
 40
0.6277042298441463
 40
1.0
 40
1.0
 40
1.0
 40
1.0
 10
62.82753335976099
 20
-20.476633873755958
 30
0.0
 10
62.923356470108956
 20
-20.77131829928804
 30
0.0
 10
63.151438657984954
 20
-21.47273853355102
 30
0.0
 10
63.52990136385006
 20
-22.63662336945566
 30
0.0
 10
63.816382508957986
 20
-23.51763768181784
 30
0.0
 10
63.96123897181792
 20
-23.96311417895241
 30
0.0
  0
SPLINE
  5
C2
330
2F
100
AcDbEntity
  8
0
  6
Continuous
 62
7
370
25
100
AcDbSpline
 70
24
 71
3
 72
10
 73
6
 74
0
 42
1e-08
 43
1e-08
 40
0.0
 40
0.0
 40
0.0
 40
0.0
 40
0.3701669572286355
 40
0.7503638824944638
 40
0.9999999999999999
 40
0.9999999999999999
 40
0.9999999999999999
 40
0.9999999999999999
 10
68.68117790399901
 20
-28.21101677629227
 30
0.0
 10
68.22559032822392
 20
-28.11428728179123
 30
0.0
 10
67.30207066905791
 20
-27.91820733022305
 30
0.0
 10
66.10535191178792
 20
-27.66412226160836
 30
0.0
 10
65.3817473210629
 20
-27.51048790017861
 30
0.0
 10
65.09494458387599
 20
-27.44959448414886
 30
0.0
  0
SPLINE
  5
C3
330
2F
100
AcDbEntity
  8
0
  6
Continuous
 62
7
370
25
100
AcDbSpline
 70
24
 71
3
 72
11
 73
7
 74
0
 42
1e-08
 43
1e-08
 40
0.0
 40
0.0
 40
0.0
 40
0.0
 40
0.1153793756467504
 40
0.5050242257266063
 40
0.9047550947299364
 40
1.0
 40
1.0
 40
1.0
 40
1.0
 10
63.96123897181792
 20
-23.96311417895241
 30
0.0
 10
64.00610125526191
 20
-24.10107897864
 30
0.0
 10
64.20246685208895
 20
-24.70496130812212
 30
0.0
 10
64.55221878554607
 20
-25.78055202120925
 30
0.0
 10
64.88154556029508
 20
-26.793329325936888
 30
0.0
 10
65.06050802397499
 20
-27.34369187010577
 30
0.0
 10
65.09494458387599
 20
-27.44959448414886
 30
0.0
  0
SPLINE
  5
C4
330
2F
100
AcDbEntity
  8
0
  6
Continuous
 62
7
370
25
100
AcDbSpline
 70
24
 71
3
 72
10
 73
6
 74
0
 42
1e-08
 43
1e-08
 40
0.0
 40
0.0
 40
0.0
 40
0.0
 40
0.3701669572286487
 40
0.7503638824944502
 40
1.0
 40
1.0
 40
1.0
 40
1.0
 10
65.28006106782595
 20
-17.751575860702957
 30
0.0
 10
65.59162505524591
 20
-17.405390193684195
 30
0.0
 10
66.2231951040601
 20
-16.70363868373601
 30
0.0
 10
67.04159860683808
 20
-15.79429237306191
 30
0.0
 10
67.53645216209293
 20
-15.244449595914043
 30
0.0
 10
67.73258877589205
 20
-15.026517847649936
 30
0.0
  0
SPLINE
  5
C5
330
2F
100
AcDbEntity
  8
0
  6
Continuous
 62
7
370
25
100
AcDbSpline
 70
24
 71
3
 72
10
 73
6
 74
0
 42
1e-08
 43
1e-08
 40
0.0
 40
0.0
 40
0.0
 40
0.0
 40
0.4299704356253834
 40
0.8700602035765119
 40
1.0
 40
1.0
 40
1.0
 40
1.0
 10
67.73258877589205
 20
-15.026517847649934
 30
0.0
 10
68.22921237403898
 20
-15.131960032995906
 30
0.0
 10
69.23414758145009
 20
-15.345325980155113
 30
0.0
 10
70.45824943579396
 20
-15.605224976275196
 30
0.0
 10
71.1590684803009
 20
-15.754021553522726
 30
0.0
 10
71.31882209601508
 20
-15.78794013979337
 30
0.0
  0
SPLINE
  5
C6
330
2F
100
AcDbEntity
  8
0
  6
Continuous
 62
7
370
25
100
AcDbSpline
 70
24
 71
3
 72
10
 73
6
 74
0
 42
1e-08
 43
1e-08
 40
0.0
 40
0.0
 40
0.0
 40
0.0
 40
0.3701669572286475
 40
0.7503638824944476
 40
1.0
 40
1.0
 40
1.0
 40
1.0
 10
74.719938932187
 20
-26.24738105538269
 30
0.0
 10
74.40837494476705
 20
-26.593566722401448
 30
0.0
 10
73.77680489595309
 20
-27.29531823234964
 30
0.0
 10
72.95840139317511
 20
-28.20466454302373
 30
0.0
 10
72.46354783792003
 20
-28.754507320171598
 30
0.0
 10
72.26741122412204
 20
-28.97243906843571
 30
0.0
  0
SPLINE
  5
C7
330
2F
100
AcDbEntity
  8
0
  6
Continuous
 62
7
370
25
100
AcDbSpline
 70
24
 71
3
 72
10
 73
6
 74
0
 42
1e-08
 43
1e-08
 40
0.0
 40
0.0
 40
0.0
 40
0.0
 40
0.4299704356253837
 40
0.8700602035765123
 40
1.0
 40
1.0
 40
1.0
 40
1.0
 10
72.26741122412204
 20
-28.97243906843571
 30
0.0
 10
71.77078762597398
 20
-28.86699688308974
 30
0.0
 10
70.7658524185631
 20
-28.65363093593053
 30
0.0
 10
69.541750564219
 20
-28.39373193981044
 30
0.0
 10
68.84093151971297
 20
-28.24493536256291
 30
0.0
 10
68.6811779039981
 20
-28.21101677629227
 30
0.0
  0
SPLINE
  5
C8
330
2F
100
AcDbEntity
  8
0
  6
Continuous
 62
7
370
25
100
AcDbSpline
 70
24
 71
3
 72
10
 73
6
 74
0
 42
1e-08
 43
1e-08
 40
0.0
 40
0.0
 40
0.0
 40
0.0
 40
0.3701669572286359
 40
0.7503638824944643
 40
1.0
 40
1.0
 40
1.0
 40
1.0
 10
71.31882209601508
 20
-15.78794013979337
 30
0.0
 10
71.77440967178904
 20
-15.884669634294413
 30
0.0
 10
72.69792933095505
 20
-16.08074958586259
 30
0.0
 10
73.89464808822504
 20
-16.33483465447727
 30
0.0
 10
74.61825267895006
 20
-16.48846901590703
 30
0.0
 10
74.90505541613697
 20
-16.549362431936796
 30
0.0
  0
SPLINE
  5
C9
330
2F
100
AcDbEntity
  8
0
  6
Continuous
 62
7
370
25
100
AcDbSpline
 70
24
 71
3
 72
10
 73
6
 74
0
 42
1e-08
 43
1e-08
 40
0.0
 40
0.0
 40
0.0
 40
0.0
 40
0.2637144629425252
 40
0.6277042298441468
 40
0.9999999999999999
 40
0.9999999999999999
 40
0.9999999999999999
 40
0.9999999999999999
 10
74.90505541613697
 20
-16.549362431936796
 30
0.0
 10
75.00087852648608
 20
-16.844046857468882
 30
0.0
 10
75.22896071436094
 20
-17.545467091731865
 30
0.0
 10
75.60742342022809
 20
-18.709351927636508
 30
0.0
 10
75.8939045653351
 20
-19.59036623999868
 30
0.0
 10
76.03876102819504
 20
-20.035842737133247
 30
0.0
  0
SPLINE
  5
CA
330
2F
100
AcDbEntity
  8
0
  6
Continuous
 62
7
370
25
100
AcDbSpline
 70
24
 71
3
 72
11
 73
7
 74
0
 42
1e-08
 43
1e-08
 40
0.0
 40
0.0
 40
0.0
 40
0.0
 40
0.1153793756467519
 40
0.5050242257266094
 40
0.9047550947299424
 40
0.9999999999999999
 40
0.9999999999999999
 40
0.9999999999999999
 40
0.9999999999999999
 10
76.03876102819504
 20
-20.035842737133247
 30
0.0
 10
76.0836233116379
 20
-20.173807536820842
 30
0.0
 10
76.27998890846607
 20
-20.77768986630297
 30
0.0
 10
76.6297408419241
 20
-21.85328057939011
 30
0.0
 10
76.95906761667106
 20
-22.86605788411772
 30
0.0
 10
77.13803008035211
 20
-23.4164204282866
 30
0.0
 10
77.17246664025197
 20
-23.52232304232968
 30
0.0
  0
SPLINE
  5
CB
330
2F
100
AcDbEntity
  8
0
  6
Continuous
 62
7
370
25
100
AcDbSpline
 70
24
 71
3
 72
10
 73
6
 74
0
 42
1e-08
 43
1e-08
 40
0.0
 40
0.0
 40
0.0
 40
0.0
 40
0.4299704356253951
 40
0.8700602035765709
 40
0.9999999999999999
 40
0.9999999999999999
 40
0.9999999999999999
 40
0.9999999999999999
 10
77.17246664025197
 20
-23.52232304232968
 30
0.0
 10
76.83283923003796
 20
-23.89969060177165
 30
0.0
 10
76.14559129579106
 20
-24.663307046966807
 30
0.0
 10
75.30846123556103
 20
-25.593460851588738
 30
0.0
 10
74.829190097415
 20
-26.12598965896316
 30
0.0
 10
74.719938932187
 20
-26.24738105538269
 30
0.0
  0
CIRCLE
  5
CC
330
2F
100
AcDbEntity
  8
0
  6
Continuous
 62
7
370
25
100
AcDbCircle
 10
-70.0
 20
22.000521541999998
 30
0.0
 40
3.968750000000127
  0
CIRCLE
  5
CD
330
2F
100
AcDbEntity
  8
0
  6
Continuous
 62
7
370
25
100
AcDbCircle
 10
-70.0
 20
22.000521541999998
 30
0.0
 40
6.350000000000024
  0
SPLINE
  5
CE
330
2F
100
AcDbEntity
  8
0
  6
Continuous
 62
7
370
25
100
AcDbSpline
 70
24
 71
3
 72
10
 73
6
 74
0
 42
1e-08
 43
1e-08
 40
0.0
 40
0.0
 40
0.0
 40
0.0
 40
0.4299704356254065
 40
0.8700602035765358
 40
1.0
 40
1.0
 40
1.0
 40
1.0
 10
-77.17246664023912
 20
23.52336612624394
 30
0.0
 10
-76.83283923002512
 20
23.900733685685868
 30
0.0
 10
-76.14559129577765
 20
24.664350130880923
 30
0.0
 10
-75.30846123554704
 20
25.594503935503187
 30
0.0
 10
-74.82919009740158
 20
26.12703274287743
 30
0.0
 10
-74.7199389321737
 20
26.24842413929694
 30
0.0
  0
SPLINE
  5
CF
330
2F
100
AcDbEntity
  8
0
  6
Continuous
 62
7
370
25
100
AcDbSpline
 70
24
 71
3
 72
10
 73
6
 74
0
 42
1e-08
 43
1e-08
 40
0.0
 40
0.0
 40
0.0
 40
0.0
 40
0.2637144629425243
 40
0.6277042298441466
 40
0.9999999999999999
 40
0.9999999999999999
 40
0.9999999999999999
 40
0.9999999999999999
 10
-77.17246664023912
 20
23.52336612624394
 30
0.0
 10
-77.07664352989093
 20
23.228681700711864
 30
0.0
 10
-76.84856134201505
 20
22.52726146644888
 30
0.0
 10
-76.47009863614971
 20
21.363376630544213
 30
0.0
 10
-76.18361749104156
 20
20.48236231818205
 30
0.0
 10
-76.03876102818163
 20
20.03688582104749
 30
0.0
  0
SPLINE
  5
D0
330
2F
100
AcDbEntity
  8
0
  6
Continuous
 62
7
370
25
100
AcDbSpline
 70
24
 71
3
 72
10
 73
6
 74
0
 42
1e-08
 43
1e-08
 40
0.0
 40
0.0
 40
0.0
 40
0.0
 40
0.3701669572286534
 40
0.7503638824944711
 40
0.9999999999999999
 40
0.9999999999999999
 40
0.9999999999999999
 40
0.9999999999999999
 10
-71.3188220960011
 20
15.788983223707621
 30
0.0
 10
-71.77440967177574
 20
15.885712718208662
 30
0.0
 10
-72.69792933094186
 20
16.08179266977682
 30
0.0
 10
-73.89464808821197
 20
16.33587773839153
 30
0.0
 10
-74.61825267893698
 20
16.48951209982128
 30
0.0
 10
-74.90505541612401
 20
16.55040551585104
 30
0.0
  0
SPLINE
  5
D1
330
2F
100
AcDbEntity
  8
0
  6
Continuous
 62
7
370
25
100
AcDbSpline
 70
24
 71
3
 72
11
 73
7
 74
0
 42
1e-08
 43
1e-08
 40
0.0
 40
0.0
 40
0.0
 40
0.0
 40
0.1153793756467504
 40
0.5050242257266061
 40
0.9047550947299277
 40
0.9999999999999999
 40
0.9999999999999999
 40
0.9999999999999999
 40
0.9999999999999999
 10
-76.03876102818163
 20
20.03688582104749
 30
0.0
 10
-75.99389874473809
 20
19.8989210213599
 30
0.0
 10
-75.79753314791083
 20
19.29503869187778
 30
0.0
 10
-75.44778121445324
 20
18.21944797879068
 30
0.0
 10
-75.11845443970515
 20
17.206670674062952
 30
0.0
 10
-74.93949197602478
 20
16.65630812989412
 30
0.0
 10
-74.90505541612413
 20
16.55040551585104
 30
0.0
  0
SPLINE
  5
D2
330
2F
100
AcDbEntity
  8
0
  6
Continuous
 62
7
370
25
100
AcDbSpline
 70
24
 71
3
 72
10
 73
6
 74
0
 42
1e-08
 43
1e-08
 40
0.0
 40
0.0
 40
0.0
 40
0.0
 40
0.3701669572286363
 40
0.7503638824944635
 40
1.0
 40
1.0
 40
1.0
 40
1.0
 10
-74.7199389321737
 20
26.24842413929694
 30
0.0
 10
-74.40837494475329
 20
26.594609806315713
 30
0.0
 10
-73.77680489593945
 20
27.29636131626395
 30
0.0
 10
-72.95840139316192
 20
28.205707626937897
 30
0.0
 10
-72.46354783790673
 20
28.75555040408585
 30
0.0
 10
-72.26741122410817
 20
28.973482152349963
 30
0.0
  0
SPLINE
  5
D3
330
2F
100
AcDbEntity
  8
0
  6
Continuous
 62
7
370
25
100
AcDbSpline
 70
24
 71
3
 72
10
 73
6
 74
0
 42
1e-08
 43
1e-08
 40
0.0
 40
0.0
 40
0.0
 40
0.0
 40
0.4299704356253956
 40
0.8700602035765371
 40
1.0
 40
1.0
 40
1.0
 40
1.0
 10
-72.26741122410817
 20
28.973482152349963
 30
0.0
 10
-71.77078762596011
 20
28.86803996700399
 30
0.0
 10
-70.76585241854968
 20
28.654674019844787
 30
0.0
 10
-69.54175056420581
 20
28.3947750237247
 30
0.0
 10
-68.84093151969921
 20
28.245978446477178
 30
0.0
 10
-68.68117790398526
 20
28.212059860206534
 30
0.0
  0
SPLINE
  5
D4
330
2F
100
AcDbEntity
  8
0
  6
Continuous
 62
7
370
25
100
AcDbSpline
 70
24
 71
3
 72
10
 73
6
 74
0
 42
1e-08
 43
1e-08
 40
0.0
 40
0.0
 40
0.0
 40
0.0
 40
0.3701669572286349
 40
0.7503638824944613
 40
1.0
 40
1.0
 40
1.0
 40
1.0
 10
-65.28006106781254
 20
17.75261894461721
 30
0.0
 10
-65.59162505523295
 20
17.406433277598442
 30
0.0
 10
-66.22319510404714
 20
16.70468176765019
 30
0.0
 10
-67.04159860682421
 20
15.79533545697624
 30
0.0
 10
-67.53645216207963
 20
15.245492679828299
 30
0.0
 10
-67.73258877587818
 20
15.027560931564182
 30
0.0
  0
SPLINE
  5
D5
330
2F
100
AcDbEntity
  8
0
  6
Continuous
 62
7
370
25
100
AcDbSpline
 70
24
 71
3
 72
10
 73
6
 74
0
 42
1e-08
 43
1e-08
 40
0.0
 40
0.0
 40
0.0
 40
0.0
 40
0.4299704356253962
 40
0.8700602035765375
 40
1.0
 40
1.0
 40
1.0
 40
1.0
 10
-67.73258877587807
 20
15.027560931564189
 30
0.0
 10
-68.2292123740259
 20
15.13300311691016
 30
0.0
 10
-69.23414758143588
 20
15.346369064069389
 30
0.0
 10
-70.45824943578134
 20
15.6062680601894
 30
0.0
 10
-71.15906848028703
 20
15.75506463743698
 30
0.0
 10
-71.3188220960011
 20
15.788983223707621
 30
0.0
  0
SPLINE
  5
D6
330
2F
100
AcDbEntity
  8
0
  6
Continuous
 62
7
370
25
100
AcDbSpline
 70
24
 71
3
 72
10
 73
6
 74
0
 42
1e-08
 43
1e-08
 40
0.0
 40
0.0
 40
0.0
 40
0.0
 40
0.3701669572286539
 40
0.7503638824944716
 40
1.0
 40
1.0
 40
1.0
 40
1.0
 10
-68.68117790398526
 20
28.212059860206534
 30
0.0
 10
-68.22559032821061
 20
28.115330365705493
 30
0.0
 10
-67.30207066904461
 20
27.91925041413732
 30
0.0
 10
-66.10535191177394
 20
27.66516534552265
 30
0.0
 10
-65.38174732104915
 20
27.511530984092868
 30
0.0
 10
-65.09494458386212
 20
27.450637568063097
 30
0.0
  0
SPLINE
  5
D7
330
2F
100
AcDbEntity
  8
0
  6
Continuous
 62
7
370
25
100
AcDbSpline
 70
24
 71
3
 72
10
 73
6
 74
0
 42
1e-08
 43
1e-08
 40
0.0
 40
0.0
 40
0.0
 40
0.0
 40
0.263714462942526
 40
0.6277042298441557
 40
0.9999999999999999
 40
0.9999999999999999
 40
0.9999999999999999
 40
0.9999999999999999
 10
-65.09494458386223
 20
27.450637568063097
 30
0.0
 10
-64.99912147351415
 20
27.155953142531008
 30
0.0
 10
-64.7710392856385
 20
26.45453290826801
 30
0.0
 10
-64.39257657977214
 20
25.290648072363428
 30
0.0
 10
-64.10609543466455
 20
24.409633760001217
 30
0.0
 10
-63.96123897180473
 20
23.964157262866653
 30
0.0
  0
SPLINE
  5
D8
330
2F
100
AcDbEntity
  8
0
  6
Continuous
 62
7
370
25
100
AcDbSpline
 70
24
 71
3
 72
11
 73
7
 74
0
 42
1e-08
 43
1e-08
 40
0.0
 40
0.0
 40
0.0
 40
0.0
 40
0.1153793756467518
 40
0.5050242257266191
 40
0.9047550947299341
 40
1.0
 40
1.0
 40
1.0
 40
1.0
 10
-63.96123897180462
 20
23.964157262866653
 30
0.0
 10
-63.91637668836108
 20
23.82619246317906
 30
0.0
 10
-63.72001109153416
 20
23.222310133696897
 30
0.0
 10
-63.37025915807624
 20
22.146719420609887
 30
0.0
 10
-63.0409323833278
 20
21.13394211588211
 30
0.0
 10
-62.86196991964778
 20
20.58357957171329
 30
0.0
 10
-62.827533359747235
 20
20.47767695767021
 30
0.0
  0
SPLINE
  5
D9
330
2F
100
AcDbEntity
  8
0
  6
Continuous
 62
7
370
25
100
AcDbSpline
 70
24
 71
3
 72
10
 73
6
 74
0
 42
1e-08
 43
1e-08
 40
0.0
 40
0.0
 40
0.0
 40
0.0
 40
0.4299704356254055
 40
0.870060203576534
 40
1.0
 40
1.0
 40
1.0
 40
1.0
 10
-62.827533359747235
 20
20.47767695767021
 30
0.0
 10
-63.16716076996147
 20
20.10030939822827
 30
0.0
 10
-63.854408704208936
 20
19.33669295303322
 30
0.0
 10
-64.69153876443875
 20
18.40653914841098
 30
0.0
 10
-65.17080990258489
 20
17.87401034103672
 30
0.0
 10
-65.28006106781265
 20
17.75261894461721
 30
0.0
  0
CIRCLE
  5
DA
330
2F
100
AcDbEntity
  8
0
  6
Continuous
 62
7
370
25
100
AcDbCircle
 10
-70.0
 20
22.000521541999998
 30
0.0
 40
3.129280000000049
  0
SPLINE
  5
DB
330
2F
100
AcDbEntity
  8
0
  6
Continuous
 62
7
370
25
100
AcDbSpline
 70
8
 71
3
 72
10
 73
6
 74
0
 42
1e-08
 43
1e-08
 40
0.0
 40
0.0
 40
0.0
 40
0.0
 40
0.0700757962771842
 40
0.5307770882938114
 40
1.0
 40
1.0
 40
1.0
 40
1.0
 10
17.305081909074033
 20
-61.96847845804291
 30
0.0
 10
17.22641185538896
 20
-61.96780153189481
 30
0.0
 10
16.630539039827
 20
-61.962674271000736
 30
0.0
 10
15.50703461983403
 20
-61.838809395142334
 30
0.0
 10
14.495732368387053
 20
-61.548037544063305
 30
0.0
 10
13.985447567606002
 20
-61.4013193340637
 30
0.0
  0
SPLINE
  5
DC
330
2F
100
AcDbEntity
  8
0
  6
Continuous
 62
7
370
25
100
AcDbSpline
 70
8
 71
3
 72
9
 73
5
 74
0
 42
1e-08
 43
1e-08
 40
0.0
 40
0.0
 40
0.0
 40
0.0
 40
0.4954579634770144
 40
1.0
 40
1.0
 40
1.0
 40
1.0
 10
20.62471625054195
 20
-61.4013193340637
 30
0.0
 10
20.08559303956997
 20
-61.559839183458976
 30
0.0
 10
18.997461955375
 20
-61.879785296107585
 30
0.0
 10
17.872614656184965
 20
-61.93873556787287
 30
0.0
 10
17.305081909074033
 20
-61.96847845804291
 30
0.0
  0
SPLINE
  5
DD
330
2F
100
AcDbEntity
  8
0
  6
Continuous
 62
7
370
25
100
AcDbSpline
 70
8
 71
3
 72
10
 73
6
 74
0
 42
1e-08
 43
1e-08
 40
0.0
 40
0.0
 40
0.0
 40
0.0
 40
0.0700757962772262
 40
0.5307770882938134
 40
0.9999999999999999
 40
0.9999999999999999
 40
0.9999999999999999
 40
0.9999999999999999
 10
23.631992466741963
 20
-61.96847845804291
 30
0.0
 10
23.56072480378998
 20
-61.967801531894835
 30
0.0
 10
23.020920125987004
 20
-61.96267427100071
 30
0.0
 10
22.003130883710014
 20
-61.838809395142334
 30
0.0
 10
21.086986243868978
 20
-61.548037544063305
 30
0.0
 10
20.62471625054195
 20
-61.4013193340637
 30
0.0
  0
SPLINE
  5
DE
330
2F
100
AcDbEntity
  8
0
  6
Continuous
 62
7
370
25
100
AcDbSpline
 70
8
 71
3
 72
9
 73
5
 74
0
 42
1e-08
 43
1e-08
 40
0.0
 40
0.0
 40
0.0
 40
0.0
 40
0.4954579634770344
 40
0.9999999999999999
 40
0.9999999999999999
 40
0.9999999999999999
 40
0.9999999999999999
 10
26.63926868294311
 20
-61.401319334063714
 30
0.0
 10
26.150873804717094
 20
-61.559839183458976
 30
0.0
 10
25.1651294747669
 20
-61.87978529610757
 30
0.0
 10
24.14612371034991
 20
-61.938735567872854
 30
0.0
 10
23.631992466741963
 20
-61.96847845804291
 30
0.0
  0
SPLINE
  5
DF
330
2F
100
AcDbEntity
  8
0
  6
Continuous
 62
7
370
25
100
AcDbSpline
 70
8
 71
3
 72
9
 73
5
 74
0
 42
1e-08
 43
1e-08
 40
0.0
 40
0.0
 40
0.0
 40
0.0
 40
0.7681507275779909
 40
1.0
 40
1.0
 40
1.0
 40
1.0
 10
13.985447567606002
 20
-61.4013193340637
 30
0.0
 10
13.906310213227016
 20
-61.63326489397825
 30
0.0
 10
13.803287002368052
 20
-61.93521808049134
 30
0.0
 10
13.697594233825043
 20
-61.96221844351966
 30
0.0
 10
13.673089442337982
 20
-61.96847845804291
 30
0.0
  0
SPLINE
  5
E0
330
2F
100
AcDbEntity
  8
0
  6
Continuous
 62
7
370
25
100
AcDbSpline
 70
8
 71
3
 72
10
 73
6
 74
0
 42
1e-08
 43
1e-08
 40
0.0
 40
0.0
 40
0.0
 40
0.0
 40
0.0700757962772083
 40
0.530777088293825
 40
1.0
 40
1.0
 40
1.0
 40
1.0
 10
-17.41470141901118
 20
-61.96847845804291
 30
0.0
 10
-17.494057164165383
 20
-61.96780153189479
 30
0.0
 10
-18.095123632047148
 20
-61.96267427100072
 30
0.0
 10
-19.228420563434952
 20
-61.83880939514236
 30
0.0
 10
-20.2485373674956
 20
-61.548037544063305
 30
0.0
 10
-20.763269831889147
 20
-61.401319334063714
 30
0.0
  0
SPLINE
  5
E1
330
2F
100
AcDbEntity
  8
0
  6
Continuous
 62
7
370
25
100
AcDbSpline
 70
8
 71
3
 72
9
 73
5
 74
0
 42
1e-08
 43
1e-08
 40
0.0
 40
0.0
 40
0.0
 40
0.0
 40
0.495457963477006
 40
0.9999999999999999
 40
0.9999999999999999
 40
0.9999999999999999
 40
0.9999999999999999
 10
-14.0661330061331
 20
-61.401319334063714
 30
0.0
 10
-14.609955237502732
 20
-61.559839183458976
 30
0.0
 10
-15.707570517622571
 20
-61.879785296107585
 30
0.0
 10
-16.842222032799782
 20
-61.93873556787287
 30
0.0
 10
-17.41470141901118
 20
-61.96847845804291
 30
0.0
  0
SPLINE
  5
E2
330
2F
100
AcDbEntity
  8
0
  6
Continuous
 62
7
370
25
100
AcDbSpline
 70
8
 71
3
 72
9
 73
5
 74
0
 42
1e-08
 43
1e-08
 40
0.0
 40
0.0
 40
0.0
 40
0.0
 40
0.4954579634770164
 40
1.0
 40
1.0
 40
1.0
 40
1.0
 10
-20.763269831889147
 20
-61.401319334063714
 30
0.0
 10
-21.245112875149175
 20
-61.559839183458976
 30
0.0
 10
-22.21763340923951
 20
-61.8797852961076
 30
0.0
 10
-23.2229691744501
 20
-61.93873556787288
 30
0.0
 10
-23.730203328819016
 20
-61.96847845804291
 30
0.0
  0
SPLINE
  5
E3
330
2F
100
AcDbEntity
  8
0
  6
Continuous
 62
7
370
25
100
AcDbSpline
 70
8
 71
3
 72
10
 73
6
 74
0
 42
1e-08
 43
1e-08
 40
0.0
 40
0.0
 40
0.0
 40
0.0
 40
0.0700757962772228
 40
0.5307770882938346
 40
0.9999999999999999
 40
0.9999999999999999
 40
0.9999999999999999
 40
0.9999999999999999
 10
-23.730203328819016
 20
-61.96847845804291
 30
0.0
 10
-23.80051493349356
 20
-61.96780153189482
 30
0.0
 10
-24.333078112009275
 20
-61.96267427100075
 30
0.0
 10
-25.33721367476835
 20
-61.83880939514236
 30
0.0
 10
-26.241068201110807
 20
-61.54803754406332
 30
0.0
 10
-26.697136825748885
 20
-61.401319334063714
 30
0.0
  0
SPLINE
  5
E4
330
2F
100
AcDbEntity
  8
0
  6
Continuous
 62
7
370
25
100
AcDbSpline
 70
8
 71
3
 72
9
 73
5
 74
0
 42
1e-08
 43
1e-08
 40
0.0
 40
0.0
 40
0.0
 40
0.0
 40
0.2318492724220096
 40
1.0
 40
1.0
 40
1.0
 40
1.0
 10
-13.684498090185002
 20
-61.96847845804291
 30
0.0
 10
-13.714437711673781
 20
-61.962218443519674
 30
0.0
 10
-13.843571701080691
 20
-61.93521808049134
 30
0.0
 10
-13.969444061157787
 20
-61.63326489397825
 30
0.0
 10
-14.0661330061331
 20
-61.401319334063714
 30
0.0
  0
SPLINE
  5
E5
330
2F
100
AcDbEntity
  8
0
  6
Continuous
 62
7
370
25
100
AcDbSpline
 70
8
 71
3
 72
9
 73
5
 74
0
 42
1e-08
 43
1e-08
 40
0.0
 40
0.0
 40
0.0
 40
0.0
 40
0.7681507275779901
 40
1.0
 40
1.0
 40
1.0
 40
1.0
 10
-26.697136825748885
 20
-61.401319334063714
 30
0.0
 10
-26.60044788077346
 20
-61.633264893978264
 30
0.0
 10
-26.474575520696135
 20
-61.93521808049137
 30
0.0
 10
-26.345441531289794
 20
-61.962218443519674
 30
0.0
 10
-26.315501909800787
 20
-61.96847845804291
 30
0.0
  0
CIRCLE
  5
E6
330
2F
100
AcDbEntity
  8
0
  6
Continuous
 62
7
370
25
100
AcDbCircle
 10
-110.0
 20
22.000521541999998
 30
0.0
 40
3.129279999999933
  0
CIRCLE
  5
E7
330
2F
100
AcDbEntity
  8
0
  6
Continuous
 62
7
370
25
100
AcDbCircle
 10
-110.0
 20
-21.999478458
 30
0.0
 40
3.129279999999934
  0
CIRCLE
  5
E8
330
2F
100
AcDbEntity
  8
0
  6
Continuous
 62
7
370
25
100
AcDbCircle
 10
-30.0
 20
22.000521541999998
 30
0.0
 40
3.129279999999933
  0
CIRCLE
  5
E9
330
2F
100
AcDbEntity
  8
0
  6
Continuous
 62
7
370
25
100
AcDbCircle
 10
110.0
 20
22.000521541999998
 30
0.0
 40
3.129279999999889
  0
CIRCLE
  5
EA
330
2F
100
AcDbEntity
  8
0
  6
Continuous
 62
7
370
25
100
AcDbCircle
 10
30.0
 20
22.000521541999998
 30
0.0
 40
3.12928000000003
  0
CIRCLE
  5
EB
330
2F
100
AcDbEntity
  8
0
  6
Continuous
 62
7
370
25
100
AcDbCircle
 10
30.0
 20
-21.999478458
 30
0.0
 40
3.129280000000031
  0
CIRCLE
  5
EC
330
2F
100
AcDbEntity
  8
0
  6
Continuous
 62
7
370
25
100
AcDbCircle
 10
70.0
 20
22.000521541999998
 30
0.0
 40
3.129279999999889
  0
CIRCLE
  5
ED
330
2F
100
AcDbEntity
  8
0
  6
Continuous
 62
7
370
25
100
AcDbCircle
 10
70.0
 20
-21.999478458
 30
0.0
 40
3.12927999999989
  0
CIRCLE
  5
EE
330
2F
100
AcDbEntity
  8
0
  6
Continuous
 62
7
370
25
100
AcDbCircle
 10
-30.0
 20
-21.999478458
 30
0.0
 40
3.129279999999934
  0
CIRCLE
  5
EF
330
2F
100
AcDbEntity
  8
0
  6
Continuous
 62
7
370
25
100
AcDbCircle
 10
-70.0
 20
-21.999478458
 30
0.0
 40
3.12928000000005
  0
CIRCLE
  5
F0
330
2F
100
AcDbEntity
  8
0
  6
Continuous
 62
7
370
25
100
AcDbCircle
 10
110.0
 20
-21.999478458
 30
0.0
 40
3.12927999999989
  0
LINE
  5
F1
330
2F
100
AcDbEntity
  8
0
  6
Continuous
 62
7
370
25
100
AcDbLine
 10
-30.0
 20
-54.399278458
 30
0.0
 11
-30.0
 21
-55.999478458
 31
0.0
  0
LINE
  5
F2
330
2F
100
AcDbEntity
  8
0
  6
Continuous
 62
7
370
25
100
AcDbLine
 10
-10.0
 20
-55.999478458
 30
0.0
 11
-10.0
 21
-54.399278458
 31
0.0
  0
LINE
  5
F3
330
2F
100
AcDbEntity
  8
0
  6
Continuous
 62
7
370
25
100
AcDbLine
 10
10.0
 20
-54.399278458
 30
0.0
 11
10.0
 21
-55.999478458
 31
0.0
  0
LINE
  5
F4
330
2F
100
AcDbEntity
  8
0
  6
Continuous
 62
7
370
25
100
AcDbLine
 10
30.0
 20
-55.999478458
 30
0.0
 11
30.0
 21
-54.399278458
 31
0.0
  0
LINE
  5
F5
330
2F
100
AcDbEntity
  8
0
  6
Continuous
 62
7
370
25
100
AcDbLine
 10
16.03125
 20
-52.645029082099995
 30
0.0
 11
16.870720000000006
 21
-53.2328323042
 31
0.0
  0
LINE
  5
F6
330
2F
100
AcDbEntity
  8
0
  6
Continuous
 62
7
370
25
100
AcDbLine
 10
23.129279999999994
 20
-53.2328323042
 30
0.0
 11
23.96875
 21
-52.645029082099995
 31
0.0
  0
LINE
  5
F7
330
2F
100
AcDbEntity
  8
0
  6
Continuous
 62
7
370
25
100
AcDbLine
 10
23.96875
 20
-48.57419062059999
 30
0.0
 11
23.96875
 21
-48.392850910899995
 31
0.0
  0
LINE
  5
F8
330
2F
100
AcDbEntity
  8
0
  6
Continuous
 62
7
370
25
100
AcDbLine
 10
16.03125
 20
-48.392850910899995
 30
0.0
 11
16.03125
 21
-48.57419062059999
 31
0.0
  0
LINE
  5
F9
330
2F
100
AcDbEntity
  8
0
  6
Continuous
 62
7
370
25
100
AcDbLine
 10
16.03125
 20
-47.217244466699995
 30
0.0
 11
16.870720000000006
 21
-47.8050476888
 31
0.0
  0
LINE
  5
FA
330
2F
100
AcDbEntity
  8
0
  6
Continuous
 62
7
370
25
100
AcDbLine
 10
23.129279999999994
 20
-47.8050476888
 30
0.0
 11
23.96875
 21
-47.217244466699995
 31
0.0
  0
LINE
  5
FB
330
2F
100
AcDbEntity
  8
0
  6
Continuous
 62
7
370
25
100
AcDbLine
 10
23.96875
 20
-54.001975235900005
 30
0.0
 11
23.96875
 21
-53.820635526299995
 31
0.0
  0
LINE
  5
FC
330
2F
100
AcDbEntity
  8
0
  6
Continuous
 62
7
370
25
100
AcDbLine
 10
16.03125
 20
-53.820635526299995
 30
0.0
 11
16.03125
 21
-54.001975235900005
 31
0.0
  0
LINE
  5
FD
330
2F
100
AcDbEntity
  8
0
  6
Continuous
 62
7
370
25
100
AcDbLine
 10
23.96875
 20
-53.820635526299995
 30
0.0
 11
23.129279999999994
 21
-53.2328323042
 31
0.0
  0
LINE
  5
FE
330
2F
100
AcDbEntity
  8
0
  6
Continuous
 62
7
370
25
100
AcDbLine
 10
16.870720000000006
 20
-53.2328323042
 30
0.0
 11
16.03125
 21
-53.820635526299995
 31
0.0
  0
LINE
  5
FF
330
2F
100
AcDbEntity
  8
0
  6
Continuous
 62
7
370
25
100
AcDbLine
 10
23.96875
 20
-49.749797064800006
 30
0.0
 11
23.129279999999994
 21
-49.1619938427
 31
0.0
  0
LINE
  5
100
330
2F
100
AcDbEntity
  8
0
  6
Continuous
 62
7
370
25
100
AcDbLine
 10
16.870720000000006
 20
-49.1619938427
 30
0.0
 11
16.03125
 21
-49.749797064800006
 31
0.0
  0
LINE
  5
101
330
2F
100
AcDbEntity
  8
0
  6
Continuous
 62
7
370
25
100
AcDbLine
 10
16.03125
 20
-48.57419062059999
 30
0.0
 11
16.870720000000006
 21
-49.1619938427
 31
0.0
  0
LINE
  5
102
330
2F
100
AcDbEntity
  8
0
  6
Continuous
 62
7
370
25
100
AcDbLine
 10
23.129279999999994
 20
-49.1619938427
 30
0.0
 11
23.96875
 21
-48.57419062059999
 31
0.0
  0
LINE
  5
103
330
2F
100
AcDbEntity
  8
0
  6
Continuous
 62
7
370
25
100
AcDbLine
 10
16.03125
 20
-54.001975235900005
 30
0.0
 11
16.598657804699997
 21
-54.399278458
 31
0.0
  0
LINE
  5
104
330
2F
100
AcDbEntity
  8
0
  6
Continuous
 62
7
370
25
100
AcDbLine
 10
23.401342195300003
 20
-54.399278458
 30
0.0
 11
23.96875
 21
-54.001975235900005
 31
0.0
  0
LINE
  5
105
330
2F
100
AcDbEntity
  8
0
  6
Continuous
 62
7
370
25
100
AcDbLine
 10
23.96875
 20
-51.2880829282
 30
0.0
 11
23.96875
 21
-51.1067432186
 31
0.0
  0
LINE
  5
106
330
2F
100
AcDbEntity
  8
0
  6
Continuous
 62
7
370
25
100
AcDbLine
 10
16.03125
 20
-51.1067432186
 30
0.0
 11
16.03125
 21
-51.2880829282
 31
0.0
  0
LINE
  5
107
330
2F
100
AcDbEntity
  8
0
  6
Continuous
 62
7
370
25
100
AcDbLine
 10
23.96875
 20
-52.645029082099995
 30
0.0
 11
23.96875
 21
-52.4636893725
 31
0.0
  0
LINE
  5
108
330
2F
100
AcDbEntity
  8
0
  6
Continuous
 62
7
370
25
100
AcDbLine
 10
16.03125
 20
-52.4636893725
 30
0.0
 11
16.03125
 21
-52.645029082099995
 31
0.0
  0
LINE
  5
109
330
2F
100
AcDbEntity
  8
0
  6
Continuous
 62
7
370
25
100
AcDbLine
 10
23.96875
 20
-49.9311367744
 30
0.0
 11
23.96875
 21
-49.749797064800006
 31
0.0
  0
LINE
  5
10A
330
2F
100
AcDbEntity
  8
0
  6
Continuous
 62
7
370
25
100
AcDbLine
 10
16.03125
 20
-49.749797064800006
 30
0.0
 11
16.03125
 21
-49.9311367744
 31
0.0
  0
LINE
  5
10B
330
2F
100
AcDbEntity
  8
0
  6
Continuous
 62
7
370
25
100
AcDbLine
 10
23.96875
 20
-51.1067432186
 30
0.0
 11
23.129279999999994
 21
-50.518939996499995
 31
0.0
  0
LINE
  5
10C
330
2F
100
AcDbEntity
  8
0
  6
Continuous
 62
7
370
25
100
AcDbLine
 10
16.870720000000006
 20
-50.518939996499995
 30
0.0
 11
16.03125
 21
-51.1067432186
 31
0.0
  0
LINE
  5
10D
330
2F
100
AcDbEntity
  8
0
  6
Continuous
 62
7
370
25
100
AcDbLine
 10
16.03125
 20
-49.9311367744
 30
0.0
 11
16.870720000000006
 21
-50.518939996499995
 31
0.0
  0
LINE
  5
10E
330
2F
100
AcDbEntity
  8
0
  6
Continuous
 62
7
370
25
100
AcDbLine
 10
23.129279999999994
 20
-50.518939996499995
 30
0.0
 11
23.96875
 21
-49.9311367744
 31
0.0
  0
LINE
  5
10F
330
2F
100
AcDbEntity
  8
0
  6
Continuous
 62
7
370
25
100
AcDbLine
 10
23.96875
 20
-47.0359047571
 30
0.0
 11
23.916727853699967
 21
-46.999478458
 31
0.0
  0
LINE
  5
110
330
2F
100
AcDbEntity
  8
0
  6
Continuous
 62
7
370
25
100
AcDbLine
 10
16.083272146399963
 20
-46.999478458
 30
0.0
 11
16.03125
 21
-47.0359047571
 31
0.0
  0
LINE
  5
111
330
2F
100
AcDbEntity
  8
0
  6
Continuous
 62
7
370
25
100
AcDbLine
 10
23.96875
 20
-52.4636893725
 30
0.0
 11
23.129279999999994
 21
-51.87588615040001
 31
0.0
  0
LINE
  5
112
330
2F
100
AcDbEntity
  8
0
  6
Continuous
 62
7
370
25
100
AcDbLine
 10
16.870720000000006
 20
-51.87588615040001
 30
0.0
 11
16.03125
 21
-52.4636893725
 31
0.0
  0
LINE
  5
113
330
2F
100
AcDbEntity
  8
0
  6
Continuous
 62
7
370
25
100
AcDbLine
 10
23.96875
 20
-48.392850910899995
 30
0.0
 11
23.129279999999994
 21
-47.8050476888
 31
0.0
  0
LINE
  5
114
330
2F
100
AcDbEntity
  8
0
  6
Continuous
 62
7
370
25
100
AcDbLine
 10
16.870720000000006
 20
-47.8050476888
 30
0.0
 11
16.03125
 21
-48.392850910899995
 31
0.0
  0
LINE
  5
115
330
2F
100
AcDbEntity
  8
0
  6
Continuous
 62
7
370
25
100
AcDbLine
 10
16.03125
 20
-51.2880829282
 30
0.0
 11
16.870720000000006
 21
-51.87588615040001
 31
0.0
  0
LINE
  5
116
330
2F
100
AcDbEntity
  8
0
  6
Continuous
 62
7
370
25
100
AcDbLine
 10
23.129279999999994
 20
-51.87588615040001
 30
0.0
 11
23.96875
 21
-51.2880829282
 31
0.0
  0
LINE
  5
117
330
2F
100
AcDbEntity
  8
0
  6
Continuous
 62
7
370
25
100
AcDbLine
 10
23.96875
 20
-47.217244466699995
 30
0.0
 11
23.96875
 21
-47.0359047571
 31
0.0
  0
LINE
  5
118
330
2F
100
AcDbEntity
  8
0
  6
Continuous
 62
7
370
25
100
AcDbLine
 10
16.03125
 20
-47.0359047571
 30
0.0
 11
16.03125
 21
-47.217244466699995
 31
0.0
  0
LINE
  5
119
330
2F
100
AcDbEntity
  8
0
  6
Continuous
 62
7
370
25
100
AcDbLine
 10
13.626826295
 20
-61.955099113200006
 30
0.0
 11
13.649999999999977
 21
-61.96847845799999
 31
0.0
  0
LINE
  5
11A
330
2F
100
AcDbEntity
  8
0
  6
Continuous
 62
7
370
25
100
AcDbLine
 10
-26.3846865342
 20
-61.9484521782
 30
0.0
 11
-26.350000000000023
 21
-61.96847845799999
 31
0.0
  0
LINE
  5
11B
330
2F
100
AcDbEntity
  8
0
  6
Continuous
 62
7
370
25
100
AcDbLine
 10
-23.96875
 20
-51.2880829282
 30
0.0
 11
-23.129279999999994
 21
-51.87588615040001
 31
0.0
  0
LINE
  5
11C
330
2F
100
AcDbEntity
  8
0
  6
Continuous
 62
7
370
25
100
AcDbLine
 10
-16.870720000000006
 20
-51.87588615040001
 30
0.0
 11
-16.03125
 21
-51.2880829282
 31
0.0
  0
LINE
  5
11D
330
2F
100
AcDbEntity
  8
0
  6
Continuous
 62
7
370
25
100
AcDbLine
 10
-16.03125
 20
-48.392850910899995
 30
0.0
 11
-16.870720000000006
 21
-47.8050476888
 31
0.0
  0
LINE
  5
11E
330
2F
100
AcDbEntity
  8
0
  6
Continuous
 62
7
370
25
100
AcDbLine
 10
-23.129279999999994
 20
-47.8050476888
 30
0.0
 11
-23.96875
 21
-48.392850910899995
 31
0.0
  0
LINE
  5
11F
330
2F
100
AcDbEntity
  8
0
  6
Continuous
 62
7
370
25
100
AcDbLine
 10
-23.96875
 20
-47.217244466699995
 30
0.0
 11
-23.129279999999994
 21
-47.8050476888
 31
0.0
  0
LINE
  5
120
330
2F
100
AcDbEntity
  8
0
  6
Continuous
 62
7
370
25
100
AcDbLine
 10
-16.870720000000006
 20
-47.8050476888
 30
0.0
 11
-16.03125
 21
-47.217244466699995
 31
0.0
  0
LINE
  5
121
330
2F
100
AcDbEntity
  8
0
  6
Continuous
 62
7
370
25
100
AcDbLine
 10
-16.03125
 20
-49.749797064800006
 30
0.0
 11
-16.870720000000006
 21
-49.1619938427
 31
0.0
  0
LINE
  5
122
330
2F
100
AcDbEntity
  8
0
  6
Continuous
 62
7
370
25
100
AcDbLine
 10
-23.129279999999994
 20
-49.1619938427
 30
0.0
 11
-23.96875
 21
-49.749797064800006
 31
0.0
  0
LINE
  5
123
330
2F
100
AcDbEntity
  8
0
  6
Continuous
 62
7
370
25
100
AcDbLine
 10
-16.03125
 20
-52.645029082099995
 30
0.0
 11
-16.03125
 21
-52.4636893725
 31
0.0
  0
LINE
  5
124
330
2F
100
AcDbEntity
  8
0
  6
Continuous
 62
7
370
25
100
AcDbLine
 10
-23.96875
 20
-52.4636893725
 30
0.0
 11
-23.96875
 21
-52.645029082099995
 31
0.0
  0
LINE
  5
125
330
2F
100
AcDbEntity
  8
0
  6
Continuous
 62
7
370
25
100
AcDbLine
 10
-16.03125
 20
-53.820635526299995
 30
0.0
 11
-16.870720000000006
 21
-53.2328323042
 31
0.0
  0
LINE
  5
126
330
2F
100
AcDbEntity
  8
0
  6
Continuous
 62
7
370
25
100
AcDbLine
 10
-23.129279999999994
 20
-53.2328323042
 30
0.0
 11
-23.96875
 21
-53.820635526299995
 31
0.0
  0
LINE
  5
127
330
2F
100
AcDbEntity
  8
0
  6
Continuous
 62
7
370
25
100
AcDbLine
 10
-16.03125
 20
-48.57419062059999
 30
0.0
 11
-16.03125
 21
-48.392850910899995
 31
0.0
  0
LINE
  5
128
330
2F
100
AcDbEntity
  8
0
  6
Continuous
 62
7
370
25
100
AcDbLine
 10
-23.96875
 20
-48.392850910899995
 30
0.0
 11
-23.96875
 21
-48.57419062059999
 31
0.0
  0
LINE
  5
129
330
2F
100
AcDbEntity
  8
0
  6
Continuous
 62
7
370
25
100
AcDbLine
 10
-16.03125
 20
-47.0359047571
 30
0.0
 11
-16.083272146300033
 21
-46.999478458
 31
0.0
  0
LINE
  5
12A
330
2F
100
AcDbEntity
  8
0
  6
Continuous
 62
7
370
25
100
AcDbLine
 10
-23.916727853600037
 20
-46.999478458
 30
0.0
 11
-23.96875
 21
-47.0359047571
 31
0.0
  0
LINE
  5
12B
330
2F
100
AcDbEntity
  8
0
  6
Continuous
 62
7
370
25
100
AcDbLine
 10
-23.96875
 20
-54.001975235900005
 30
0.0
 11
-23.401342195300003
 21
-54.399278458
 31
0.0
  0
LINE
  5
12C
330
2F
100
AcDbEntity
  8
0
  6
Continuous
 62
7
370
25
100
AcDbLine
 10
-16.598657804699997
 20
-54.399278458
 30
0.0
 11
-16.03125
 21
-54.001975235900005
 31
0.0
  0
LINE
  5
12D
330
2F
100
AcDbEntity
  8
0
  6
Continuous
 62
7
370
25
100
AcDbLine
 10
-16.03125
 20
-47.217244466699995
 30
0.0
 11
-16.03125
 21
-47.0359047571
 31
0.0
  0
LINE
  5
12E
330
2F
100
AcDbEntity
  8
0
  6
Continuous
 62
7
370
25
100
AcDbLine
 10
-23.96875
 20
-47.0359047571
 30
0.0
 11
-23.96875
 21
-47.217244466699995
 31
0.0
  0
LINE
  5
12F
330
2F
100
AcDbEntity
  8
0
  6
Continuous
 62
7
370
25
100
AcDbLine
 10
-16.03125
 20
-54.001975235900005
 30
0.0
 11
-16.03125
 21
-53.820635526299995
 31
0.0
  0
LINE
  5
130
330
2F
100
AcDbEntity
  8
0
  6
Continuous
 62
7
370
25
100
AcDbLine
 10
-23.96875
 20
-53.820635526299995
 30
0.0
 11
-23.96875
 21
-54.001975235900005
 31
0.0
  0
LINE
  5
131
330
2F
100
AcDbEntity
  8
0
  6
Continuous
 62
7
370
25
100
AcDbLine
 10
-23.96875
 20
-48.57419062059999
 30
0.0
 11
-23.129279999999994
 21
-49.1619938427
 31
0.0
  0
LINE
  5
132
330
2F
100
AcDbEntity
  8
0
  6
Continuous
 62
7
370
25
100
AcDbLine
 10
-16.870720000000006
 20
-49.1619938427
 30
0.0
 11
-16.03125
 21
-48.57419062059999
 31
0.0
  0
LINE
  5
133
330
2F
100
AcDbEntity
  8
0
  6
Continuous
 62
7
370
25
100
AcDbLine
 10
-16.03125
 20
-51.1067432186
 30
0.0
 11
-16.870720000000006
 21
-50.518939996499995
 31
0.0
  0
LINE
  5
134
330
2F
100
AcDbEntity
  8
0
  6
Continuous
 62
7
370
25
100
AcDbLine
 10
-23.129279999999994
 20
-50.518939996499995
 30
0.0
 11
-23.96875
 21
-51.1067432186
 31
0.0
  0
LINE
  5
135
330
2F
100
AcDbEntity
  8
0
  6
Continuous
 62
7
370
25
100
AcDbLine
 10
-16.03125
 20
-52.4636893725
 30
0.0
 11
-16.870720000000006
 21
-51.87588615040001
 31
0.0
  0
LINE
  5
136
330
2F
100
AcDbEntity
  8
0
  6
Continuous
 62
7
370
25
100
AcDbLine
 10
-23.129279999999994
 20
-51.87588615040001
 30
0.0
 11
-23.96875
 21
-52.4636893725
 31
0.0
  0
LINE
  5
137
330
2F
100
AcDbEntity
  8
0
  6
Continuous
 62
7
370
25
100
AcDbLine
 10
-23.96875
 20
-52.645029082099995
 30
0.0
 11
-23.129279999999994
 21
-53.2328323042
 31
0.0
  0
LINE
  5
138
330
2F
100
AcDbEntity
  8
0
  6
Continuous
 62
7
370
25
100
AcDbLine
 10
-16.870720000000006
 20
-53.2328323042
 30
0.0
 11
-16.03125
 21
-52.645029082099995
 31
0.0
  0
LINE
  5
139
330
2F
100
AcDbEntity
  8
0
  6
Continuous
 62
7
370
25
100
AcDbLine
 10
-16.03125
 20
-49.9311367744
 30
0.0
 11
-16.03125
 21
-49.749797064800006
 31
0.0
  0
LINE
  5
13A
330
2F
100
AcDbEntity
  8
0
  6
Continuous
 62
7
370
25
100
AcDbLine
 10
-23.96875
 20
-49.749797064800006
 30
0.0
 11
-23.96875
 21
-49.9311367744
 31
0.0
  0
LINE
  5
13B
330
2F
100
AcDbEntity
  8
0
  6
Continuous
 62
7
370
25
100
AcDbLine
 10
-23.96875
 20
-49.9311367744
 30
0.0
 11
-23.129279999999994
 21
-50.518939996499995
 31
0.0
  0
LINE
  5
13C
330
2F
100
AcDbEntity
  8
0
  6
Continuous
 62
7
370
25
100
AcDbLine
 10
-16.870720000000006
 20
-50.518939996499995
 30
0.0
 11
-16.03125
 21
-49.9311367744
 31
0.0
  0
LINE
  5
13D
330
2F
100
AcDbEntity
  8
0
  6
Continuous
 62
7
370
25
100
AcDbLine
 10
-16.03125
 20
-51.2880829282
 30
0.0
 11
-16.03125
 21
-51.1067432186
 31
0.0
  0
LINE
  5
13E
330
2F
100
AcDbEntity
  8
0
  6
Continuous
 62
7
370
25
100
AcDbLine
 10
-23.96875
 20
-51.1067432186
 30
0.0
 11
-23.96875
 21
-51.2880829282
 31
0.0
  0
LINE
  5
13F
330
2F
100
AcDbEntity
  8
0
  6
Continuous
 62
7
370
25
100
AcDbLine
 10
-13.649999999999977
 20
-61.96847845799999
 30
0.0
 11
-13.6153134658
 21
-61.9484521782
 31
0.0
  0
LINE
  5
140
330
2F
100
AcDbEntity
  8
0
  6
Continuous
 62
7
370
25
100
AcDbLine
 10
-30.0
 20
-54.399278458
 30
0.0
 11
-10.0
 21
-54.399278458
 31
0.0
  0
LINE
  5
141
330
2F
100
AcDbEntity
  8
0
  6
Continuous
 62
7
370
25
100
AcDbLine
 10
-30.0
 20
-55.999478458
 30
0.0
 11
-10.0
 21
-55.999478458
 31
0.0
  0
LINE
  5
142
330
2F
100
AcDbEntity
  8
0
  6
Continuous
 62
7
370
25
100
AcDbLine
 10
10.0
 20
-54.399278458
 30
0.0
 11
30.0
 21
-54.399278458
 31
0.0
  0
LINE
  5
143
330
2F
100
AcDbEntity
  8
0
  6
Continuous
 62
7
370
25
100
AcDbLine
 10
10.0
 20
-55.999478458
 30
0.0
 11
30.0
 21
-55.999478458
 31
0.0
  0
LINE
  5
144
330
2F
100
AcDbEntity
  8
0
  6
Continuous
 62
7
370
25
100
AcDbLine
 10
13.985447567599977
 20
-55.999478458
 30
0.0
 11
13.985447567599977
 21
-61.401319334099995
 31
0.0
  0
LINE
  5
145
330
2F
100
AcDbEntity
  8
0
  6
Continuous
 62
7
370
25
100
AcDbLine
 10
20.6247162505
 20
-55.999478458
 30
0.0
 11
20.6247162505
 21
-61.401319334099995
 31
0.0
  0
LINE
  5
146
330
2F
100
AcDbEntity
  8
0
  6
Continuous
 62
7
370
25
100
AcDbLine
 10
13.67308944230001
 20
-61.96847845799999
 30
0.0
 11
23.631992466700012
 21
-61.96847845799999
 31
0.0
  0
LINE
  5
147
330
2F
100
AcDbEntity
  8
0
  6
Continuous
 62
7
370
25
100
AcDbLine
 10
26.63926868289991
 20
-55.999478458
 30
0.0
 11
26.63926868289991
 21
-61.401319334099995
 31
0.0
  0
LINE
  5
148
330
2F
100
AcDbEntity
  8
0
  6
Continuous
 62
7
370
25
100
AcDbLine
 10
23.96875
 20
-52.645029082099995
 30
0.0
 11
16.03125
 21
-52.645029082099995
 31
0.0
  0
LINE
  5
149
330
2F
100
AcDbEntity
  8
0
  6
Continuous
 62
7
370
25
100
AcDbLine
 10
23.129279999999994
 20
-53.2328323042
 30
0.0
 11
16.870720000000006
 21
-53.2328323042
 31
0.0
  0
LINE
  5
14A
330
2F
100
AcDbEntity
  8
0
  6
Continuous
 62
7
370
25
100
AcDbLine
 10
23.96875
 20
-48.57419062059999
 30
0.0
 11
16.03125
 21
-48.57419062059999
 31
0.0
  0
LINE
  5
14B
330
2F
100
AcDbEntity
  8
0
  6
Continuous
 62
7
370
25
100
AcDbLine
 10
23.96875
 20
-48.392850910899995
 30
0.0
 11
16.03125
 21
-48.392850910899995
 31
0.0
  0
LINE
  5
14C
330
2F
100
AcDbEntity
  8
0
  6
Continuous
 62
7
370
25
100
AcDbLine
 10
23.96875
 20
-47.217244466699995
 30
0.0
 11
16.03125
 21
-47.217244466699995
 31
0.0
  0
LINE
  5
14D
330
2F
100
AcDbEntity
  8
0
  6
Continuous
 62
7
370
25
100
AcDbLine
 10
23.129279999999994
 20
-47.8050476888
 30
0.0
 11
16.870720000000006
 21
-47.8050476888
 31
0.0
  0
LINE
  5
14E
330
2F
100
AcDbEntity
  8
0
  6
Continuous
 62
7
370
25
100
AcDbLine
 10
23.96875
 20
-54.001975235900005
 30
0.0
 11
16.03125
 21
-54.001975235900005
 31
0.0
  0
LINE
  5
14F
330
2F
100
AcDbEntity
  8
0
  6
Continuous
 62
7
370
25
100
AcDbLine
 10
23.96875
 20
-53.820635526299995
 30
0.0
 11
16.03125
 21
-53.820635526299995
 31
0.0
  0
LINE
  5
150
330
2F
100
AcDbEntity
  8
0
  6
Continuous
 62
7
370
25
100
AcDbLine
 10
23.129279999999994
 20
-49.1619938427
 30
0.0
 11
16.870720000000006
 21
-49.1619938427
 31
0.0
  0
LINE
  5
151
330
2F
100
AcDbEntity
  8
0
  6
Continuous
 62
7
370
25
100
AcDbLine
 10
23.96875
 20
-49.749797064800006
 30
0.0
 11
16.03125
 21
-49.749797064800006
 31
0.0
  0
LINE
  5
152
330
2F
100
AcDbEntity
  8
0
  6
Continuous
 62
7
370
25
100
AcDbLine
 10
23.96875
 20
-51.2880829282
 30
0.0
 11
16.03125
 21
-51.2880829282
 31
0.0
  0
LINE
  5
153
330
2F
100
AcDbEntity
  8
0
  6
Continuous
 62
7
370
25
100
AcDbLine
 10
23.96875
 20
-51.1067432186
 30
0.0
 11
16.03125
 21
-51.1067432186
 31
0.0
  0
LINE
  5
154
330
2F
100
AcDbEntity
  8
0
  6
Continuous
 62
7
370
25
100
AcDbLine
 10
23.96875
 20
-52.4636893725
 30
0.0
 11
16.03125
 21
-52.4636893725
 31
0.0
  0
LINE
  5
155
330
2F
100
AcDbEntity
  8
0
  6
Continuous
 62
7
370
25
100
AcDbLine
 10
23.96875
 20
-49.9311367744
 30
0.0
 11
16.03125
 21
-49.9311367744
 31
0.0
  0
LINE
  5
156
330
2F
100
AcDbEntity
  8
0
  6
Continuous
 62
7
370
25
100
AcDbLine
 10
23.129279999999994
 20
-50.518939996499995
 30
0.0
 11
16.870720000000006
 21
-50.518939996499995
 31
0.0
  0
LINE
  5
157
330
2F
100
AcDbEntity
  8
0
  6
Continuous
 62
7
370
25
100
AcDbLine
 10
23.96875
 20
-47.0359047571
 30
0.0
 11
16.03125
 21
-47.0359047571
 31
0.0
  0
LINE
  5
158
330
2F
100
AcDbEntity
  8
0
  6
Continuous
 62
7
370
25
100
AcDbLine
 10
23.129279999999994
 20
-51.87588615040001
 30
0.0
 11
16.870720000000006
 21
-51.87588615040001
 31
0.0
  0
LINE
  5
159
330
2F
100
AcDbEntity
  8
0
  6
Continuous
 62
7
370
25
100
AcDbLine
 10
13.67308944230001
 20
-61.96847845799999
 30
0.0
 11
13.627407174899986
 21
-61.90095855209999
 31
0.0
  0
LINE
  5
15A
330
2F
100
AcDbEntity
  8
0
  6
Continuous
 62
7
370
25
100
AcDbLine
 10
-20.763269831899947
 20
-55.999478458
 30
0.0
 11
-20.763269831899947
 21
-61.401319334099995
 31
0.0
  0
LINE
  5
15B
330
2F
100
AcDbEntity
  8
0
  6
Continuous
 62
7
370
25
100
AcDbLine
 10
-14.066133006100017
 20
-55.999478458
 30
0.0
 11
-14.066133006100017
 21
-61.401319334099995
 31
0.0
  0
LINE
  5
15C
330
2F
100
AcDbEntity
  8
0
  6
Continuous
 62
7
370
25
100
AcDbLine
 10
-26.347751172699986
 20
-61.96847845799999
 30
0.0
 11
-13.684498090200009
 21
-61.96847845799999
 31
0.0
  0
LINE
  5
15D
330
2F
100
AcDbEntity
  8
0
  6
Continuous
 62
7
370
25
100
AcDbLine
 10
-26.6971368257
 20
-55.999478458
 30
0.0
 11
-26.6971368257
 21
-61.401319334099995
 31
0.0
  0
LINE
  5
15E
330
2F
100
AcDbEntity
  8
0
  6
Continuous
 62
7
370
25
100
AcDbLine
 10
-16.03125
 20
-51.2880829282
 30
0.0
 11
-23.96875
 21
-51.2880829282
 31
0.0
  0
LINE
  5
15F
330
2F
100
AcDbEntity
  8
0
  6
Continuous
 62
7
370
25
100
AcDbLine
 10
-16.870720000000006
 20
-51.87588615040001
 30
0.0
 11
-23.129279999999994
 21
-51.87588615040001
 31
0.0
  0
LINE
  5
160
330
2F
100
AcDbEntity
  8
0
  6
Continuous
 62
7
370
25
100
AcDbLine
 10
-16.870720000000006
 20
-47.8050476888
 30
0.0
 11
-23.129279999999994
 21
-47.8050476888
 31
0.0
  0
LINE
  5
161
330
2F
100
AcDbEntity
  8
0
  6
Continuous
 62
7
370
25
100
AcDbLine
 10
-16.03125
 20
-48.392850910899995
 30
0.0
 11
-23.96875
 21
-48.392850910899995
 31
0.0
  0
LINE
  5
162
330
2F
100
AcDbEntity
  8
0
  6
Continuous
 62
7
370
25
100
AcDbLine
 10
-16.03125
 20
-47.217244466699995
 30
0.0
 11
-23.96875
 21
-47.217244466699995
 31
0.0
  0
LINE
  5
163
330
2F
100
AcDbEntity
  8
0
  6
Continuous
 62
7
370
25
100
AcDbLine
 10
-16.870720000000006
 20
-49.1619938427
 30
0.0
 11
-23.129279999999994
 21
-49.1619938427
 31
0.0
  0
LINE
  5
164
330
2F
100
AcDbEntity
  8
0
  6
Continuous
 62
7
370
25
100
AcDbLine
 10
-16.03125
 20
-49.749797064800006
 30
0.0
 11
-23.96875
 21
-49.749797064800006
 31
0.0
  0
LINE
  5
165
330
2F
100
AcDbEntity
  8
0
  6
Continuous
 62
7
370
25
100
AcDbLine
 10
-16.03125
 20
-52.645029082099995
 30
0.0
 11
-23.96875
 21
-52.645029082099995
 31
0.0
  0
LINE
  5
166
330
2F
100
AcDbEntity
  8
0
  6
Continuous
 62
7
370
25
100
AcDbLine
 10
-16.03125
 20
-52.4636893725
 30
0.0
 11
-23.96875
 21
-52.4636893725
 31
0.0
  0
LINE
  5
167
330
2F
100
AcDbEntity
  8
0
  6
Continuous
 62
7
370
25
100
AcDbLine
 10
-16.870720000000006
 20
-53.2328323042
 30
0.0
 11
-23.129279999999994
 21
-53.2328323042
 31
0.0
  0
LINE
  5
168
330
2F
100
AcDbEntity
  8
0
  6
Continuous
 62
7
370
25
100
AcDbLine
 10
-16.03125
 20
-53.820635526299995
 30
0.0
 11
-23.96875
 21
-53.820635526299995
 31
0.0
  0
LINE
  5
169
330
2F
100
AcDbEntity
  8
0
  6
Continuous
 62
7
370
25
100
AcDbLine
 10
-16.03125
 20
-48.57419062059999
 30
0.0
 11
-23.96875
 21
-48.57419062059999
 31
0.0
  0
LINE
  5
16A
330
2F
100
AcDbEntity
  8
0
  6
Continuous
 62
7
370
25
100
AcDbLine
 10
-16.03125
 20
-47.0359047571
 30
0.0
 11
-23.96875
 21
-47.0359047571
 31
0.0
  0
LINE
  5
16B
330
2F
100
AcDbEntity
  8
0
  6
Continuous
 62
7
370
25
100
AcDbLine
 10
-16.03125
 20
-54.001975235900005
 30
0.0
 11
-23.96875
 21
-54.001975235900005
 31
0.0
  0
LINE
  5
16C
330
2F
100
AcDbEntity
  8
0
  6
Continuous
 62
7
370
25
100
AcDbLine
 10
-16.870720000000006
 20
-50.518939996499995
 30
0.0
 11
-23.129279999999994
 21
-50.518939996499995
 31
0.0
  0
LINE
  5
16D
330
2F
100
AcDbEntity
  8
0
  6
Continuous
 62
7
370
25
100
AcDbLine
 10
-16.03125
 20
-51.1067432186
 30
0.0
 11
-23.96875
 21
-51.1067432186
 31
0.0
  0
LINE
  5
16E
330
2F
100
AcDbEntity
  8
0
  6
Continuous
 62
7
370
25
100
AcDbLine
 10
-16.03125
 20
-49.9311367744
 30
0.0
 11
-23.96875
 21
-49.9311367744
 31
0.0
  0
LINE
  5
16F
330
2F
100
AcDbEntity
  8
0
  6
Continuous
 62
7
370
25
100
AcDbLine
 10
-13.616763464100018
 20
-61.8865377673
 30
0.0
 11
-13.684498090200009
 21
-61.96847845799999
 31
0.0
  0
LINE
  5
170
330
2F
100
AcDbEntity
  8
0
  6
Continuous
 62
7
370
25
100
AcDbLine
 10
-150.0
 20
43.700521542000004
 30
0.0
 11
150.0
 21
43.700521542000004
 31
0.0
  0
LINE
  5
171
330
2F
100
AcDbEntity
  8
0
  6
Continuous
 62
7
370
25
100
AcDbLine
 10
-150.0
 20
47.000521542
 30
0.0
 11
150.0
 21
47.000521542
 31
0.0
  0
LINE
  5
172
330
2F
100
AcDbEntity
  8
0
  6
Continuous
 62
7
370
25
100
AcDbLine
 10
-150.0
 20
32.000521542
 30
0.0
 11
150.0
 21
32.000521542
 31
0.0
  0
LINE
  5
173
330
2F
100
AcDbEntity
  8
0
  6
Continuous
 62
7
370
25
100
AcDbLine
 10
-150.0
 20
-46.999478458
 30
0.0
 11
150.0
 21
-46.999478458
 31
0.0
  0
LINE
  5
174
330
2F
100
AcDbEntity
  8
0
  6
Continuous
 62
7
370
25
100
AcDbLine
 10
-150.0
 20
-43.699478458
 30
0.0
 11
150.0
 21
-43.699478458
 31
0.0
  0
LINE
  5
175
330
2F
100
AcDbEntity
  8
0
  6
Continuous
 62
7
370
25
100
AcDbLine
 10
150.0
 20
47.000521542
 30
0.0
 11
150.0
 21
-46.999478458
 31
0.0
  0
LINE
  5
176
330
2F
100
AcDbEntity
  8
0
  6
Continuous
 62
7
370
25
100
AcDbLine
 10
-150.0
 20
47.000521542
 30
0.0
 11
-150.0
 21
-46.999478458
 31
0.0
  0
LINE
  5
177
330
2F
100
AcDbEntity
  8
0
  6
Continuous
 62
7
370
25
100
AcDbLine
 10
-150.0
 20
-31.999478458
 30
0.0
 11
150.0
 21
-31.999478458
 31
0.0
  0
ENDBLK
  5
31
330
2F
100
AcDbEntity
  8
0
100
AcDbBlockEnd
  0
ENDSEC
  0
SECTION
  2
ENTITIES
  0
INSERT
  5
178
330
17
100
AcDbEntity
  8
0
100
AcDbBlockReference
  2
DI_EMENDA_LONG
 10
0.0
 20
0.0
 30
0.0
  0
ENDSEC
  0
SECTION
  2
OBJECTS
  0
DICTIONARY
  5
A
330
0
100
AcDbDictionary
281
1
  3
ACAD_COLOR
350
B
  3
ACAD_GROUP
350
C
  3
ACAD_LAYOUT
350
D
  3
ACAD_MATERIAL
350
E
  3
ACAD_MLEADERSTYLE
350
F
  3
ACAD_MLINESTYLE
350
10
  3
ACAD_PLOTSETTINGS
350
11
  3
ACAD_PLOTSTYLENAME
350
12
  3
ACAD_SCALELIST
350
14
  3
ACAD_TABLESTYLE
350
15
  3
ACAD_VISUALSTYLE
350
16
  3
EZDXF_META
350
2D
  0
DICTIONARY
  5
B
330
A
100
AcDbDictionary
281
1
  0
DICTIONARY
  5
C
330
A
100
AcDbDictionary
281
1
  0
DICTIONARY
  5
D
330
A
100
AcDbDictionary
281
1
  3
Model
350
1A
  3
Layout1
350
1E
  0
DICTIONARY
  5
E
330
A
100
AcDbDictionary
281
1
  3
ByBlock
350
1F
  3
ByLayer
350
20
  3
Global
350
21
  0
DICTIONARY
  5
F
330
A
100
AcDbDictionary
281
1
  3
Standard
350
2C
  0
DICTIONARY
  5
10
330
A
100
AcDbDictionary
281
1
  3
Standard
350
22
  0
DICTIONARY
  5
11
330
A
100
AcDbDictionary
281
1
  0
ACDBDICTIONARYWDFLT
  5
12
330
A
100
AcDbDictionary
281
1
  3
Normal
350
13
100
AcDbDictionaryWithDefault
340
13
  0
ACDBPLACEHOLDER
  5
13
330
12
  0
DICTIONARY
  5
14
330
A
100
AcDbDictionary
281
1
  0
DICTIONARY
  5
15
330
A
100
AcDbDictionary
281
1
  0
DICTIONARY
  5
16
330
A
100
AcDbDictionary
281
1
  0
LAYOUT
  5
1A
330
D
100
AcDbPlotSettings
  1

  4
A3
  6

 40
7.5
 41
20.0
 42
7.5
 43
20.0
 44
420.0
 45
297.0
 46
0.0
 47
0.0
 48
0.0
 49
0.0
140
0.0
141
0.0
142
1.0
143
1.0
 70
1024
 72
1
 73
0
 74
5
  7

 75
16
 76
0
 77
2
 78
300
147
1.0
148
0.0
149
0.0
100
AcDbLayout
  1
Model
 70
1
 71
0
 10
0.0
 20
0.0
 11
420.0
 21
297.0
 12
0.0
 22
0.0
 32
0.0
 14
1e+20
 24
1e+20
 34
1e+20
 15
-1e+20
 25
-1e+20
 35
-1e+20
146
0.0
 13
0.0
 23
0.0
 33
0.0
 16
1.0
 26
0.0
 36
0.0
 17
0.0
 27
1.0
 37
0.0
 76
1
330
17
  0
LAYOUT
  5
1E
330
D
100
AcDbPlotSettings
  1

  4
A3
  6

 40
7.5
 41
20.0
 42
7.5
 43
20.0
 44
420.0
 45
297.0
 46
0.0
 47
0.0
 48
0.0
 49
0.0
140
0.0
141
0.0
142
1.0
143
1.0
 70
0
 72
1
 73
0
 74
5
  7

 75
16
 76
0
 77
2
 78
300
147
1.0
148
0.0
149
0.0
100
AcDbLayout
  1
Layout1
 70
1
 71
1
 10
0.0
 20
0.0
 11
420.0
 21
297.0
 12
0.0
 22
0.0
 32
0.0
 14
1e+20
 24
1e+20
 34
1e+20
 15
-1e+20
 25
-1e+20
 35
-1e+20
146
0.0
 13
0.0
 23
0.0
 33
0.0
 16
1.0
 26
0.0
 36
0.0
 17
0.0
 27
1.0
 37
0.0
 76
1
330
1B
  0
MATERIAL
  5
1F
102
{ACAD_REACTORS
330
E
102
}
330
E
100
AcDbMaterial
  1
ByBlock
  2

 70
0
 40
1.0
 71
1
 41
1.0
 91
-1023410177
 42
1.0
 72
1
  3

 73
1
 74
1
 75
1
 44
0.5
 73
0
 45
1.0
 46
1.0
 77
1
  4

 78
1
 79
1
170
1
 48
1.0
171
1
  6

172
1
173
1
174
1
140
1.0
141
1.0
175
1
  7

176
1
177
1
178
1
143
1.0
179
1
  8

270
1
271
1
272
1
145
1.0
146
1.0
273
1
  9

274
1
275
1
276
1
 42
1.0
 72
1
  3

 73
1
 74
1
 75
1
 94
63
  0
MATERIAL
  5
20
102
{ACAD_REACTORS
330
E
102
}
330
E
100
AcDbMaterial
  1
ByLayer
  2

 70
0
 40
1.0
 71
1
 41
1.0
 91
-1023410177
 42
1.0
 72
1
  3

 73
1
 74
1
 75
1
 44
0.5
 73
0
 45
1.0
 46
1.0
 77
1
  4

 78
1
 79
1
170
1
 48
1.0
171
1
  6

172
1
173
1
174
1
140
1.0
141
1.0
175
1
  7

176
1
177
1
178
1
143
1.0
179
1
  8

270
1
271
1
272
1
145
1.0
146
1.0
273
1
  9

274
1
275
1
276
1
 42
1.0
 72
1
  3

 73
1
 74
1
 75
1
 94
63
  0
MATERIAL
  5
21
102
{ACAD_REACTORS
330
E
102
}
330
E
100
AcDbMaterial
  1
Global
  2

 70
0
 40
1.0
 71
1
 41
1.0
 91
-1023410177
 42
1.0
 72
1
  3

 73
1
 74
1
 75
1
 44
0.5
 73
0
 45
1.0
 46
1.0
 77
1
  4

 78
1
 79
1
170
1
 48
1.0
171
1
  6

172
1
173
1
174
1
140
1.0
141
1.0
175
1
  7

176
1
177
1
178
1
143
1.0
179
1
  8

270
1
271
1
272
1
145
1.0
146
1.0
273
1
  9

274
1
275
1
276
1
 42
1.0
 72
1
  3

 73
1
 74
1
 75
1
 94
63
  0
MLINESTYLE
  5
22
102
{ACAD_REACTORS
330
10
102
}
330
10
100
AcDbMlineStyle
  2
Standard
 70
0
  3

 62
256
 51
90.0
 52
90.0
 71
2
 49
0.5
 62
256
  6
BYLAYER
 49
-0.5
 62
256
  6
BYLAYER
  0
MLEADERSTYLE
  5
2C
102
{ACAD_REACTORS
330
F
102
}
330
F
100
AcDbMLeaderStyle
179
2
170
2
171
1
172
0
 90
2
 40
0.0
 41
0.0
173
1
 91
-1056964608
 92
-2
290
1
 42
2.0
291
1
 43
8.0
  3
Standard
 44
4.0
300

342
29
174
1
175
1
176
0
178
1
 93
-1056964608
 45
4.0
292
0
297
0
 46
4.0
 94
-1056964608
 47
1.0
 49
1.0
140
1.0
294
1
141
0.0
177
0
142
1.0
295
0
296
0
143
3.75
271
0
272
9
273
9
  0
DICTIONARY
  5
2D
330
A
100
AcDbDictionary
280
1
281
1
  3
CREATED_BY_EZDXF
350
2E
  3
WRITTEN_BY_EZDXF
350
17C
  0
DICTIONARYVAR
  5
2E
330
2D
100
DictionaryVariables
280
0
  1
1.4.4 @ 2026-10-05T16:14:04.476003+00:00
  0
DICTIONARYVAR
  5
17C
330
2D
100
DictionaryVariables
280
0
  1
1.4.4 @ 2026-10-05T16:14:04.488772+00:00
  0
ENDSEC
  0
EOF
