  0
SECTION
  2
HEADER
  9
$ACADVER
  1
AC1024
  9
$ACADMAINTVER
 70
6
  9
$DWGCODEPAGE
  3
ANSI_1252
  9
$LASTSAVEDBY
  1
ezdxf
  9
$INSBASE
 10
0.0
 20
0.0
 30
0.0
  9
$EXTMIN
 10
1e+20
 20
1e+20
 30
1e+20
  9
$EXTMAX
 10
-1e+20
 20
-1e+20
 30
-1e+20
  9
$LIMMIN
 10
0.0
 20
0.0
  9
$LIMMAX
 10
420.0
 20
297.0
  9
$ORTHOMODE
 70
0
  9
$REGENMODE
 70
1
  9
$FILLMODE
 70
1
  9
$QTEXTMODE
 70
0
  9
$MIRRTEXT
 70
1
  9
$LTSCALE
 40
1.0
  9
$ATTMODE
 70
1
  9
$TEXTSIZE
 40
2.5
  9
$TRACEWID
 40
1.0
  9
$TEXTSTYLE
  7
Standard
  9
$CLAYER
  8
0
  9
$CELTYPE
  6
ByLayer
  9
$CECOLOR
 62
256
  9
$CELTSCALE
 40
1.0
  9
$DISPSILH
 70
0
  9
$DIMSCALE
 40
1.0
  9
$DIMASZ
 40
2.5
  9
$DIMEXO
 40
0.625
  9
$DIMDLI
 40
3.75
  9
$DIMRND
 40
0.0
  9
$DIMDLE
 40
0.0
  9
$DIMEXE
 40
1.25
  9
$DIMTP
 40
0.0
  9
$DIMTM
 40
0.0
  9
$DIMTXT
 40
2.5
  9
$DIMCEN
 40
2.5
  9
$DIMTSZ
 40
0.0
  9
$DIMTOL
 70
0
  9
$DIMLIM
 70
0
  9
$DIMTIH
 70
0
  9
$DIMTOH
 70
0
  9
$DIMSE1
 70
0
  9
$DIMSE2
 70
0
  9
$DIMTAD
 70
1
  9
$DIMZIN
 70
8
  9
$DIMBLK
  1

  9
$DIMASO
 70
1
  9
$DIMSHO
 70
1
  9
$DIMPOST
  1

  9
$DIMAPOST
  1

  9
$DIMALT
 70
0
  9
$DIMALTD
 70
3
  9
$DIMALTF
 40
0.03937007874
  9
$DIMLFAC
 40
1.0
  9
$DIMTOFL
 70
1
  9
$DIMTVP
 40
0.0
  9
$DIMTIX
 70
0
  9
$DIMSOXD
 70
0
  9
$DIMSAH
 70
0
  9
$DIMBLK1
  1

  9
$DIMBLK2
  1

  9
$DIMSTYLE
  2
ISO-25
  9
$DIMCLRD
 70
0
  9
$DIMCLRE
 70
0
  9
$DIMCLRT
 70
0
  9
$DIMTFAC
 40
1.0
  9
$DIMGAP
 40
0.625
  9
$DIMJUST
 70
0
  9
$DIMSD1
 70
0
  9
$DIMSD2
 70
0
  9
$DIMTOLJ
 70
0
  9
$DIMTZIN
 70
8
  9
$DIMALTZ
 70
0
  9
$DIMALTTZ
 70
0
  9
$DIMUPT
 70
0
  9
$DIMDEC
 70
2
  9
$DIMTDEC
 70
2
  9
$DIMALTU
 70
2
  9
$DIMALTTD
 70
3
  9
$DIMTXSTY
  7
Standard
  9
$DIMAUNIT
 70
0
  9
$DIMADEC
 70
0
  9
$DIMALTRND
 40
0.0
  9
$DIMAZIN
 70
0
  9
$DIMDSEP
 70
44
  9
$DIMATFIT
 70
3
  9
$DIMFRAC
 70
0
  9
$DIMLDRBLK
  1

  9
$DIMLUNIT
 70
2
  9
$DIMLWD
 70
-2
  9
$DIMLWE
 70
-2
  9
$DIMTMOVE
 70
0
  9
$DIMFXL
 40
1.0
  9
$DIMFXLON
 70
0
  9
$DIMJOGANG
 40
0.785398163397
  9
$DIMTFILL
 70
0
  9
$DIMTFILLCLR
 70
0
  9
$DIMARCSYM
 70
0
  9
$DIMLTYPE
  6

  9
$DIMLTEX1
  6

  9
$DIMLTEX2
  6

  9
$DIMTXTDIRECTION
 70
0
  9
$LUNITS
 70
2
  9
$LUPREC
 70
4
  9
$SKETCHINC
 40
1.0
  9
$FILLETRAD
 40
10.0
  9
$AUNITS
 70
0
  9
$AUPREC
 70
2
  9
$MENU
  1
.
  9
$ELEVATION
 40
0.0
  9
$PELEVATION
 40
0.0
  9
$THICKNESS
 40
0.0
  9
$LIMCHECK
 70
0
  9
$CHAMFERA
 40
0.0
  9
$CHAMFERB
 40
0.0
  9
$CHAMFERC
 40
0.0
  9
$CHAMFERD
 40
0.0
  9
$SKPOLY
 70
0
  9
$TDCREATE
 40
2461322.8926388887
  9
$TDUCREATE
 40
2458532.153996898
  9
$TDUPDATE
 40
2461322.8926388887
  9
$TDUUPDATE
 40
2458532.1544311
  9
$TDINDWG
 40
0.0
  9
$TDUSRTIMER
 40
0.0
  9
$USRTIMER
 70
1
  9
$ANGBASE
 50
0.0
  9
$ANGDIR
 70
0
  9
$PDMODE
 70
0
  9
$PDSIZE
 40
0.0
  9
$PLINEWID
 40
0.0
  9
$SPLFRAME
 70
0
  9
$SPLINETYPE
 70
6
  9
$SPLINESEGS
 70
8
  9
$HANDSEED
  5
113
  9
$SURFTAB1
 70
6
  9
$SURFTAB2
 70
6
  9
$SURFTYPE
 70
6
  9
$SURFU
 70
6
  9
$SURFV
 70
6
  9
$UCSBASE
  2

  9
$UCSNAME
  2

  9
$UCSORG
 10
0.0
 20
0.0
 30
0.0
  9
$UCSXDIR
 10
1.0
 20
0.0
 30
0.0
  9
$UCSYDIR
 10
0.0
 20
1.0
 30
0.0
  9
$UCSORTHOREF
  2

  9
$UCSORTHOVIEW
 70
0
  9
$UCSORGTOP
 10
0.0
 20
0.0
 30
0.0
  9
$UCSORGBOTTOM
 10
0.0
 20
0.0
 30
0.0
  9
$UCSORGLEFT
 10
0.0
 20
0.0
 30
0.0
  9
$UCSORGRIGHT
 10
0.0
 20
0.0
 30
0.0
  9
$UCSORGFRONT
 10
0.0
 20
0.0
 30
0.0
  9
$UCSORGBACK
 10
0.0
 20
0.0
 30
0.0
  9
$PUCSBASE
  2

  9
$PUCSNAME
  2

  9
$PUCSORG
 10
0.0
 20
0.0
 30
0.0
  9
$PUCSXDIR
 10
1.0
 20
0.0
 30
0.0
  9
$PUCSYDIR
 10
0.0
 20
1.0
 30
0.0
  9
$PUCSORTHOREF
  2

  9
$PUCSORTHOVIEW
 70
0
  9
$PUCSORGTOP
 10
0.0
 20
0.0
 30
0.0
  9
$PUCSORGBOTTOM
 10
0.0
 20
0.0
 30
0.0
  9
$PUCSORGLEFT
 10
0.0
 20
0.0
 30
0.0
  9
$PUCSORGRIGHT
 10
0.0
 20
0.0
 30
0.0
  9
$PUCSORGFRONT
 10
0.0
 20
0.0
 30
0.0
  9
$PUCSORGBACK
 10
0.0
 20
0.0
 30
0.0
  9
$USERI1
 70
0
  9
$USERI2
 70
0
  9
$USERI3
 70
0
  9
$USERI4
 70
0
  9
$USERI5
 70
0
  9
$USERR1
 40
0.0
  9
$USERR2
 40
0.0
  9
$USERR3
 40
0.0
  9
$USERR4
 40
0.0
  9
$USERR5
 40
0.0
  9
$WORLDVIEW
 70
1
  9
$SHADEDGE
 70
3
  9
$SHADEDIF
 70
70
  9
$TILEMODE
 70
1
  9
$MAXACTVP
 70
64
  9
$PINSBASE
 10
0.0
 20
0.0
 30
0.0
  9
$PLIMCHECK
 70
0
  9
$PEXTMIN
 10
1e+20
 20
1e+20
 30
1e+20
  9
$PEXTMAX
 10
-1e+20
 20
-1e+20
 30
-1e+20
  9
$PLIMMIN
 10
0.0
 20
0.0
  9
$PLIMMAX
 10
420.0
 20
297.0
  9
$UNITMODE
 70
0
  9
$VISRETAIN
 70
1
  9
$PLINEGEN
 70
0
  9
$PSLTSCALE
 70
1
  9
$TREEDEPTH
 70
3020
  9
$CMLSTYLE
  2
Standard
  9
$CMLJUST
 70
0
  9
$CMLSCALE
 40
20.0
  9
$PROXYGRAPHICS
 70
1
  9
$MEASUREMENT
 70
1
  9
$CELWEIGHT
370
-1
  9
$ENDCAPS
280
0
  9
$JOINSTYLE
280
0
  9
$LWDISPLAY
290
0
  9
$INSUNITS
 70
6
  9
$HYPERLINKBASE
  1

  9
$STYLESHEET
  1

  9
$XEDIT
290
1
  9
$CEPSNTYPE
380
0
  9
$PSTYLEMODE
290
1
  9
$FINGERPRINTGUID
  2
{43E180B5-7F75-45B0-813E-A087C8657F5F}
  9
$VERSIONGUID
  2
{D153CB33-015E-4A64-AB36-DED1CB45912E}
  9
$EXTNAMES
290
1
  9
$PSVPSCALE
 40
0.0
  9
$OLESTARTUP
290
0
  9
$SORTENTS
280
127
  9
$INDEXCTL
280
0
  9
$HIDETEXT
280
1
  9
$XCLIPFRAME
280
1
  9
$HALOGAP
280
0
  9
$OBSCOLOR
 70
257
  9
$OBSLTYPE
280
0
  9
$INTERSECTIONDISPLAY
280
0
  9
$INTERSECTIONCOLOR
 70
257
  9
$DIMASSOC
280
2
  9
$PROJECTNAME
  1

  9
$CAMERADISPLAY
290
0
  9
$LENSLENGTH
 40
50.0
  9
$CAMERAHEIGHT
 40
0.0
  9
$STEPSPERSEC
 40
24.0
  9
$STEPSIZE
 40
100.0
  9
$3DDWFPREC
 40
2.0
  9
$PSOLWIDTH
 40
0.005
  9
$PSOLHEIGHT
 40
0.08
  9
$LOFTANG1
 40
1.570796326795
  9
$LOFTANG2
 40
1.570796326795
  9
$LOFTMAG1
 40
0.0
  9
$LOFTMAG2
 40
0.0
  9
$LOFTPARAM
 70
7
  9
$LOFTNORMALS
280
1
  9
$LATITUDE
 40
37.795
  9
$LONGITUDE
 40
-122.394
  9
$NORTHDIRECTION
 40
0.0
  9
$TIMEZONE
 70
-8000
  9
$LIGHTGLYPHDISPLAY
280
1
  9
$TILEMODELIGHTSYNCH
280
1
  9
$CMATERIAL
347
20
  9
$SOLIDHIST
280
0
  9
$SHOWHIST
280
1
  9
$DWFFRAME
280
2
  9
$DGNFRAME
280
2
  9
$REALWORLDSCALE
290
1
  9
$INTERFERECOLOR
 62
256
  9
$CSHADOW
280
0
  9
$SHADOWPLANELOCATION
 40
0.0
  0
ENDSEC
  0
SECTION
  2
CLASSES
  0
CLASS
  1
ACDBDICTIONARYWDFLT
  2
AcDbDictionaryWithDefault
  3
ObjectDBX Classes
 90
0
 91
0
280
0
281
0
  0
CLASS
  1
SUN
  2
AcDbSun
  3
SCENEOE
 90
1153
 91
0
280
0
281
0
  0
CLASS
  1
VISUALSTYLE
  2
AcDbVisualStyle
  3
ObjectDBX Classes
 90
4095
 91
0
280
0
281
0
  0
CLASS
  1
MATERIAL
  2
AcDbMaterial
  3
ObjectDBX Classes
 90
1153
 91
0
280
0
281
0
  0
CLASS
  1
SCALE
  2
AcDbScale
  3
ObjectDBX Classes
 90
1153
 91
0
280
0
281
0
  0
CLASS
  1
TABLESTYLE
  2
AcDbTableStyle
  3
ObjectDBX Classes
 90
4095
 91
0
280
0
281
0
  0
CLASS
  1
MLEADERSTYLE
  2
AcDbMLeaderStyle
  3
ACDB_MLEADERSTYLE_CLASS
 90
4095
 91
0
280
0
281
0
  0
CLASS
  1
DICTIONARYVAR
  2
AcDbDictionaryVar
  3
ObjectDBX Classes
 90
0
 91
0
280
0
281
0
  0
CLASS
  1
CELLSTYLEMAP
  2
AcDbCellStyleMap
  3
ObjectDBX Classes
 90
1152
 91
0
280
0
281
0
  0
CLASS
  1
MENTALRAYRENDERSETTINGS
  2
AcDbMentalRayRenderSettings
  3
SCENEOE
 90
1024
 91
0
280
0
281
0
  0
CLASS
  1
ACDBDETAILVIEWSTYLE
  2
AcDbDetailViewStyle
  3
ObjectDBX Classes
 90
1025
 91
0
280
0
281
0
  0
CLASS
  1
ACDBSECTIONVIEWSTYLE
  2
AcDbSectionViewStyle
  3
ObjectDBX Classes
 90
1025
 91
0
280
0
281
0
  0
CLASS
  1
RASTERVARIABLES
  2
AcDbRasterVariables
  3
ISM
 90
0
 91
0
280
0
281
0
  0
CLASS
  1
LAYOUT
  2
AcDbLayout
  3
ObjectDBX Classes
 90
0
 91
0
280
0
281
0
  0
CLASS
  1
ACDBPLACEHOLDER
  2
AcDbPlaceHolder
  3
ObjectDBX Classes
 90
0
 91
0
280
0
281
0
  0
ENDSEC
  0
SECTION
  2
TABLES
  0
TABLE
  2
VPORT
  5
8
330
0
100
AcDbSymbolTable
 70
1
  0
VPORT
  5
23
330
8
100
AcDbSymbolTableRecord
100
AcDbViewportTableRecord
  2
*Active
 70
0
 10
0.0
 20
0.0
 11
1.0
 21
1.0
 12
0.0
 22
0.0
 13
0.0
 23
0.0
 14
0.5
 24
0.5
 15
0.5
 25
0.5
 16
0.0
 26
0.0
 36
1.0
 17
0.0
 27
0.0
 37
0.0
 40
1000.0
 41
1.34
 42
50.0
 43
0.0
 44
0.0
 50
0.0
 51
0.0
 71
0
 72
1000
 73
1
 74
3
 75
0
 76
0
 77
0
 78
0
281
0
 65
0
146
0.0
  0
ENDTAB
  0
TABLE
  2
LTYPE
  5
2
330
0
100
AcDbSymbolTable
 70
3
  0
LTYPE
  5
24
330
2
100
AcDbSymbolTableRecord
100
AcDbLinetypeTableRecord
  2
ByBlock
 70
0
  3

 72
65
 73
0
 40
0.0
  0
LTYPE
  5
25
330
2
100
AcDbSymbolTableRecord
100
AcDbLinetypeTableRecord
  2
ByLayer
 70
0
  3

 72
65
 73
0
 40
0.0
  0
LTYPE
  5
26
330
2
100
AcDbSymbolTableRecord
100
AcDbLinetypeTableRecord
  2
Continuous
 70
0
  3

 72
65
 73
0
 40
0.0
  0
ENDTAB
  0
TABLE
  2
LAYER
  5
1
330
0
100
AcDbSymbolTable
 70
2
  0
LAYER
  5
27
330
1
100
AcDbSymbolTableRecord
100
AcDbLayerTableRecord
  2
0
 70
0
 62
7
  6
Continuous
370
-3
390
13
347
21
  0
LAYER
  5
28
330
1
100
AcDbSymbolTableRecord
100
AcDbLayerTableRecord
  2
Defpoints
 70
0
 62
7
  6
Continuous
290
0
370
-3
390
13
347
21
  0
ENDTAB
  0
TABLE
  2
STYLE
  5
5
330
0
100
AcDbSymbolTable
 70
1
  0
STYLE
  5
29
330
5
100
AcDbSymbolTableRecord
100
AcDbTextStyleTableRecord
  2
Standard
 70
0
 40
0.0
 41
1.0
 50
0.0
 71
0
 42
2.5
  3
txt
  4

  0
ENDTAB
  0
TABLE
  2
VIEW
  5
7
330
0
100
AcDbSymbolTable
 70
0
  0
ENDTAB
  0
TABLE
  2
UCS
  5
6
330
0
100
AcDbSymbolTable
 70
0
  0
ENDTAB
  0
TABLE
  2
APPID
  5
3
330
0
100
AcDbSymbolTable
 70
3
  0
APPID
  5
2A
330
3
100
AcDbSymbolTableRecord
100
AcDbRegAppTableRecord
  2
ACAD
 70
0
  0
APPID
  5
110
330
3
100
AcDbSymbolTableRecord
100
AcDbRegAppTableRecord
  2
HATCHBACKGROUNDCOLOR
 70
0
  0
APPID
  5
111
330
3
100
AcDbSymbolTableRecord
100
AcDbRegAppTableRecord
  2
EZDXF
 70
0
  0
ENDTAB
  0
TABLE
  2
DIMSTYLE
  5
4
330
0
100
AcDbSymbolTable
 70
1
100
AcDbDimStyleTable
  0
DIMSTYLE
105
2B
330
4
100
AcDbSymbolTableRecord
100
AcDbDimStyleTableRecord
  2
Standard
 70
0
 40
1.0
 41
2.5
 42
0.625
 43
3.75
 44
1.25
 45
0.0
 46
0.0
 47
0.0
 48
0.0
 49
2.5
140
2.5
141
2.5
142
0.0
143
0.03937007874
144
1.0
145
0.0
146
1.0
147
0.625
148
0.0
 69
0
 70
0
 71
0
 72
0
 73
0
 74
0
 75
0
 76
0
 77
1
 78
8
 79
3
170
0
171
3
172
1
173
0
174
0
175
0
176
0
177
0
178
0
179
2
271
2
272
2
273
2
274
3
275
0
276
0
277
2
278
44
279
0
280
0
281
0
282
0
283
0
284
8
285
0
286
0
288
0
289
3
290
0
371
-2
372
-2
  0
ENDTAB
  0
TABLE
  2
BLOCK_RECORD
  5
9
330
0
100
AcDbSymbolTable
 70
3
  0
BLOCK_RECORD
  5
17
330
9
100
AcDbSymbolTableRecord
100
AcDbBlockTableRecord
  2
*Model_Space
340
1A
 70
0
280
1
281
0
  0
BLOCK_RECORD
  5
1B
330
9
100
AcDbSymbolTableRecord
100
AcDbBlockTableRecord
  2
*Paper_Space
340
1E
 70
0
280
1
281
0
  0
BLOCK_RECORD
  5
2F
330
9
100
AcDbSymbolTableRecord
100
AcDbBlockTableRecord
  2
DI_LGTOPO_CONTRAV
340
0
 70
0
280
1
281
0
  0
ENDTAB
  0
ENDSEC
  0
SECTION
  2
BLOCKS
  0
BLOCK
  5
18
330
17
100
AcDbEntity
  8
0
100
AcDbBlockBegin
  2
*Model_Space
 70
0
 10
0.0
 20
0.0
 30
0.0
  3
*Model_Space
  1

  0
ENDBLK
  5
19
330
17
100
AcDbEntity
  8
0
100
AcDbBlockEnd
  0
BLOCK
  5
1C
330
1B
100
AcDbEntity
  8
0
100
AcDbBlockBegin
  2
*Paper_Space
 70
0
 10
0.0
 20
0.0
 30
0.0
  3
*Paper_Space
  1

  0
ENDBLK
  5
1D
330
1B
100
AcDbEntity
  8
0
100
AcDbBlockEnd
  0
BLOCK
  5
30
330
2F
100
AcDbEntity
  8
0
100
AcDbBlockBegin
  2
DI_LGTOPO_CONTRAV
 70
0
 10
0.0
 20
0.0
 30
0.0
  3
DI_LGTOPO_CONTRAV
  1

  0
LINE
  5
32
330
2F
100
AcDbEntity
  8
Contraventamento
  6
Continuous
 62
7
370
25
100
AcDbLine
 10
-4.547e-13
 20
106.2999560000366
 30
0.0
 11
-675.88905508819
 21
106.2999560000367
 31
0.0
1001
AcDbBlockRepETag
1070
1
1071
8
1005
680
  0
LINE
  5
33
330
2F
100
AcDbEntity
  8
Contraventamento
  6
Continuous
 62
7
370
25
100
AcDbLine
 10
-4.547e-13
 20
86.34999590003763
 30
0.0
 11
-652.3871948784526
 21
86.34999590003763
 31
0.0
1001
AcDbBlockRepETag
1070
1
1071
13
1005
685
  0
LINE
  5
34
330
2F
100
AcDbEntity
  8
Contraventamento
  6
Continuous
 62
7
370
25
100
AcDbLine
 10
-653.564390023128
 20
104.2499601000373
 30
0.0
 11
-653.564390023128
 21
86.34999590003763
 31
0.0
1001
AcDbBlockRepETag
1070
1
1071
14
1005
686
  0
LINE
  5
35
330
2F
100
AcDbEntity
  8
Contraventamento
  6
Continuous
 62
7
370
25
100
AcDbLine
 10
-652.3871948784536
 20
104.2499601000373
 30
0.0
 11
-652.3871948784536
 21
86.34999590003763
 31
0.0
1001
AcDbBlockRepETag
1070
1
1071
15
1005
687
  0
LINE
  5
36
330
2F
100
AcDbEntity
  8
Contraventamento
  6
Continuous
 62
7
370
25
100
AcDbLine
 10
-654.1109449117257
 20
85.69999720003631
 30
0.0
 11
-657.4624717873016
 21
85.69999720003631
 31
0.0
1001
AcDbBlockRepETag
1070
1
1071
16
1005
688
  0
LINE
  5
37
330
2F
100
AcDbEntity
  8
Contraventamento
  6
Continuous
 62
7
370
25
100
AcDbLine
 10
-654.1109449117257
 20
104.899958800037
 30
0.0
 11
-675.88905508819
 21
104.899958800037
 31
0.0
1001
AcDbBlockRepETag
1070
1
1071
17
1005
689
  0
LINE
  5
38
330
2F
100
AcDbEntity
  8
Contraventamento
  6
Continuous
 62
7
370
25
100
AcDbLine
 10
-657.8489444553201
 20
85.89037741150338
 30
0.0
 11
-658.1930119487865
 21
86.29956490233103
 31
0.0
1001
AcDbBlockRepETag
1070
1
1071
18
1005
68A
  0
LINE
  5
39
330
2F
100
AcDbEntity
  8
Contraventamento
  6
Continuous
 62
7
370
25
100
AcDbLine
 10
-658.6813471248969
 20
84.90042989774253
 30
0.0
 11
-659.025414618367
 21
85.30961738856836
 31
0.0
1001
AcDbBlockRepETag
1070
1
1071
19
1005
68B
  0
LINE
  5
3A
330
2F
100
AcDbEntity
  8
Contraventamento
  6
Continuous
 62
7
370
25
100
AcDbLine
 10
-659.4118872863855
 20
86.89999480003695
 30
0.0
 11
-670.5881127135334
 21
86.89999480003695
 31
0.0
1001
AcDbBlockRepETag
1070
1
1071
20
1005
68C
  0
LINE
  5
3B
330
2F
100
AcDbEntity
  8
Contraventamento
  6
Continuous
 62
7
370
25
100
AcDbLine
 10
-659.4118872863855
 20
85.49999760003728
 30
0.0
 11
-670.5881127135334
 21
85.49999760003728
 31
0.0
1001
AcDbBlockRepETag
1070
1
1071
21
1005
68D
  0
LINE
  5
3C
330
2F
100
AcDbEntity
  8
Contraventamento
  6
Continuous
 62
7
370
25
100
AcDbLine
 10
-670.974585381552
 20
85.30961738856836
 30
0.0
 11
-671.3186528750184
 21
84.90042989774253
 31
0.0
1001
AcDbBlockRepETag
1070
1
1071
22
1005
68E
  0
LINE
  5
3D
330
2F
100
AcDbEntity
  8
Contraventamento
  6
Continuous
 62
7
370
25
100
AcDbLine
 10
-671.8069880511325
 20
86.29956490233103
 30
0.0
 11
-672.1510555446025
 21
85.89037741150338
 31
0.0
1001
AcDbBlockRepETag
1070
1
1071
23
1005
68F
  0
LINE
  5
3E
330
2F
100
AcDbEntity
  8
Contraventamento
  6
Continuous
 62
7
370
25
100
AcDbLine
 10
-672.537528212621
 20
85.69999720003631
 30
0.0
 11
-675.88905508819
 21
85.69999720003631
 31
0.0
1001
AcDbBlockRepETag
1070
1
1071
24
1005
690
  0
LINE
  5
3F
330
2F
100
AcDbEntity
  8
Contraventamento
  6
Continuous
 62
7
370
25
100
AcDbLine
 10
-676.4356099767874
 20
86.34999590003763
 30
0.0
 11
-676.4356099767874
 21
104.2499601000373
 31
0.0
1001
AcDbBlockRepETag
1070
1
1071
25
1005
691
  0
LINE
  5
40
330
2F
100
AcDbEntity
  8
Contraventamento
  6
Continuous
 62
7
370
25
100
AcDbLine
 10
-677.612805121466
 20
86.34999590003763
 30
0.0
 11
-677.612805121466
 21
104.2499601000373
 31
0.0
1001
AcDbBlockRepETag
1070
1
1071
26
1005
692
  0
ARC
  5
41
330
2F
100
AcDbEntity
  8
Contraventamento
  6
Continuous
 62
7
370
25
100
AcDbCircle
 10
-654.1675613954135
 20
86.30238962645564
 30
0.0
 40
0.6050471565369405
100
AcDbArc
 50
275.3692314874695
 51
4.512806634298769
1001
AcDbBlockRepETag
1070
1
1071
43
1005
6A3
  0
ARC
  5
42
330
2F
100
AcDbEntity
  8
Contraventamento
  6
Continuous
 62
7
370
25
100
AcDbCircle
 10
-654.289504591069
 20
86.19985303721823
 30
0.0
 40
1.908225647551074
100
AcDbArc
 50
275.3692314880451
 51
4.51280663379022
1001
AcDbBlockRepETag
1070
1
1071
44
1005
6A4
  0
ARC
  5
43
330
2F
100
AcDbEntity
  8
Contraventamento
  6
Continuous
 62
7
370
25
100
AcDbCircle
 10
-654.1675613954171
 20
104.2975663736175
 30
0.0
 40
0.6050471565371442
100
AcDbArc
 50
355.4871933657012
 51
84.63076851216427
1001
AcDbBlockRepETag
1070
1
1071
45
1005
6A5
  0
ARC
  5
44
330
2F
100
AcDbEntity
  8
Contraventamento
  6
Continuous
 62
7
370
25
100
AcDbCircle
 10
-654.2895045910655
 20
104.4001029628587
 30
0.0
 40
1.908225647548017
100
AcDbArc
 50
355.4871933660929
 51
84.63076851205959
1001
AcDbBlockRepETag
1070
1
1071
46
1005
6A6
  0
ARC
  5
45
330
2F
100
AcDbEntity
  8
Contraventamento
  6
Continuous
 62
7
370
25
100
AcDbCircle
 10
-657.4526860073165
 20
86.20732309161104
 30
0.0
 40
0.5074202614724046
100
AcDbArc
 50
218.6544228312302
 51
268.8949620340586
1001
AcDbBlockRepETag
1070
1
1071
47
1005
6A7
  0
ARC
  5
46
330
2F
100
AcDbEntity
  8
Contraventamento
  6
Continuous
 62
7
370
25
100
AcDbCircle
 10
-657.4316089427493
 20
85.90002781189793
 30
0.0
 40
1.600325439998157
100
AcDbArc
 50
218.6544228307297
 51
268.8949620346319
1001
AcDbBlockRepETag
1070
1
1071
48
1005
6A8
  0
ARC
  5
47
330
2F
100
AcDbEntity
  8
Contraventamento
  6
Continuous
 62
7
370
25
100
AcDbCircle
 10
-659.4427501309455
 20
85.29996698815017
 30
0.0
 40
1.600325440022849
100
AcDbArc
 50
38.65442283125061
 51
88.89496203439732
1001
AcDbBlockRepETag
1070
1
1071
49
1005
6A9
  0
ARC
  5
48
330
2F
100
AcDbEntity
  8
Contraventamento
  6
Continuous
 62
7
370
25
100
AcDbCircle
 10
-659.4216730663711
 20
84.99267170845707
 30
0.0
 40
0.5074202614758854
100
AcDbArc
 50
38.65442283170941
 51
88.89496203405855
1001
AcDbBlockRepETag
1070
1
1071
50
1005
6AA
  0
ARC
  5
49
330
2F
100
AcDbEntity
  8
Contraventamento
  6
Continuous
 62
7
370
25
100
AcDbCircle
 10
-670.5783269335483
 20
84.99267170845889
 30
0.0
 40
0.5074202614772494
100
AcDbArc
 50
91.10503796591534
 51
141.3455771686863
1001
AcDbBlockRepETag
1070
1
1071
51
1005
6AB
  0
ARC
  5
4A
330
2F
100
AcDbEntity
  8
Contraventamento
  6
Continuous
 62
7
370
25
100
AcDbCircle
 10
-670.5572498689702
 20
85.2999669881447
 30
0.0
 40
1.600325440027543
100
AcDbArc
 50
91.10503796573292
 51
141.3455771687077
1001
AcDbBlockRepETag
1070
1
1071
52
1005
6AC
  0
ARC
  5
4B
330
2F
100
AcDbEntity
  8
Contraventamento
  6
Continuous
 62
7
370
25
100
AcDbCircle
 10
-672.5683910571738
 20
85.90002781191248
 30
0.0
 40
1.600325440012772
100
AcDbArc
 50
271.105037965342
 51
321.34557716902
1001
AcDbBlockRepETag
1070
1
1071
53
1005
6AD
  0
ARC
  5
4C
330
2F
100
AcDbEntity
  8
Contraventamento
  6
Continuous
 62
7
370
25
100
AcDbCircle
 10
-672.5473139926029
 20
86.2073230916074
 30
0.0
 40
0.5074202614699047
100
AcDbArc
 50
271.1050379655244
 51
321.3455771690831
1001
AcDbBlockRepETag
1070
1
1071
54
1005
6AE
  0
ARC
  5
4D
330
2F
100
AcDbEntity
  8
Contraventamento
  6
Continuous
 62
7
370
25
100
AcDbCircle
 10
-675.7104954088572
 20
104.4001029628623
 30
0.0
 40
1.908225647543714
100
AcDbArc
 50
95.36923148773106
 51
184.512806634024
1001
AcDbBlockRepETag
1070
1
1071
55
1005
6AF
  0
ARC
  5
4E
330
2F
100
AcDbEntity
  8
Contraventamento
  6
Continuous
 62
7
370
25
100
AcDbCircle
 10
-675.8324386044982
 20
104.2975663736175
 30
0.0
 40
0.6050471565369047
100
AcDbArc
 50
95.36923148783573
 51
184.5128066341299
1001
AcDbBlockRepETag
1070
1
1071
56
1005
6B0
  0
ARC
  5
4F
330
2F
100
AcDbEntity
  8
Contraventamento
  6
Continuous
 62
7
370
25
100
AcDbCircle
 10
-675.8324386044982
 20
86.30238962645564
 30
0.0
 40
0.6050471565369405
100
AcDbArc
 50
175.4871933657012
 51
264.6307685121643
1001
AcDbBlockRepETag
1070
1
1071
57
1005
6B1
  0
ARC
  5
50
330
2F
100
AcDbEntity
  8
Contraventamento
  6
Continuous
 62
7
370
25
100
AcDbCircle
 10
-675.7104954088463
 20
86.19985303721823
 30
0.0
 40
1.90822564755379
100
AcDbArc
 50
175.4871933662248
 51
264.6307685119548
1001
AcDbBlockRepETag
1070
1
1071
58
1005
6B2
  0
LINE
  5
51
330
2F
100
AcDbEntity
  8
Contraventamento
100
AcDbLine
 10
-657.4624717873016
 20
84.30000000003662
 30
0.0
 11
-654.1109449117257
 21
84.30000000003662
 31
0.0
1001
AcDbBlockRepETag
1070
1
1071
59
1005
6B3
  0
LINE
  5
52
330
2F
100
AcDbEntity
  8
Contraventamento
100
AcDbLine
 10
-675.88905508819
 20
84.30000000003479
 30
0.0
 11
-672.537528212621
 21
84.30000000003662
 31
0.0
1001
AcDbBlockRepETag
1070
1
1071
60
1005
6B4
  0
LINE
  5
53
330
2F
100
AcDbEntity
  8
Contraventamento
  6
Continuous
 62
7
370
25
100
AcDbLine
 10
-668.9150376331768
 20
87.15766236915857
 30
0.0
 11
-668.5166551046923
 21
86.89999480003695
 31
0.0
1001
AcDbBlockRepETag
1070
1
1071
93
1005
6D5
  0
LINE
  5
54
330
2F
100
AcDbEntity
  8
Contraventamento
  6
Continuous
 62
7
370
25
100
AcDbLine
 10
-662.9454343922944
 20
91.1915569304063
 30
0.0
 11
-663.2679952491771
 21
91.44561847318852
 31
0.0
1001
AcDbBlockRepETag
1070
1
1071
94
1005
6D6
  0
LINE
  5
55
330
2F
100
AcDbEntity
  8
Contraventamento
  6
Continuous
 62
7
370
25
100
AcDbLine
 10
-666.6215792477096
 20
91.44561847318852
 30
0.0
 11
-667.3260324859428
 21
90.89076355913112
 31
0.0
1001
AcDbBlockRepETag
1070
1
1071
95
1005
6D7
  0
LINE
  5
56
330
2F
100
AcDbEntity
  8
Contraventamento
  6
Continuous
 62
7
370
25
100
AcDbLine
 10
-668.5166551046923
 20
86.89999480003695
 30
0.0
 11
-661.4833448952272
 21
86.89999480003695
 31
0.0
1001
AcDbBlockRepETag
1070
1
1071
96
1005
6D8
  0
LINE
  5
57
330
2F
100
AcDbEntity
  8
Contraventamento
  6
Continuous
 62
7
370
25
100
AcDbLine
 10
-665.9624032759447
 20
87.15766236164251
 30
0.0
 11
-667.4387204620407
 21
86.89999480003695
 31
0.0
1001
AcDbBlockRepETag
1070
1
1071
97
1005
6D9
  0
LINE
  5
58
330
2F
100
AcDbEntity
  8
Contraventamento
  6
Continuous
 62
7
370
25
100
AcDbLine
 10
-667.4387204620407
 20
86.89999480003695
 30
0.0
 11
-668.9150376331768
 21
87.15766236915857
 31
0.0
1001
AcDbBlockRepETag
1070
1
1071
98
1005
6DA
  0
LINE
  5
59
330
2F
100
AcDbEntity
  8
Contraventamento
  6
Continuous
 62
7
370
25
100
AcDbLine
 10
-668.9150376331768
 20
87.15766236915857
 30
0.0
 11
-668.9150376331768
 21
89.43632164291722
 31
0.0
1001
AcDbBlockRepETag
1070
1
1071
99
1005
6DB
  0
LINE
  5
5A
330
2F
100
AcDbEntity
  8
Contraventamento
  6
Continuous
 62
7
370
25
100
AcDbLine
 10
-667.4387204620407
 20
89.69398921203862
 30
0.0
 11
-668.9150376331768
 21
89.43632164291722
 31
0.0
1001
AcDbBlockRepETag
1070
1
1071
100
1005
6DC
  0
LINE
  5
5B
330
2F
100
AcDbEntity
  8
Contraventamento
  6
Continuous
 62
7
370
25
100
AcDbLine
 10
-665.9624032759447
 20
89.43632165043692
 30
0.0
 11
-667.4387204620407
 21
89.69398921203862
 31
0.0
1001
AcDbBlockRepETag
1070
1
1071
101
1005
6DD
  0
LINE
  5
5C
330
2F
100
AcDbEntity
  8
Contraventamento
  6
Continuous
 62
7
370
25
100
AcDbLine
 10
-665.9624032759447
 20
87.15766236164251
 30
0.0
 11
-665.9624032759447
 21
89.43632165043692
 31
0.0
1001
AcDbBlockRepETag
1070
1
1071
102
1005
6DE
  0
LINE
  5
5D
330
2F
100
AcDbEntity
  8
Contraventamento
  6
Continuous
 62
7
370
25
100
AcDbLine
 10
-667.4387204620407
 20
89.69398921203862
 30
0.0
 11
-663.9772781088254
 21
89.69398921203862
 31
0.0
1001
AcDbBlockRepETag
1070
1
1071
103
1005
6DF
  0
LINE
  5
5E
330
2F
100
AcDbEntity
  8
Contraventamento
  6
Continuous
 62
7
370
25
100
AcDbLine
 10
-663.9772781088254
 20
89.69398921203862
 30
0.0
 11
-665.9624032759447
 21
89.43632165043692
 31
0.0
1001
AcDbBlockRepETag
1070
1
1071
104
1005
6E0
  0
LINE
  5
5F
330
2F
100
AcDbEntity
  8
Contraventamento
  6
Continuous
 62
7
370
25
100
AcDbLine
 10
-661.9921529142953
 20
87.15766236164251
 30
0.0
 11
-663.9772781088254
 21
86.89999480003695
 31
0.0
1001
AcDbBlockRepETag
1070
1
1071
105
1005
6E1
  0
LINE
  5
60
330
2F
100
AcDbEntity
  8
Contraventamento
  6
Continuous
 62
7
370
25
100
AcDbLine
 10
-663.9772781088254
 20
86.89999480003695
 30
0.0
 11
-665.9624032759447
 21
87.15766236164251
 31
0.0
1001
AcDbBlockRepETag
1070
1
1071
106
1005
6E2
  0
LINE
  5
61
330
2F
100
AcDbEntity
  8
Contraventamento
  6
Continuous
 62
7
370
25
100
AcDbLine
 10
-661.9921529142953
 20
89.43632165043692
 30
0.0
 11
-663.9772781088254
 21
89.69398921203862
 31
0.0
1001
AcDbBlockRepETag
1070
1
1071
107
1005
6E3
  0
LINE
  5
62
330
2F
100
AcDbEntity
  8
Contraventamento
  6
Continuous
 62
7
370
25
100
AcDbLine
 10
-661.9921529142953
 20
87.15766236164251
 30
0.0
 11
-661.9921529142953
 21
89.43632165043692
 31
0.0
1001
AcDbBlockRepETag
1070
1
1071
108
1005
6E4
  0
LINE
  5
63
330
2F
100
AcDbEntity
  8
Contraventamento
  6
Continuous
 62
7
370
25
100
AcDbLine
 10
-661.4833448952272
 20
89.69398921203862
 30
0.0
 11
-661.9921529142953
 21
89.43632165043692
 31
0.0
1001
AcDbBlockRepETag
1070
1
1071
109
1005
6E5
  0
LINE
  5
64
330
2F
100
AcDbEntity
  8
Contraventamento
  6
Continuous
 62
7
370
25
100
AcDbLine
 10
-663.9772781088254
 20
89.69398921203862
 30
0.0
 11
-661.4833448952272
 21
89.69398921203862
 31
0.0
1001
AcDbBlockRepETag
1070
1
1071
110
1005
6E6
  0
LINE
  5
65
330
2F
100
AcDbEntity
  8
Contraventamento
  6
Continuous
 62
7
370
25
100
AcDbLine
 10
-661.4833448952272
 20
86.89999480003695
 30
0.0
 11
-661.9921529142953
 21
87.15766236164251
 31
0.0
1001
AcDbBlockRepETag
1070
1
1071
111
1005
6E7
  0
LINE
  5
66
330
2F
100
AcDbEntity
  8
Contraventamento
  6
Continuous
 62
7
370
25
100
AcDbLine
 10
-660.974536886793
 20
87.15766236164251
 30
0.0
 11
-661.4833448952272
 21
86.89999480003695
 31
0.0
1001
AcDbBlockRepETag
1070
1
1071
112
1005
6E8
  0
LINE
  5
67
330
2F
100
AcDbEntity
  8
Contraventamento
  6
Continuous
 62
7
370
25
100
AcDbLine
 10
-660.974536886793
 20
89.43632165043692
 30
0.0
 11
-661.4833448952272
 21
89.69398921203862
 31
0.0
1001
AcDbBlockRepETag
1070
1
1071
113
1005
6E9
  0
LINE
  5
68
330
2F
100
AcDbEntity
  8
Contraventamento
  6
Continuous
 62
7
370
25
100
AcDbLine
 10
-660.974536886793
 20
87.15766236164251
 30
0.0
 11
-660.974536886793
 21
89.43632165043692
 31
0.0
1001
AcDbBlockRepETag
1070
1
1071
114
1005
6EA
  0
LINE
  5
69
330
2F
100
AcDbEntity
  8
Contraventamento
  6
Continuous
 62
7
370
25
100
AcDbLine
 10
-668.9150376331768
 20
89.43632164291722
 30
0.0
 11
-668.5166551046923
 21
89.69398921203862
 31
0.0
1001
AcDbBlockRepETag
1070
1
1071
115
1005
6EB
  0
LINE
  5
6A
330
2F
100
AcDbEntity
  8
Contraventamento
  6
Continuous
 62
7
370
25
100
AcDbLine
 10
-668.5166551046923
 20
89.69398921203862
 30
0.0
 11
-667.4387204620407
 21
89.69398921203862
 31
0.0
1001
AcDbBlockRepETag
1070
1
1071
116
1005
6EC
  0
LINE
  5
6B
330
2F
100
AcDbEntity
  8
Contraventamento
  6
Continuous
 62
7
370
25
100
AcDbLine
 10
-667.3260324859428
 20
90.89076355913112
 30
0.0
 11
-662.563542010942
 21
90.89076355913112
 31
0.0
1001
AcDbBlockRepETag
1070
1
1071
117
1005
6ED
  0
LINE
  5
6C
330
2F
100
AcDbEntity
  8
Contraventamento
  6
Continuous
 62
7
370
25
100
AcDbLine
 10
-662.563542010942
 20
90.89076355913112
 30
0.0
 11
-662.9454343922944
 21
91.1915569304063
 31
0.0
1001
AcDbBlockRepETag
1070
1
1071
118
1005
6EE
  0
LINE
  5
6D
330
2F
100
AcDbEntity
  8
Contraventamento
  6
Continuous
 62
7
370
25
100
AcDbLine
 10
-666.6215792477096
 20
91.44561847318852
 30
0.0
 11
-663.2679952491771
 21
91.44561847318852
 31
0.0
1001
AcDbBlockRepETag
1070
1
1071
119
1005
6EF
  0
LINE
  5
6E
330
2F
100
AcDbEntity
  8
Contraventamento
  6
Continuous
 62
7
370
25
100
AcDbLine
 10
-667.3260324859428
 20
90.89076355913112
 30
0.0
 11
-667.3260324859428
 21
89.69398921203862
 31
0.0
1001
AcDbBlockRepETag
1070
1
1071
120
1005
6F0
  0
LINE
  5
6F
330
2F
100
AcDbEntity
  8
Contraventamento
  6
Continuous
 62
7
370
25
100
AcDbLine
 10
-662.563542010942
 20
90.89076355913112
 30
0.0
 11
-662.563542010942
 21
89.69398921203862
 31
0.0
1001
AcDbBlockRepETag
1070
1
1071
121
1005
6F1
  0
LINE
  5
70
330
2F
100
AcDbEntity
  8
LONGARINA
100
AcDbLine
 10
-685.0000000000005
 20
80.00000000001732
 30
0.0
 11
-685.0000000000005
 21
84.30000000002752
 31
0.0
1001
AcDbBlockRepETag
1070
1
1071
34
1005
613
  0
LINE
  5
71
330
2F
100
AcDbEntity
  8
LONGARINA
100
AcDbLine
 10
-685.0000000000005
 20
84.30000000002752
 30
0.0
 11
-645.0000000000005
 21
84.30000000002752
 31
0.0
1001
AcDbBlockRepETag
1070
1
1071
35
1005
614
  0
LINE
  5
72
330
2F
100
AcDbEntity
  8
LONGARINA
100
AcDbLine
 10
-645.0000000000005
 20
84.30000000002752
 30
0.0
 11
-645.0000000000005
 21
80.00000000001552
 31
0.0
1001
AcDbBlockRepETag
1070
1
1071
36
1005
615
  0
LINE
  5
73
330
2F
100
AcDbEntity
  8
LONGARINA
100
AcDbLine
 10
-645.0000000000005
 20
80.00000000001552
 30
0.0
 11
-685.0000000000005
 21
80.00000000001732
 31
0.0
1001
AcDbBlockRepETag
1070
1
1071
37
1005
616
  0
LINE
  5
74
330
2F
100
AcDbEntity
  8
LONGARINA
  6
CONTINU
370
-2
 48
2.0
100
AcDbLine
 10
-715.6842659550025
 20
67.60168768001591
 30
0.0
 11
-719.0539204941601
 21
53.77880924368497
 31
0.0
1001
AcDbBlockRepETag
1070
1
1071
42
1005
61B
  0
LINE
  5
75
330
2F
100
AcDbEntity
  8
LONGARINA
  6
CONTINU
370
-2
 48
2.0
100
AcDbLine
 10
-718.8738899901514
 20
53.37742492491367
 30
0.0
 11
-712.2340288773416
 21
20.59801243552926
 31
0.0
1001
AcDbBlockRepETag
1070
1
1071
43
1005
61C
  0
LINE
  5
76
330
2F
100
AcDbEntity
  8
LONGARINA
  6
CONTINU
370
-2
 48
2.0
100
AcDbLine
 10
-714.6842659550024
 20
17.60168768001591
 30
0.0
 11
-715.6842659550025
 21
17.60168768001591
 31
0.0
1001
AcDbBlockRepETag
1070
1
1071
44
1005
61D
  0
LINE
  5
77
330
2F
100
AcDbEntity
  8
LONGARINA
  6
CONTINU
370
-2
 48
2.0
100
AcDbLine
 10
-715.6842659550025
 20
17.60168768001591
 30
0.0
 11
-719.0539204941601
 21
3.778809243684975
 31
0.0
1001
AcDbBlockRepETag
1070
1
1071
45
1005
61E
  0
LINE
  5
78
330
2F
100
AcDbEntity
  8
LONGARINA
  6
CONTINU
370
-2
 48
2.0
100
AcDbLine
 10
-718.8738899901514
 20
3.377424924913668
 30
0.0
 11
-712.2340288773416
 21
-29.40198756447074
 31
0.0
1001
AcDbBlockRepETag
1070
1
1071
46
1005
61F
  0
LINE
  5
79
330
2F
100
AcDbEntity
  8
LONGARINA
  6
CONTINU
370
-2
 48
2.0
100
AcDbLine
 10
-715.6842659550025
 20
-32.39831231998409
 30
0.0
 11
-719.0539204941601
 21
-46.22119075631502
 31
0.0
1001
AcDbBlockRepETag
1070
1
1071
47
1005
620
  0
LINE
  5
7A
330
2F
100
AcDbEntity
  8
LONGARINA
  6
CONTINU
370
-2
 48
2.0
100
AcDbLine
 10
-718.8738899901514
 20
-46.62257507508633
 30
0.0
 11
-716.1641329566487
 21
-59.99999999995356
 31
0.0
1001
AcDbBlockRepETag
1070
1
1071
48
1005
621
  0
LINE
  5
7B
330
2F
100
AcDbEntity
  8
LONGARINA
  6
CONTINU
370
-2
 48
2.0
100
AcDbLine
 10
-716.1641329566487
 20
-59.99999999995356
 30
0.0
 11
-713.2773816107078
 21
-64.99999999995356
 31
0.0
1001
AcDbBlockRepETag
1070
1
1071
49
1005
622
  0
LINE
  5
7C
330
2F
100
AcDbEntity
  8
LONGARINA
  6
CONTINU
370
-2
 48
2.0
100
AcDbLine
 10
-706.5367513459646
 20
-64.99999999995356
 30
0.0
 11
-703.6499999999072
 21
-59.99999999998266
 31
0.0
1001
AcDbBlockRepETag
1070
1
1071
50
1005
623
  0
LINE
  5
7D
330
2F
100
AcDbEntity
  8
LONGARINA
  6
CONTINU
370
-2
 48
2.0
100
AcDbLine
 10
-703.6499999999072
 20
-59.99999999998266
 30
0.0
 11
-703.6499999999072
 21
80.00000000001732
 31
0.0
1001
AcDbBlockRepETag
1070
1
1071
51
1005
624
  0
LINE
  5
7E
330
2F
100
AcDbEntity
  8
LONGARINA
  6
CONTINU
370
-2
 48
2.0
100
AcDbLine
 10
-703.6499999999072
 20
80.00000000001732
 30
0.0
 11
-706.5367513459646
 21
85.00000000001732
 31
0.0
1001
AcDbBlockRepETag
1070
1
1071
52
1005
625
  0
LINE
  5
7F
330
2F
100
AcDbEntity
  8
LONGARINA
  6
CONTINU
370
-2
 48
2.0
100
AcDbLine
 10
-713.2773816107078
 20
85.00000000001732
 30
0.0
 11
-714.6646156308711
 21
82.597240195074
 31
0.0
1001
AcDbBlockRepETag
1070
1
1071
53
1005
626
  0
LINE
  5
80
330
2F
100
AcDbEntity
  8
LONGARINA
  6
CONTINU
370
-2
 48
2.0
100
AcDbLine
 10
-714.6646156308711
 20
82.597240195074
 30
0.0
 11
-712.2340274750026
 21
70.5980055117571
 31
0.0
1001
AcDbBlockRepETag
1070
1
1071
54
1005
627
  0
LINE
  5
81
330
2F
100
AcDbEntity
  8
LONGARINA
  6
CONTINU
370
-2
 48
2.0
100
AcDbLine
 10
-713.2773816107078
 20
-64.99999999995356
 30
0.0
 11
-706.7500000000005
 21
-64.99999999995356
 31
0.0
1001
AcDbBlockRepETag
1070
1
1071
55
1005
628
  0
LINE
  5
82
330
2F
100
AcDbEntity
  8
LONGARINA
  6
CONTINU
370
-2
 48
2.0
100
AcDbLine
 10
-706.7500000000005
 20
-64.99999999995356
 30
0.0
 11
-706.5367513459646
 21
-64.99999999995356
 31
0.0
1001
AcDbBlockRepETag
1070
1
1071
56
1005
629
  0
LINE
  5
83
330
2F
100
AcDbEntity
  8
LONGARINA
  6
CONTINU
370
-2
 48
2.0
100
AcDbLine
 10
-706.5367513459646
 20
85.00000000001732
 30
0.0
 11
-706.7500000000005
 21
85.00000000001732
 31
0.0
1001
AcDbBlockRepETag
1070
1
1071
57
1005
62A
  0
LINE
  5
84
330
2F
100
AcDbEntity
  8
LONGARINA
  6
CONTINU
370
-2
 48
2.0
100
AcDbLine
 10
-706.7500000000005
 20
85.00000000001732
 30
0.0
 11
-713.2773816107078
 21
85.00000000001732
 31
0.0
1001
AcDbBlockRepETag
1070
1
1071
58
1005
62B
  0
LINE
  5
85
330
2F
100
AcDbEntity
  8
LONGARINA
  6
CONTINU
370
-2
 48
2.0
100
AcDbLine
 10
-700.0000000000005
 20
-59.99999999998266
 30
0.0
 11
-700.0000000000005
 21
80.00000000001732
 31
0.0
1001
AcDbBlockRepETag
1070
1
1071
59
1005
62C
  0
LINE
  5
86
330
2F
100
AcDbEntity
  8
LONGARINA
  6
CONTINU
370
-2
 48
2.0
100
AcDbLine
 10
-703.6499999999072
 20
80.00000000001732
 30
0.0
 11
-700.0000000000005
 21
80.00000000001732
 31
0.0
1001
AcDbBlockRepETag
1070
1
1071
60
1005
62D
  0
LINE
  5
87
330
2F
100
AcDbEntity
  8
LONGARINA
  6
CONTINU
370
-2
 48
2.0
100
AcDbLine
 10
-700.0000000000005
 20
-59.99999999998266
 30
0.0
 11
-703.6499999999072
 21
-59.99999999995356
 31
0.0
1001
AcDbBlockRepETag
1070
1
1071
61
1005
62E
  0
LINE
  5
88
330
2F
100
AcDbEntity
  8
LONGARINA
  6
CONTINU
370
-2
 48
2.0
100
AcDbLine
 10
-716.6295724072265
 20
-32.16787144673884
 30
0.0
 11
-719.2304202429954
 21
-31.53385308685841
 31
0.0
1001
AcDbBlockRepETag
1070
1
1071
62
1005
62F
  0
LINE
  5
89
330
2F
100
AcDbEntity
  8
LONGARINA
  6
CONTINU
370
-2
 48
2.0
100
AcDbLine
 10
-719.6171466751262
 20
-45.84955585728761
 30
0.0
 11
-720.3417979913069
 21
-45.67290490808676
 31
0.0
1001
AcDbBlockRepETag
1070
1
1071
63
1005
630
  0
LINE
  5
8A
330
2F
100
AcDbEntity
  8
LONGARINA
  6
CONTINU
370
-2
 48
2.0
100
AcDbLine
 10
-722.5461542879934
 20
-45.13554076682789
 30
0.0
 11
-720.3417979913069
 21
-45.67290490808676
 31
0.0
1001
AcDbBlockRepETag
1070
1
1071
64
1005
631
  0
LINE
  5
8B
330
2F
100
AcDbEntity
  8
LONGARINA
  6
CONTINU
370
-2
 48
2.0
100
AcDbLine
 10
-722.5461542879934
 20
-45.13554076679878
 30
0.0
 11
-719.2304202429954
 21
-31.53385308685841
 31
0.0
1001
AcDbBlockRepETag
1070
1
1071
65
1005
632
  0
LINE
  5
8C
330
2F
100
AcDbEntity
  8
LONGARINA
  6
CONTINU
370
-2
 48
2.0
100
AcDbLine
 10
-716.6295724072265
 20
17.83212855326115
 30
0.0
 11
-719.2304202429954
 21
18.46614691314158
 31
0.0
1001
AcDbBlockRepETag
1070
1
1071
66
1005
633
  0
LINE
  5
8D
330
2F
100
AcDbEntity
  8
LONGARINA
  6
CONTINU
370
-2
 48
2.0
100
AcDbLine
 10
-716.6295724072265
 20
17.83212855326115
 30
0.0
 11
-715.6842659550025
 21
17.60168768001591
 31
0.0
1001
AcDbBlockRepETag
1070
1
1071
67
1005
634
  0
LINE
  5
8E
330
2F
100
AcDbEntity
  8
LONGARINA
  6
CONTINU
370
-2
 48
2.0
100
AcDbLine
 10
-719.6171466751262
 20
4.150444142712387
 30
0.0
 11
-722.5461542879934
 21
4.864459233113905
 31
0.0
1001
AcDbBlockRepETag
1070
1
1071
68
1005
635
  0
LINE
  5
8F
330
2F
100
AcDbEntity
  8
LONGARINA
  6
CONTINU
370
-2
 48
2.0
100
AcDbLine
 10
-722.5461542879934
 20
4.864459233113905
 30
0.0
 11
-719.2304202429954
 21
18.46614691314158
 31
0.0
1001
AcDbBlockRepETag
1070
1
1071
69
1005
636
  0
LINE
  5
90
330
2F
100
AcDbEntity
  8
LONGARINA
  6
CONTINU
370
-2
 48
2.0
100
AcDbLine
 10
-722.5461542918351
 20
54.86445923413254
 30
0.0
 11
-719.6171442423952
 21
54.1504423458419
 31
0.0
1001
AcDbBlockRepETag
1070
1
1071
70
1005
637
  0
LINE
  5
91
330
2F
100
AcDbEntity
  8
LONGARINA
  6
CONTINU
370
-2
 48
2.0
100
AcDbLine
 10
-722.5461542918351
 20
54.86445923410343
 30
0.0
 11
-719.2304202429954
 21
68.46614691314159
 31
0.0
1001
AcDbBlockRepETag
1070
1
1071
71
1005
638
  0
LINE
  5
92
330
2F
100
AcDbEntity
  8
LONGARINA
  6
CONTINU
370
-2
 48
2.0
100
AcDbLine
 10
-719.2304202429954
 20
68.46614691314159
 30
0.0
 11
-715.6842659550025
 21
67.60168767998681
 31
0.0
1001
AcDbBlockRepETag
1070
1
1071
72
1005
639
  0
ARC
  5
93
330
2F
100
AcDbEntity
  8
LONGARINA
  6
CONTINU
370
-2
 48
2.0
100
AcDbCircle
 10
-714.6842638729144
 20
70.1016832875203
 30
0.0
 40
2.499995607534359
100
AcDbArc
 50
269.9999522819791
 51
11.45099897179067
1001
AcDbBlockRepETag
1070
1
1071
73
1005
63A
  0
ARC
  5
94
330
2F
100
AcDbEntity
  8
LONGARINA
  6
CONTINU
370
-2
 48
2.0
100
AcDbCircle
 10
-719.8607693804665
 20
53.1723701724141
 30
0.0
 40
1.007957531003226
100
AcDbArc
 50
11.73795370550933
 51
76.01299690965894
1001
AcDbBlockRepETag
1070
1
1071
74
1005
63B
  0
ARC
  5
95
330
2F
100
AcDbEntity
  8
LONGARINA
  6
CONTINU
370
-2
 48
2.0
100
AcDbCircle
 10
-719.8607718131975
 20
3.172371969284597
 30
0.0
 40
1.007957531003226
100
AcDbArc
 50
11.73795370550933
 51
76.01299690965894
1001
AcDbBlockRepETag
1070
1
1071
75
1005
63C
  0
ARC
  5
96
330
2F
100
AcDbEntity
  8
LONGARINA
  6
CONTINU
370
-2
 48
2.0
100
AcDbCircle
 10
-719.8607718131975
 20
-46.8276280307154
 30
0.0
 40
1.007957531003226
100
AcDbArc
 50
11.73795370550933
 51
76.01299690965894
1001
AcDbBlockRepETag
1070
1
1071
76
1005
63D
  0
ARC
  5
97
330
2F
100
AcDbEntity
  8
LONGARINA
  6
CONTINU
370
-2
 48
2.0
100
AcDbCircle
 10
-714.6842638729144
 20
70.1016832874621
 30
0.0
 40
2.499995607447047
100
AcDbArc
 50
269.9999522819791
 51
11.45099897387805
1001
AcDbBlockRepETag
1070
1
1071
77
1005
63E
  0
ARC
  5
98
330
2F
100
AcDbEntity
  8
LONGARINA
  6
CONTINU
370
-2
 48
2.0
100
AcDbCircle
 10
-714.6842638729144
 20
20.10168328746209
 30
0.0
 40
2.499995607447047
100
AcDbArc
 50
269.9999522819791
 51
11.45099897387805
1001
AcDbBlockRepETag
1070
1
1071
78
1005
63F
  0
ARC
  5
99
330
2F
100
AcDbEntity
  8
LONGARINA
  6
CONTINU
370
-2
 48
2.0
100
AcDbCircle
 10
-714.6842638729144
 20
-29.89831671253791
 30
0.0
 40
2.499995607447047
100
AcDbArc
 50
269.9999522819791
 51
11.45099897387805
1001
AcDbBlockRepETag
1070
1
1071
79
1005
640
  0
LINE
  5
9A
330
2F
100
AcDbEntity
  8
LONGARINA
  6
CONTINU
370
-2
 48
2.0
100
AcDbLine
 10
0.0
 20
0.0
 30
0.0
 11
-700.0000000000005
 21
1.73372e-11
 31
0.0
1001
AcDbBlockRepETag
1070
1
1071
80
1005
641
  0
LINE
  5
9B
330
2F
100
AcDbEntity
  8
LONGARINA
  6
CONTINU
370
-2
 48
2.0
100
AcDbLine
 10
0.0
 20
79.99999999999994
 30
0.0
 11
-700.0000000000005
 21
80.00000000001732
 31
0.0
1001
AcDbBlockRepETag
1070
1
1071
81
1005
642
  0
ARC
  5
9C
330
2F
100
AcDbEntity
  8
LONGARINA
  6
CONTINU
370
-2
 48
2.0
100
AcDbCircle
 10
-719.3654936058451
 20
-26.89423273726146
 30
0.0
 40
4.000000000006086
100
AcDbArc
 50
345.0994033113385
 51
165.0994033113385
1001
AcDbBlockRepETag
1070
1
1071
82
1005
643
  0
ARC
  5
9D
330
2F
100
AcDbEntity
  8
LONGARINA
  6
CONTINU
370
-2
 48
2.0
100
AcDbCircle
 10
-723.8654936058451
 20
-43.80576726259909
 30
0.0
 40
4.000000000006086
100
AcDbArc
 50
165.0994033113385
 51
332.1259905656977
1001
AcDbBlockRepETag
1070
1
1071
83
1005
644
  0
LINE
  5
9E
330
2F
100
AcDbEntity
  8
LONGARINA
  6
CONTINU
370
-2
 48
2.0
100
AcDbLine
 10
-715.5000000000005
 20
-27.92280416584703
 30
0.0
 11
-716.629572407343
 21
-32.16787144670974
 31
0.0
1001
AcDbBlockRepETag
1070
1
1071
84
1005
645
  0
LINE
  5
9F
330
2F
100
AcDbEntity
  8
LONGARINA
  6
CONTINU
370
-2
 48
2.0
100
AcDbLine
 10
-727.7309872115734
 20
-42.77719583401352
 30
0.0
 11
-723.2309872116898
 21
-25.865661308705
 31
0.0
1001
AcDbBlockRepETag
1070
1
1071
85
1005
646
  0
LINE
  5
A0
330
2F
100
AcDbEntity
  8
Contraventamento
  6
Continuous
 62
7
370
25
100
AcDbLine
 10
-4.547e-13
 20
106.2999560000365
 30
0.0
 11
675.8890550881893
 21
106.2999560000367
 31
0.0
1001
AcDbBlockRepETag
1070
1
1071
8
1005
680
  0
LINE
  5
A1
330
2F
100
AcDbEntity
  8
Contraventamento
  6
Continuous
 62
7
370
25
100
AcDbLine
 10
-4.547e-13
 20
86.34999590003753
 30
0.0
 11
652.3871948784521
 21
86.34999590003763
 31
0.0
1001
AcDbBlockRepETag
1070
1
1071
13
1005
685
  0
LINE
  5
A2
330
2F
100
AcDbEntity
  8
Contraventamento
  6
Continuous
 62
7
370
25
100
AcDbLine
 10
653.5643900231275
 20
104.2499601000373
 30
0.0
 11
653.5643900231275
 21
86.34999590003763
 31
0.0
1001
AcDbBlockRepETag
1070
1
1071
14
1005
686
  0
LINE
  5
A3
330
2F
100
AcDbEntity
  8
Contraventamento
  6
Continuous
 62
7
370
25
100
AcDbLine
 10
652.3871948784521
 20
104.2499601000373
 30
0.0
 11
652.3871948784521
 21
86.34999590003763
 31
0.0
1001
AcDbBlockRepETag
1070
1
1071
15
1005
687
  0
LINE
  5
A4
330
2F
100
AcDbEntity
  8
Contraventamento
  6
Continuous
 62
7
370
25
100
AcDbLine
 10
654.1109449117243
 20
85.69999720003631
 30
0.0
 11
657.4624717873007
 21
85.69999720003631
 31
0.0
1001
AcDbBlockRepETag
1070
1
1071
16
1005
688
  0
LINE
  5
A5
330
2F
100
AcDbEntity
  8
Contraventamento
  6
Continuous
 62
7
370
25
100
AcDbLine
 10
654.1109449117243
 20
104.899958800037
 30
0.0
 11
675.8890550881893
 21
104.899958800037
 31
0.0
1001
AcDbBlockRepETag
1070
1
1071
17
1005
689
  0
LINE
  5
A6
330
2F
100
AcDbEntity
  8
Contraventamento
  6
Continuous
 62
7
370
25
100
AcDbLine
 10
657.8489444553192
 20
85.89037741150338
 30
0.0
 11
658.1930119487856
 21
86.29956490233103
 31
0.0
1001
AcDbBlockRepETag
1070
1
1071
18
1005
68A
  0
LINE
  5
A7
330
2F
100
AcDbEntity
  8
Contraventamento
  6
Continuous
 62
7
370
25
100
AcDbLine
 10
658.6813471248965
 20
84.90042989774253
 30
0.0
 11
659.0254146183665
 21
85.30961738856836
 31
0.0
1001
AcDbBlockRepETag
1070
1
1071
19
1005
68B
  0
LINE
  5
A8
330
2F
100
AcDbEntity
  8
Contraventamento
  6
Continuous
 62
7
370
25
100
AcDbLine
 10
659.4118872863851
 20
86.89999480003695
 30
0.0
 11
670.5881127135322
 21
86.89999480003695
 31
0.0
1001
AcDbBlockRepETag
1070
1
1071
20
1005
68C
  0
LINE
  5
A9
330
2F
100
AcDbEntity
  8
Contraventamento
  6
Continuous
 62
7
370
25
100
AcDbLine
 10
659.4118872863851
 20
85.49999760003728
 30
0.0
 11
670.5881127135322
 21
85.49999760003728
 31
0.0
1001
AcDbBlockRepETag
1070
1
1071
21
1005
68D
  0
LINE
  5
AA
330
2F
100
AcDbEntity
  8
Contraventamento
  6
Continuous
 62
7
370
25
100
AcDbLine
 10
670.9745853815507
 20
85.30961738856836
 30
0.0
 11
671.318652875017
 21
84.90042989774253
 31
0.0
1001
AcDbBlockRepETag
1070
1
1071
22
1005
68E
  0
LINE
  5
AB
330
2F
100
AcDbEntity
  8
Contraventamento
  6
Continuous
 62
7
370
25
100
AcDbLine
 10
671.8069880511316
 20
86.29956490233103
 30
0.0
 11
672.1510555446016
 21
85.89037741150338
 31
0.0
1001
AcDbBlockRepETag
1070
1
1071
23
1005
68F
  0
LINE
  5
AC
330
2F
100
AcDbEntity
  8
Contraventamento
  6
Continuous
 62
7
370
25
100
AcDbLine
 10
672.5375282126201
 20
85.69999720003631
 30
0.0
 11
675.8890550881893
 21
85.69999720003631
 31
0.0
1001
AcDbBlockRepETag
1070
1
1071
24
1005
690
  0
LINE
  5
AD
330
2F
100
AcDbEntity
  8
Contraventamento
  6
Continuous
 62
7
370
25
100
AcDbLine
 10
676.435609976786
 20
86.34999590003763
 30
0.0
 11
676.435609976786
 21
104.2499601000373
 31
0.0
1001
AcDbBlockRepETag
1070
1
1071
25
1005
691
  0
LINE
  5
AE
330
2F
100
AcDbEntity
  8
Contraventamento
  6
Continuous
 62
7
370
25
100
AcDbLine
 10
677.612805121465
 20
86.34999590003763
 30
0.0
 11
677.612805121465
 21
104.2499601000373
 31
0.0
1001
AcDbBlockRepETag
1070
1
1071
26
1005
692
  0
ARC
  5
AF
330
2F
100
AcDbEntity
  8
Contraventamento
  6
Continuous
 62
7
370
25
100
AcDbCircle
 10
654.1675613954126
 20
86.30238962645564
 30
0.0
 40
0.6050471565369405
100
AcDbArc
 50
175.4871933657012
 51
264.6307685125308
1001
AcDbBlockRepETag
1070
1
1071
43
1005
6A3
  0
ARC
  5
B0
330
2F
100
AcDbEntity
  8
Contraventamento
  6
Continuous
 62
7
370
25
100
AcDbCircle
 10
654.2895045910677
 20
86.19985303721823
 30
0.0
 40
1.908225647551074
100
AcDbArc
 50
175.4871933662097
 51
264.6307685119548
1001
AcDbBlockRepETag
1070
1
1071
44
1005
6A4
  0
ARC
  5
B1
330
2F
100
AcDbEntity
  8
Contraventamento
  6
Continuous
 62
7
370
25
100
AcDbCircle
 10
654.1675613954161
 20
104.2975663736175
 30
0.0
 40
0.6050471565371442
100
AcDbArc
 50
95.36923148783573
 51
184.5128066342987
1001
AcDbBlockRepETag
1070
1
1071
45
1005
6A5
  0
ARC
  5
B2
330
2F
100
AcDbEntity
  8
Contraventamento
  6
Continuous
 62
7
370
25
100
AcDbCircle
 10
654.2895045910641
 20
104.4001029628587
 30
0.0
 40
1.908225647548017
100
AcDbArc
 50
95.36923148794043
 51
184.5128066339038
1001
AcDbBlockRepETag
1070
1
1071
46
1005
6A6
  0
ARC
  5
B3
330
2F
100
AcDbEntity
  8
Contraventamento
  6
Continuous
 62
7
370
25
100
AcDbCircle
 10
657.452686007316
 20
86.20732309161104
 30
0.0
 40
0.5074202614724046
100
AcDbArc
 50
271.1050379659415
 51
321.3455771687646
1001
AcDbBlockRepETag
1070
1
1071
47
1005
6A7
  0
ARC
  5
B4
330
2F
100
AcDbEntity
  8
Contraventamento
  6
Continuous
 62
7
370
25
100
AcDbCircle
 10
657.431608942748
 20
85.90002781189793
 30
0.0
 40
1.600325439998157
100
AcDbArc
 50
271.1050379653681
 51
321.3455771692651
1001
AcDbBlockRepETag
1070
1
1071
48
1005
6A8
  0
ARC
  5
B5
330
2F
100
AcDbEntity
  8
Contraventamento
  6
Continuous
 62
7
370
25
100
AcDbCircle
 10
659.4427501309451
 20
85.29996698815017
 30
0.0
 40
1.600325440022849
100
AcDbArc
 50
91.10503796557656
 51
141.3455771687519
1001
AcDbBlockRepETag
1070
1
1071
49
1005
6A9
  0
ARC
  5
B6
330
2F
100
AcDbEntity
  8
Contraventamento
  6
Continuous
 62
7
370
25
100
AcDbCircle
 10
659.4216730663697
 20
84.99267170845707
 30
0.0
 40
0.5074202614758854
100
AcDbArc
 50
91.10503796594143
 51
141.3455771682692
1001
AcDbBlockRepETag
1070
1
1071
50
1005
6AA
  0
ARC
  5
B7
330
2F
100
AcDbEntity
  8
Contraventamento
  6
Continuous
 62
7
370
25
100
AcDbCircle
 10
670.5783269335475
 20
84.99267170845889
 30
0.0
 40
0.5074202614772494
100
AcDbArc
 50
38.65442283131877
 51
88.8949620341107
1001
AcDbBlockRepETag
1070
1
1071
51
1005
6AB
  0
ARC
  5
B8
330
2F
100
AcDbEntity
  8
Contraventamento
  6
Continuous
 62
7
370
25
100
AcDbCircle
 10
670.5572498689694
 20
85.2999669881447
 30
0.0
 40
1.600325440027543
100
AcDbArc
 50
38.65442283131368
 51
88.89496203426707
1001
AcDbBlockRepETag
1070
1
1071
52
1005
6AC
  0
ARC
  5
B9
330
2F
100
AcDbEntity
  8
Contraventamento
  6
Continuous
 62
7
370
25
100
AcDbCircle
 10
672.5683910571729
 20
85.90002781191248
 30
0.0
 40
1.600325440012772
100
AcDbArc
 50
218.6544228309851
 51
268.894962034684
1001
AcDbBlockRepETag
1070
1
1071
53
1005
6AD
  0
ARC
  5
BA
330
2F
100
AcDbEntity
  8
Contraventamento
  6
Continuous
 62
7
370
25
100
AcDbCircle
 10
672.5473139926021
 20
86.2073230916074
 30
0.0
 40
0.5074202614699047
100
AcDbArc
 50
218.6544228309144
 51
268.8949620344756
1001
AcDbBlockRepETag
1070
1
1071
54
1005
6AE
  0
ARC
  5
BB
330
2F
100
AcDbEntity
  8
Contraventamento
  6
Continuous
 62
7
370
25
100
AcDbCircle
 10
675.7104954088568
 20
104.4001029628623
 30
0.0
 40
1.908225647543714
100
AcDbArc
 50
355.487193365976
 51
84.63076851226894
1001
AcDbBlockRepETag
1070
1
1071
55
1005
6AF
  0
ARC
  5
BC
330
2F
100
AcDbEntity
  8
Contraventamento
  6
Continuous
 62
7
370
25
100
AcDbCircle
 10
675.8324386044973
 20
104.2975663736175
 30
0.0
 40
0.6050471565369047
100
AcDbArc
 50
355.48719336587
 51
84.63076851216427
1001
AcDbBlockRepETag
1070
1
1071
56
1005
6B0
  0
ARC
  5
BD
330
2F
100
AcDbEntity
  8
Contraventamento
  6
Continuous
 62
7
370
25
100
AcDbCircle
 10
675.8324386044973
 20
86.30238962645564
 30
0.0
 40
0.6050471565369405
100
AcDbArc
 50
275.3692314878358
 51
4.512806634298769
1001
AcDbBlockRepETag
1070
1
1071
57
1005
6B1
  0
ARC
  5
BE
330
2F
100
AcDbEntity
  8
Contraventamento
  6
Continuous
 62
7
370
25
100
AcDbCircle
 10
675.7104954088458
 20
86.19985303721823
 30
0.0
 40
1.90822564755379
100
AcDbArc
 50
275.3692314880451
 51
4.512806633775183
1001
AcDbBlockRepETag
1070
1
1071
58
1005
6B2
  0
LINE
  5
BF
330
2F
100
AcDbEntity
  8
Contraventamento
100
AcDbLine
 10
657.4624717873007
 20
84.30000000003662
 30
0.0
 11
654.1109449117243
 21
84.30000000003662
 31
0.0
1001
AcDbBlockRepETag
1070
1
1071
59
1005
6B3
  0
LINE
  5
C0
330
2F
100
AcDbEntity
  8
Contraventamento
100
AcDbLine
 10
675.8890550881893
 20
84.30000000003479
 30
0.0
 11
672.5375282126201
 21
84.30000000003662
 31
0.0
1001
AcDbBlockRepETag
1070
1
1071
60
1005
6B4
  0
LINE
  5
C1
330
2F
100
AcDbEntity
  8
Contraventamento
  6
Continuous
 62
7
370
25
100
AcDbLine
 10
668.9150376331759
 20
87.15766236915857
 30
0.0
 11
668.5166551046909
 21
86.89999480003695
 31
0.0
1001
AcDbBlockRepETag
1070
1
1071
93
1005
6D5
  0
LINE
  5
C2
330
2F
100
AcDbEntity
  8
Contraventamento
  6
Continuous
 62
7
370
25
100
AcDbLine
 10
662.945434392293
 20
91.1915569304063
 30
0.0
 11
663.2679952491757
 21
91.44561847318852
 31
0.0
1001
AcDbBlockRepETag
1070
1
1071
94
1005
6D6
  0
LINE
  5
C3
330
2F
100
AcDbEntity
  8
Contraventamento
  6
Continuous
 62
7
370
25
100
AcDbLine
 10
666.6215792477082
 20
91.44561847318852
 30
0.0
 11
667.3260324859415
 21
90.89076355913112
 31
0.0
1001
AcDbBlockRepETag
1070
1
1071
95
1005
6D7
  0
LINE
  5
C4
330
2F
100
AcDbEntity
  8
Contraventamento
  6
Continuous
 62
7
370
25
100
AcDbLine
 10
668.5166551046909
 20
86.89999480003695
 30
0.0
 11
661.4833448952262
 21
86.89999480003695
 31
0.0
1001
AcDbBlockRepETag
1070
1
1071
96
1005
6D8
  0
LINE
  5
C5
330
2F
100
AcDbEntity
  8
Contraventamento
  6
Continuous
 62
7
370
25
100
AcDbLine
 10
665.9624032759434
 20
87.15766236164251
 30
0.0
 11
667.4387204620393
 21
86.89999480003695
 31
0.0
1001
AcDbBlockRepETag
1070
1
1071
97
1005
6D9
  0
LINE
  5
C6
330
2F
100
AcDbEntity
  8
Contraventamento
  6
Continuous
 62
7
370
25
100
AcDbLine
 10
667.4387204620393
 20
86.89999480003695
 30
0.0
 11
668.9150376331759
 21
87.15766236915857
 31
0.0
1001
AcDbBlockRepETag
1070
1
1071
98
1005
6DA
  0
LINE
  5
C7
330
2F
100
AcDbEntity
  8
Contraventamento
  6
Continuous
 62
7
370
25
100
AcDbLine
 10
668.9150376331759
 20
87.15766236915857
 30
0.0
 11
668.9150376331759
 21
89.43632164291722
 31
0.0
1001
AcDbBlockRepETag
1070
1
1071
99
1005
6DB
  0
LINE
  5
C8
330
2F
100
AcDbEntity
  8
Contraventamento
  6
Continuous
 62
7
370
25
100
AcDbLine
 10
667.4387204620393
 20
89.69398921203862
 30
0.0
 11
668.9150376331759
 21
89.43632164291722
 31
0.0
1001
AcDbBlockRepETag
1070
1
1071
100
1005
6DC
  0
LINE
  5
C9
330
2F
100
AcDbEntity
  8
Contraventamento
  6
Continuous
 62
7
370
25
100
AcDbLine
 10
665.9624032759434
 20
89.43632165043692
 30
0.0
 11
667.4387204620393
 21
89.69398921203862
 31
0.0
1001
AcDbBlockRepETag
1070
1
1071
101
1005
6DD
  0
LINE
  5
CA
330
2F
100
AcDbEntity
  8
Contraventamento
  6
Continuous
 62
7
370
25
100
AcDbLine
 10
665.9624032759434
 20
87.15766236164251
 30
0.0
 11
665.9624032759434
 21
89.43632165043692
 31
0.0
1001
AcDbBlockRepETag
1070
1
1071
102
1005
6DE
  0
LINE
  5
CB
330
2F
100
AcDbEntity
  8
Contraventamento
  6
Continuous
 62
7
370
25
100
AcDbLine
 10
667.4387204620393
 20
89.69398921203862
 30
0.0
 11
663.9772781088245
 21
89.69398921203862
 31
0.0
1001
AcDbBlockRepETag
1070
1
1071
103
1005
6DF
  0
LINE
  5
CC
330
2F
100
AcDbEntity
  8
Contraventamento
  6
Continuous
 62
7
370
25
100
AcDbLine
 10
663.9772781088245
 20
89.69398921203862
 30
0.0
 11
665.9624032759434
 21
89.43632165043692
 31
0.0
1001
AcDbBlockRepETag
1070
1
1071
104
1005
6E0
  0
LINE
  5
CD
330
2F
100
AcDbEntity
  8
Contraventamento
  6
Continuous
 62
7
370
25
100
AcDbLine
 10
661.9921529142943
 20
87.15766236164251
 30
0.0
 11
663.9772781088245
 21
86.89999480003695
 31
0.0
1001
AcDbBlockRepETag
1070
1
1071
105
1005
6E1
  0
LINE
  5
CE
330
2F
100
AcDbEntity
  8
Contraventamento
  6
Continuous
 62
7
370
25
100
AcDbLine
 10
663.9772781088245
 20
86.89999480003695
 30
0.0
 11
665.9624032759434
 21
87.15766236164251
 31
0.0
1001
AcDbBlockRepETag
1070
1
1071
106
1005
6E2
  0
LINE
  5
CF
330
2F
100
AcDbEntity
  8
Contraventamento
  6
Continuous
 62
7
370
25
100
AcDbLine
 10
661.9921529142943
 20
89.43632165043692
 30
0.0
 11
663.9772781088245
 21
89.69398921203862
 31
0.0
1001
AcDbBlockRepETag
1070
1
1071
107
1005
6E3
  0
LINE
  5
D0
330
2F
100
AcDbEntity
  8
Contraventamento
  6
Continuous
 62
7
370
25
100
AcDbLine
 10
661.9921529142943
 20
87.15766236164251
 30
0.0
 11
661.9921529142943
 21
89.43632165043692
 31
0.0
1001
AcDbBlockRepETag
1070
1
1071
108
1005
6E4
  0
LINE
  5
D1
330
2F
100
AcDbEntity
  8
Contraventamento
  6
Continuous
 62
7
370
25
100
AcDbLine
 10
661.4833448952262
 20
89.69398921203862
 30
0.0
 11
661.9921529142943
 21
89.43632165043692
 31
0.0
1001
AcDbBlockRepETag
1070
1
1071
109
1005
6E5
  0
LINE
  5
D2
330
2F
100
AcDbEntity
  8
Contraventamento
  6
Continuous
 62
7
370
25
100
AcDbLine
 10
663.9772781088245
 20
89.69398921203862
 30
0.0
 11
661.4833448952262
 21
89.69398921203862
 31
0.0
1001
AcDbBlockRepETag
1070
1
1071
110
1005
6E6
  0
LINE
  5
D3
330
2F
100
AcDbEntity
  8
Contraventamento
  6
Continuous
 62
7
370
25
100
AcDbLine
 10
661.4833448952262
 20
86.89999480003695
 30
0.0
 11
661.9921529142943
 21
87.15766236164251
 31
0.0
1001
AcDbBlockRepETag
1070
1
1071
111
1005
6E7
  0
LINE
  5
D4
330
2F
100
AcDbEntity
  8
Contraventamento
  6
Continuous
 62
7
370
25
100
AcDbLine
 10
660.974536886792
 20
87.15766236164251
 30
0.0
 11
661.4833448952262
 21
86.89999480003695
 31
0.0
1001
AcDbBlockRepETag
1070
1
1071
112
1005
6E8
  0
LINE
  5
D5
330
2F
100
AcDbEntity
  8
Contraventamento
  6
Continuous
 62
7
370
25
100
AcDbLine
 10
660.974536886792
 20
89.43632165043692
 30
0.0
 11
661.4833448952262
 21
89.69398921203862
 31
0.0
1001
AcDbBlockRepETag
1070
1
1071
113
1005
6E9
  0
LINE
  5
D6
330
2F
100
AcDbEntity
  8
Contraventamento
  6
Continuous
 62
7
370
25
100
AcDbLine
 10
660.974536886792
 20
87.15766236164251
 30
0.0
 11
660.974536886792
 21
89.43632165043692
 31
0.0
1001
AcDbBlockRepETag
1070
1
1071
114
1005
6EA
  0
LINE
  5
D7
330
2F
100
AcDbEntity
  8
Contraventamento
  6
Continuous
 62
7
370
25
100
AcDbLine
 10
668.9150376331759
 20
89.43632164291722
 30
0.0
 11
668.5166551046909
 21
89.69398921203862
 31
0.0
1001
AcDbBlockRepETag
1070
1
1071
115
1005
6EB
  0
LINE
  5
D8
330
2F
100
AcDbEntity
  8
Contraventamento
  6
Continuous
 62
7
370
25
100
AcDbLine
 10
668.5166551046909
 20
89.69398921203862
 30
0.0
 11
667.4387204620393
 21
89.69398921203862
 31
0.0
1001
AcDbBlockRepETag
1070
1
1071
116
1005
6EC
  0
LINE
  5
D9
330
2F
100
AcDbEntity
  8
Contraventamento
  6
Continuous
 62
7
370
25
100
AcDbLine
 10
667.3260324859415
 20
90.89076355913112
 30
0.0
 11
662.5635420109406
 21
90.89076355913112
 31
0.0
1001
AcDbBlockRepETag
1070
1
1071
117
1005
6ED
  0
LINE
  5
DA
330
2F
100
AcDbEntity
  8
Contraventamento
  6
Continuous
 62
7
370
25
100
AcDbLine
 10
662.5635420109406
 20
90.89076355913112
 30
0.0
 11
662.945434392293
 21
91.1915569304063
 31
0.0
1001
AcDbBlockRepETag
1070
1
1071
118
1005
6EE
  0
LINE
  5
DB
330
2F
100
AcDbEntity
  8
Contraventamento
  6
Continuous
 62
7
370
25
100
AcDbLine
 10
666.6215792477082
 20
91.44561847318852
 30
0.0
 11
663.2679952491757
 21
91.44561847318852
 31
0.0
1001
AcDbBlockRepETag
1070
1
1071
119
1005
6EF
  0
LINE
  5
DC
330
2F
100
AcDbEntity
  8
Contraventamento
  6
Continuous
 62
7
370
25
100
AcDbLine
 10
667.3260324859415
 20
90.89076355913112
 30
0.0
 11
667.3260324859415
 21
89.69398921203862
 31
0.0
1001
AcDbBlockRepETag
1070
1
1071
120
1005
6F0
  0
LINE
  5
DD
330
2F
100
AcDbEntity
  8
Contraventamento
  6
Continuous
 62
7
370
25
100
AcDbLine
 10
662.5635420109406
 20
90.89076355913112
 30
0.0
 11
662.5635420109406
 21
89.69398921203862
 31
0.0
1001
AcDbBlockRepETag
1070
1
1071
121
1005
6F1
  0
LINE
  5
DE
330
2F
100
AcDbEntity
  8
LONGARINA
100
AcDbLine
 10
684.9999999999995
 20
80.00000000001732
 30
0.0
 11
684.9999999999995
 21
84.30000000002752
 31
0.0
1001
AcDbBlockRepETag
1070
1
1071
34
1005
613
  0
LINE
  5
DF
330
2F
100
AcDbEntity
  8
LONGARINA
100
AcDbLine
 10
684.9999999999995
 20
84.30000000002752
 30
0.0
 11
644.9999999999995
 21
84.30000000002752
 31
0.0
1001
AcDbBlockRepETag
1070
1
1071
35
1005
614
  0
LINE
  5
E0
330
2F
100
AcDbEntity
  8
LONGARINA
100
AcDbLine
 10
644.9999999999995
 20
84.30000000002752
 30
0.0
 11
644.9999999999995
 21
80.00000000001552
 31
0.0
1001
AcDbBlockRepETag
1070
1
1071
36
1005
615
  0
LINE
  5
E1
330
2F
100
AcDbEntity
  8
LONGARINA
100
AcDbLine
 10
644.9999999999995
 20
80.00000000001552
 30
0.0
 11
684.9999999999995
 21
80.00000000001732
 31
0.0
1001
AcDbBlockRepETag
1070
1
1071
37
1005
616
  0
LINE
  5
E2
330
2F
100
AcDbEntity
  8
LONGARINA
  6
CONTINU
370
-2
 48
2.0
100
AcDbLine
 10
715.6842659550015
 20
67.60168768001591
 30
0.0
 11
719.0539204941592
 21
53.77880924368497
 31
0.0
1001
AcDbBlockRepETag
1070
1
1071
42
1005
61B
  0
LINE
  5
E3
330
2F
100
AcDbEntity
  8
LONGARINA
  6
CONTINU
370
-2
 48
2.0
100
AcDbLine
 10
718.8738899901505
 20
53.37742492491367
 30
0.0
 11
712.2340288773407
 21
20.59801243552926
 31
0.0
1001
AcDbBlockRepETag
1070
1
1071
43
1005
61C
  0
LINE
  5
E4
330
2F
100
AcDbEntity
  8
LONGARINA
  6
CONTINU
370
-2
 48
2.0
100
AcDbLine
 10
714.6842659550015
 20
17.60168768001591
 30
0.0
 11
715.6842659550015
 21
17.60168768001591
 31
0.0
1001
AcDbBlockRepETag
1070
1
1071
44
1005
61D
  0
LINE
  5
E5
330
2F
100
AcDbEntity
  8
LONGARINA
  6
CONTINU
370
-2
 48
2.0
100
AcDbLine
 10
715.6842659550015
 20
17.60168768001591
 30
0.0
 11
719.0539204941592
 21
3.778809243684975
 31
0.0
1001
AcDbBlockRepETag
1070
1
1071
45
1005
61E
  0
LINE
  5
E6
330
2F
100
AcDbEntity
  8
LONGARINA
  6
CONTINU
370
-2
 48
2.0
100
AcDbLine
 10
718.8738899901505
 20
3.377424924913668
 30
0.0
 11
712.2340288773407
 21
-29.40198756447074
 31
0.0
1001
AcDbBlockRepETag
1070
1
1071
46
1005
61F
  0
LINE
  5
E7
330
2F
100
AcDbEntity
  8
LONGARINA
  6
CONTINU
370
-2
 48
2.0
100
AcDbLine
 10
715.6842659550015
 20
-32.39831231998409
 30
0.0
 11
719.0539204941592
 21
-46.22119075631502
 31
0.0
1001
AcDbBlockRepETag
1070
1
1071
47
1005
620
  0
LINE
  5
E8
330
2F
100
AcDbEntity
  8
LONGARINA
  6
CONTINU
370
-2
 48
2.0
100
AcDbLine
 10
718.8738899901505
 20
-46.62257507508633
 30
0.0
 11
716.1641329566478
 21
-59.99999999995356
 31
0.0
1001
AcDbBlockRepETag
1070
1
1071
48
1005
621
  0
LINE
  5
E9
330
2F
100
AcDbEntity
  8
LONGARINA
  6
CONTINU
370
-2
 48
2.0
100
AcDbLine
 10
716.1641329566478
 20
-59.99999999995356
 30
0.0
 11
713.2773816107069
 21
-64.99999999995356
 31
0.0
1001
AcDbBlockRepETag
1070
1
1071
49
1005
622
  0
LINE
  5
EA
330
2F
100
AcDbEntity
  8
LONGARINA
  6
CONTINU
370
-2
 48
2.0
100
AcDbLine
 10
706.5367513459636
 20
-64.99999999995356
 30
0.0
 11
703.6499999999064
 21
-59.99999999998266
 31
0.0
1001
AcDbBlockRepETag
1070
1
1071
50
1005
623
  0
LINE
  5
EB
330
2F
100
AcDbEntity
  8
LONGARINA
  6
CONTINU
370
-2
 48
2.0
100
AcDbLine
 10
703.6499999999064
 20
-59.99999999998266
 30
0.0
 11
703.6499999999064
 21
80.00000000001732
 31
0.0
1001
AcDbBlockRepETag
1070
1
1071
51
1005
624
  0
LINE
  5
EC
330
2F
100
AcDbEntity
  8
LONGARINA
  6
CONTINU
370
-2
 48
2.0
100
AcDbLine
 10
703.6499999999064
 20
80.00000000001732
 30
0.0
 11
706.5367513459636
 21
85.00000000001732
 31
0.0
1001
AcDbBlockRepETag
1070
1
1071
52
1005
625
  0
LINE
  5
ED
330
2F
100
AcDbEntity
  8
LONGARINA
  6
CONTINU
370
-2
 48
2.0
100
AcDbLine
 10
713.2773816107069
 20
85.00000000001732
 30
0.0
 11
714.6646156308702
 21
82.597240195074
 31
0.0
1001
AcDbBlockRepETag
1070
1
1071
53
1005
626
  0
LINE
  5
EE
330
2F
100
AcDbEntity
  8
LONGARINA
  6
CONTINU
370
-2
 48
2.0
100
AcDbLine
 10
714.6646156308702
 20
82.597240195074
 30
0.0
 11
712.2340274750017
 21
70.5980055117571
 31
0.0
1001
AcDbBlockRepETag
1070
1
1071
54
1005
627
  0
LINE
  5
EF
330
2F
100
AcDbEntity
  8
LONGARINA
  6
CONTINU
370
-2
 48
2.0
100
AcDbLine
 10
713.2773816107069
 20
-64.99999999995356
 30
0.0
 11
706.7499999999995
 21
-64.99999999995356
 31
0.0
1001
AcDbBlockRepETag
1070
1
1071
55
1005
628
  0
LINE
  5
F0
330
2F
100
AcDbEntity
  8
LONGARINA
  6
CONTINU
370
-2
 48
2.0
100
AcDbLine
 10
706.7499999999995
 20
-64.99999999995356
 30
0.0
 11
706.5367513459636
 21
-64.99999999995356
 31
0.0
1001
AcDbBlockRepETag
1070
1
1071
56
1005
629
  0
LINE
  5
F1
330
2F
100
AcDbEntity
  8
LONGARINA
  6
CONTINU
370
-2
 48
2.0
100
AcDbLine
 10
706.5367513459636
 20
85.00000000001732
 30
0.0
 11
706.7499999999995
 21
85.00000000001732
 31
0.0
1001
AcDbBlockRepETag
1070
1
1071
57
1005
62A
  0
LINE
  5
F2
330
2F
100
AcDbEntity
  8
LONGARINA
  6
CONTINU
370
-2
 48
2.0
100
AcDbLine
 10
706.7499999999995
 20
85.00000000001732
 30
0.0
 11
713.2773816107069
 21
85.00000000001732
 31
0.0
1001
AcDbBlockRepETag
1070
1
1071
58
1005
62B
  0
LINE
  5
F3
330
2F
100
AcDbEntity
  8
LONGARINA
  6
CONTINU
370
-2
 48
2.0
100
AcDbLine
 10
699.9999999999995
 20
-59.99999999998266
 30
0.0
 11
699.9999999999995
 21
80.00000000001732
 31
0.0
1001
AcDbBlockRepETag
1070
1
1071
59
1005
62C
  0
LINE
  5
F4
330
2F
100
AcDbEntity
  8
LONGARINA
  6
CONTINU
370
-2
 48
2.0
100
AcDbLine
 10
703.6499999999064
 20
80.00000000001732
 30
0.0
 11
699.9999999999995
 21
80.00000000001732
 31
0.0
1001
AcDbBlockRepETag
1070
1
1071
60
1005
62D
  0
LINE
  5
F5
330
2F
100
AcDbEntity
  8
LONGARINA
  6
CONTINU
370
-2
 48
2.0
100
AcDbLine
 10
699.9999999999995
 20
-59.99999999998266
 30
0.0
 11
703.6499999999064
 21
-59.99999999995356
 31
0.0
1001
AcDbBlockRepETag
1070
1
1071
61
1005
62E
  0
LINE
  5
F6
330
2F
100
AcDbEntity
  8
LONGARINA
  6
CONTINU
370
-2
 48
2.0
100
AcDbLine
 10
716.6295724072256
 20
-32.16787144673884
 30
0.0
 11
719.2304202429945
 21
-31.53385308685841
 31
0.0
1001
AcDbBlockRepETag
1070
1
1071
62
1005
62F
  0
LINE
  5
F7
330
2F
100
AcDbEntity
  8
LONGARINA
  6
CONTINU
370
-2
 48
2.0
100
AcDbLine
 10
719.6171466751252
 20
-45.84955585728761
 30
0.0
 11
720.341797991306
 21
-45.67290490808676
 31
0.0
1001
AcDbBlockRepETag
1070
1
1071
63
1005
630
  0
LINE
  5
F8
330
2F
100
AcDbEntity
  8
LONGARINA
  6
CONTINU
370
-2
 48
2.0
100
AcDbLine
 10
722.5461542879925
 20
-45.13554076682789
 30
0.0
 11
720.341797991306
 21
-45.67290490808676
 31
0.0
1001
AcDbBlockRepETag
1070
1
1071
64
1005
631
  0
LINE
  5
F9
330
2F
100
AcDbEntity
  8
LONGARINA
  6
CONTINU
370
-2
 48
2.0
100
AcDbLine
 10
722.5461542879925
 20
-45.13554076679878
 30
0.0
 11
719.2304202429945
 21
-31.53385308685841
 31
0.0
1001
AcDbBlockRepETag
1070
1
1071
65
1005
632
  0
LINE
  5
FA
330
2F
100
AcDbEntity
  8
LONGARINA
  6
CONTINU
370
-2
 48
2.0
100
AcDbLine
 10
716.6295724072256
 20
17.83212855326115
 30
0.0
 11
719.2304202429945
 21
18.46614691314158
 31
0.0
1001
AcDbBlockRepETag
1070
1
1071
66
1005
633
  0
LINE
  5
FB
330
2F
100
AcDbEntity
  8
LONGARINA
  6
CONTINU
370
-2
 48
2.0
100
AcDbLine
 10
716.6295724072256
 20
17.83212855326115
 30
0.0
 11
715.6842659550015
 21
17.60168768001591
 31
0.0
1001
AcDbBlockRepETag
1070
1
1071
67
1005
634
  0
LINE
  5
FC
330
2F
100
AcDbEntity
  8
LONGARINA
  6
CONTINU
370
-2
 48
2.0
100
AcDbLine
 10
719.6171466751252
 20
4.150444142712387
 30
0.0
 11
722.5461542879925
 21
4.864459233113905
 31
0.0
1001
AcDbBlockRepETag
1070
1
1071
68
1005
635
  0
LINE
  5
FD
330
2F
100
AcDbEntity
  8
LONGARINA
  6
CONTINU
370
-2
 48
2.0
100
AcDbLine
 10
722.5461542879925
 20
4.864459233113905
 30
0.0
 11
719.2304202429945
 21
18.46614691314158
 31
0.0
1001
AcDbBlockRepETag
1070
1
1071
69
1005
636
  0
LINE
  5
FE
330
2F
100
AcDbEntity
  8
LONGARINA
  6
CONTINU
370
-2
 48
2.0
100
AcDbLine
 10
722.5461542918342
 20
54.86445923413254
 30
0.0
 11
719.6171442423941
 21
54.1504423458419
 31
0.0
1001
AcDbBlockRepETag
1070
1
1071
70
1005
637
  0
LINE
  5
FF
330
2F
100
AcDbEntity
  8
LONGARINA
  6
CONTINU
370
-2
 48
2.0
100
AcDbLine
 10
722.5461542918342
 20
54.86445923410343
 30
0.0
 11
719.2304202429945
 21
68.46614691314159
 31
0.0
1001
AcDbBlockRepETag
1070
1
1071
71
1005
638
  0
LINE
  5
100
330
2F
100
AcDbEntity
  8
LONGARINA
  6
CONTINU
370
-2
 48
2.0
100
AcDbLine
 10
719.2304202429945
 20
68.46614691314159
 30
0.0
 11
715.6842659550015
 21
67.60168767998681
 31
0.0
1001
AcDbBlockRepETag
1070
1
1071
72
1005
639
  0
ARC
  5
101
330
2F
100
AcDbEntity
  8
LONGARINA
  6
CONTINU
370
-2
 48
2.0
100
AcDbCircle
 10
714.6842638729134
 20
70.1016832875203
 30
0.0
 40
2.499995607534359
100
AcDbArc
 50
168.5490010282061
 51
270.0000477180469
1001
AcDbBlockRepETag
1070
1
1071
73
1005
63A
  0
ARC
  5
102
330
2F
100
AcDbEntity
  8
LONGARINA
  6
CONTINU
370
-2
 48
2.0
100
AcDbCircle
 10
719.8607693804656
 20
53.1723701724141
 30
0.0
 40
1.007957531003226
100
AcDbArc
 50
103.9870030903142
 51
168.2620462944875
1001
AcDbBlockRepETag
1070
1
1071
74
1005
63B
  0
ARC
  5
103
330
2F
100
AcDbEntity
  8
LONGARINA
  6
CONTINU
370
-2
 48
2.0
100
AcDbCircle
 10
719.8607718131966
 20
3.172371969284597
 30
0.0
 40
1.007957531003226
100
AcDbArc
 50
103.9870030903142
 51
168.2620462944875
1001
AcDbBlockRepETag
1070
1
1071
75
1005
63C
  0
ARC
  5
104
330
2F
100
AcDbEntity
  8
LONGARINA
  6
CONTINU
370
-2
 48
2.0
100
AcDbCircle
 10
719.8607718131966
 20
-46.8276280307154
 30
0.0
 40
1.007957531003226
100
AcDbArc
 50
103.9870030903142
 51
168.2620462944875
1001
AcDbBlockRepETag
1070
1
1071
76
1005
63D
  0
ARC
  5
105
330
2F
100
AcDbEntity
  8
LONGARINA
  6
CONTINU
370
-2
 48
2.0
100
AcDbCircle
 10
714.6842638729134
 20
70.1016832874621
 30
0.0
 40
2.499995607447047
100
AcDbArc
 50
168.5490010261251
 51
270.0000477180469
1001
AcDbBlockRepETag
1070
1
1071
77
1005
63E
  0
ARC
  5
106
330
2F
100
AcDbEntity
  8
LONGARINA
  6
CONTINU
370
-2
 48
2.0
100
AcDbCircle
 10
714.6842638729134
 20
20.10168328746209
 30
0.0
 40
2.499995607447047
100
AcDbArc
 50
168.5490010261251
 51
270.0000477180469
1001
AcDbBlockRepETag
1070
1
1071
78
1005
63F
  0
ARC
  5
107
330
2F
100
AcDbEntity
  8
LONGARINA
  6
CONTINU
370
-2
 48
2.0
100
AcDbCircle
 10
714.6842638729134
 20
-29.89831671253791
 30
0.0
 40
2.499995607447047
100
AcDbArc
 50
168.5490010261251
 51
270.0000477180469
1001
AcDbBlockRepETag
1070
1
1071
79
1005
640
  0
LINE
  5
108
330
2F
100
AcDbEntity
  8
LONGARINA
  6
CONTINU
370
-2
 48
2.0
100
AcDbLine
 10
0.0
 20
0.0
 30
0.0
 11
699.9999999999995
 21
1.73372e-11
 31
0.0
1001
AcDbBlockRepETag
1070
1
1071
80
1005
641
  0
LINE
  5
109
330
2F
100
AcDbEntity
  8
LONGARINA
  6
CONTINU
370
-2
 48
2.0
100
AcDbLine
 10
0.0
 20
80.00000000000006
 30
0.0
 11
699.9999999999995
 21
80.00000000001732
 31
0.0
1001
AcDbBlockRepETag
1070
1
1071
81
1005
642
  0
ARC
  5
10A
330
2F
100
AcDbEntity
  8
LONGARINA
  6
CONTINU
370
-2
 48
2.0
100
AcDbCircle
 10
719.3654936058442
 20
-26.89423273726146
 30
0.0
 40
4.000000000006086
100
AcDbArc
 50
14.90059668866461
 51
194.9005966886646
1001
AcDbBlockRepETag
1070
1
1071
82
1005
643
  0
ARC
  5
10B
330
2F
100
AcDbEntity
  8
LONGARINA
  6
CONTINU
370
-2
 48
2.0
100
AcDbCircle
 10
723.8654936058442
 20
-43.80576726259909
 30
0.0
 40
4.000000000006086
100
AcDbArc
 50
207.8740094343051
 51
14.90059668866461
1001
AcDbBlockRepETag
1070
1
1071
83
1005
644
  0
LINE
  5
10C
330
2F
100
AcDbEntity
  8
LONGARINA
  6
CONTINU
370
-2
 48
2.0
100
AcDbLine
 10
715.4999999999995
 20
-27.92280416584703
 30
0.0
 11
716.629572407342
 21
-32.16787144670974
 31
0.0
1001
AcDbBlockRepETag
1070
1
1071
84
1005
645
  0
LINE
  5
10D
330
2F
100
AcDbEntity
  8
LONGARINA
  6
CONTINU
370
-2
 48
2.0
100
AcDbLine
 10
727.7309872115725
 20
-42.77719583401352
 30
0.0
 11
723.2309872116888
 21
-25.865661308705
 31
0.0
1001
AcDbBlockRepETag
1070
1
1071
85
1005
646
  0
ENDBLK
  5
31
330
2F
100
AcDbEntity
  8
0
100
AcDbBlockEnd
  0
ENDSEC
  0
SECTION
  2
ENTITIES
  0
INSERT
  5
10E
330
17
100
AcDbEntity
  8
0
100
AcDbBlockReference
  2
DI_LGTOPO_CONTRAV
 10
0.0
 20
0.0
 30
0.0
  0
ENDSEC
  0
SECTION
  2
OBJECTS
  0
DICTIONARY
  5
A
330
0
100
AcDbDictionary
281
1
  3
ACAD_COLOR
350
B
  3
ACAD_GROUP
350
C
  3
ACAD_LAYOUT
350
D
  3
ACAD_MATERIAL
350
E
  3
ACAD_MLEADERSTYLE
350
F
  3
ACAD_MLINESTYLE
350
10
  3
ACAD_PLOTSETTINGS
350
11
  3
ACAD_PLOTSTYLENAME
350
12
  3
ACAD_SCALELIST
350
14
  3
ACAD_TABLESTYLE
350
15
  3
ACAD_VISUALSTYLE
350
16
  3
EZDXF_META
350
2D
  0
DICTIONARY
  5
B
330
A
100
AcDbDictionary
281
1
  0
DICTIONARY
  5
C
330
A
100
AcDbDictionary
281
1
  0
DICTIONARY
  5
D
330
A
100
AcDbDictionary
281
1
  3
Model
350
1A
  3
Layout1
350
1E
  0
DICTIONARY
  5
E
330
A
100
AcDbDictionary
281
1
  3
ByBlock
350
1F
  3
ByLayer
350
20
  3
Global
350
21
  0
DICTIONARY
  5
F
330
A
100
AcDbDictionary
281
1
  3
Standard
350
2C
  0
DICTIONARY
  5
10
330
A
100
AcDbDictionary
281
1
  3
Standard
350
22
  0
DICTIONARY
  5
11
330
A
100
AcDbDictionary
281
1
  0
ACDBDICTIONARYWDFLT
  5
12
330
A
100
AcDbDictionary
281
1
  3
Normal
350
13
100
AcDbDictionaryWithDefault
340
13
  0
ACDBPLACEHOLDER
  5
13
330
12
  0
DICTIONARY
  5
14
330
A
100
AcDbDictionary
281
1
  0
DICTIONARY
  5
15
330
A
100
AcDbDictionary
281
1
  0
DICTIONARY
  5
16
330
A
100
AcDbDictionary
281
1
  0
LAYOUT
  5
1A
330
D
100
AcDbPlotSettings
  1

  4
A3
  6

 40
7.5
 41
20.0
 42
7.5
 43
20.0
 44
420.0
 45
297.0
 46
0.0
 47
0.0
 48
0.0
 49
0.0
140
0.0
141
0.0
142
1.0
143
1.0
 70
1024
 72
1
 73
0
 74
5
  7

 75
16
 76
0
 77
2
 78
300
147
1.0
148
0.0
149
0.0
100
AcDbLayout
  1
Model
 70
1
 71
0
 10
0.0
 20
0.0
 11
420.0
 21
297.0
 12
0.0
 22
0.0
 32
0.0
 14
1e+20
 24
1e+20
 34
1e+20
 15
-1e+20
 25
-1e+20
 35
-1e+20
146
0.0
 13
0.0
 23
0.0
 33
0.0
 16
1.0
 26
0.0
 36
0.0
 17
0.0
 27
1.0
 37
0.0
 76
1
330
17
  0
LAYOUT
  5
1E
330
D
100
AcDbPlotSettings
  1

  4
A3
  6

 40
7.5
 41
20.0
 42
7.5
 43
20.0
 44
420.0
 45
297.0
 46
0.0
 47
0.0
 48
0.0
 49
0.0
140
0.0
141
0.0
142
1.0
143
1.0
 70
0
 72
1
 73
0
 74
5
  7

 75
16
 76
0
 77
2
 78
300
147
1.0
148
0.0
149
0.0
100
AcDbLayout
  1
Layout1
 70
1
 71
1
 10
0.0
 20
0.0
 11
420.0
 21
297.0
 12
0.0
 22
0.0
 32
0.0
 14
1e+20
 24
1e+20
 34
1e+20
 15
-1e+20
 25
-1e+20
 35
-1e+20
146
0.0
 13
0.0
 23
0.0
 33
0.0
 16
1.0
 26
0.0
 36
0.0
 17
0.0
 27
1.0
 37
0.0
 76
1
330
1B
  0
MATERIAL
  5
1F
102
{ACAD_REACTORS
330
E
102
}
330
E
100
AcDbMaterial
  1
ByBlock
  2

 70
0
 40
1.0
 71
1
 41
1.0
 91
-1023410177
 42
1.0
 72
1
  3

 73
1
 74
1
 75
1
 44
0.5
 73
0
 45
1.0
 46
1.0
 77
1
  4

 78
1
 79
1
170
1
 48
1.0
171
1
  6

172
1
173
1
174
1
140
1.0
141
1.0
175
1
  7

176
1
177
1
178
1
143
1.0
179
1
  8

270
1
271
1
272
1
145
1.0
146
1.0
273
1
  9

274
1
275
1
276
1
 42
1.0
 72
1
  3

 73
1
 74
1
 75
1
 94
63
  0
MATERIAL
  5
20
102
{ACAD_REACTORS
330
E
102
}
330
E
100
AcDbMaterial
  1
ByLayer
  2

 70
0
 40
1.0
 71
1
 41
1.0
 91
-1023410177
 42
1.0
 72
1
  3

 73
1
 74
1
 75
1
 44
0.5
 73
0
 45
1.0
 46
1.0
 77
1
  4

 78
1
 79
1
170
1
 48
1.0
171
1
  6

172
1
173
1
174
1
140
1.0
141
1.0
175
1
  7

176
1
177
1
178
1
143
1.0
179
1
  8

270
1
271
1
272
1
145
1.0
146
1.0
273
1
  9

274
1
275
1
276
1
 42
1.0
 72
1
  3

 73
1
 74
1
 75
1
 94
63
  0
MATERIAL
  5
21
102
{ACAD_REACTORS
330
E
102
}
330
E
100
AcDbMaterial
  1
Global
  2

 70
0
 40
1.0
 71
1
 41
1.0
 91
-1023410177
 42
1.0
 72
1
  3

 73
1
 74
1
 75
1
 44
0.5
 73
0
 45
1.0
 46
1.0
 77
1
  4

 78
1
 79
1
170
1
 48
1.0
171
1
  6

172
1
173
1
174
1
140
1.0
141
1.0
175
1
  7

176
1
177
1
178
1
143
1.0
179
1
  8

270
1
271
1
272
1
145
1.0
146
1.0
273
1
  9

274
1
275
1
276
1
 42
1.0
 72
1
  3

 73
1
 74
1
 75
1
 94
63
  0
MLINESTYLE
  5
22
102
{ACAD_REACTORS
330
10
102
}
330
10
100
AcDbMlineStyle
  2
Standard
 70
0
  3

 62
256
 51
90.0
 52
90.0
 71
2
 49
0.5
 62
256
  6
BYLAYER
 49
-0.5
 62
256
  6
BYLAYER
  0
MLEADERSTYLE
  5
2C
102
{ACAD_REACTORS
330
F
102
}
330
F
100
AcDbMLeaderStyle
179
2
170
2
171
1
172
0
 90
2
 40
0.0
 41
0.0
173
1
 91
-1056964608
 92
-2
290
1
 42
2.0
291
1
 43
8.0
  3
Standard
 44
4.0
300

342
29
174
1
175
1
176
0
178
1
 93
-1056964608
 45
4.0
292
0
297
0
 46
4.0
 94
-1056964608
 47
1.0
 49
1.0
140
1.0
294
1
141
0.0
177
0
142
1.0
295
0
296
0
143
3.75
271
0
272
9
273
9
  0
DICTIONARY
  5
2D
330
A
100
AcDbDictionary
280
1
281
1
  3
CREATED_BY_EZDXF
350
2E
  3
WRITTEN_BY_EZDXF
350
112
  0
DICTIONARYVAR
  5
2E
330
2D
100
DictionaryVariables
280
0
  1
1.4.4 @ 2026-10-08T21:25:24.546732+00:00
  0
DICTIONARYVAR
  5
112
330
2D
100
DictionaryVariables
280
0
  1
1.4.4 @ 2026-10-08T21:25:24.562750+00:00
  0
ENDSEC
  0
EOF
